<svg width="250" height="246" viewBox="0 0 250 246" fill="none" xmlns="http://www.w3.org/2000/svg">
<path d="M176.965 26.8252H140.25V62.3952H176.965V26.8252Z" fill="#EBEBEB"/>
<path d="M172.769 30.8906H144.444V58.3306H172.769V30.8906Z" fill="white"/>
<path d="M145.549 30.8906H144.444V58.3306H145.549V30.8906Z" fill="#DBDBDB"/>
<path d="M178.07 26.8252H176.965V62.3952H178.07V26.8252Z" fill="#DBDBDB"/>
<path d="M152.42 48.0654C155.11 53.9954 165.455 52.9054 166.09 45.6004C166.41 41.9154 163.795 37.4354 158.68 37.4404H158.655C152.64 37.8904 150.57 44.0004 152.42 48.0654Z" fill="#EBEBEB"/>
<path d="M151.925 35.9557C152.498 36.0159 153.03 36.2803 153.425 36.7007C153.84 37.0907 154.305 37.8107 154.125 38.3957C154.08 38.5457 153.985 38.5157 153.825 38.5107C153.321 38.4342 152.861 38.1829 152.525 37.8007C152.145 37.4543 151.802 37.0707 151.5 36.6557C151.457 36.5833 151.435 36.5007 151.436 36.4168C151.436 36.3328 151.459 36.2505 151.503 36.1788C151.547 36.107 151.609 36.0483 151.683 36.0091C151.757 35.9698 151.841 35.9513 151.925 35.9557Z" fill="#EBEBEB"/>
<path d="M156.155 33.7299C156.679 34.0689 157.057 34.5914 157.215 35.1949C157.375 35.6649 157.51 36.3749 157.155 36.7799C157.117 36.8173 157.067 36.8414 157.014 36.8486C156.961 36.8558 156.907 36.8458 156.86 36.8199C156.435 36.6149 156.245 35.9949 156.08 35.5899C155.839 35.0956 155.698 34.5587 155.665 34.0099C155.667 33.9532 155.683 33.8978 155.712 33.8492C155.741 33.8005 155.782 33.7601 155.831 33.732C155.88 33.7038 155.936 33.6888 155.993 33.6885C156.05 33.6881 156.105 33.7024 156.155 33.7299Z" fill="#EBEBEB"/>
<path d="M149.355 39.1805C150.305 38.9755 151.6 39.2905 151.96 40.2955C151.978 40.367 151.968 40.443 151.932 40.5074C151.896 40.5718 151.836 40.6195 151.765 40.6405C151.393 40.7347 151 40.7013 150.65 40.5455C150.22 40.4155 149.775 40.3855 149.355 40.2205C148.935 40.0555 148.785 39.3055 149.355 39.1805Z" fill="#EBEBEB"/>
<path d="M160.805 34.7857C161.008 34.3596 161.3 33.9814 161.66 33.6757C161.835 33.5007 162.065 33.6757 162.03 33.9057C161.97 34.3307 161.98 34.7707 161.91 35.1957C161.879 35.6202 161.771 36.0354 161.59 36.4207C161.537 36.5167 161.456 36.5943 161.357 36.6431C161.259 36.6919 161.148 36.7097 161.04 36.6939C160.931 36.6782 160.83 36.6297 160.749 36.555C160.669 36.4803 160.613 36.3828 160.59 36.2757C160.503 35.7687 160.578 35.2474 160.805 34.7857Z" fill="#EBEBEB"/>
<path d="M149.099 42.8203C149.744 42.8221 150.364 43.0646 150.839 43.5003C150.873 43.5353 150.898 43.5774 150.913 43.6233C150.928 43.6692 150.932 43.7179 150.926 43.7658C150.92 43.8136 150.903 43.8595 150.877 43.9001C150.85 43.9407 150.815 43.9749 150.774 44.0003C150.214 44.2373 149.594 44.295 148.999 44.1653C148.569 44.1303 147.594 44.1653 147.644 43.5103C147.694 42.8553 148.619 42.7803 149.099 42.8203Z" fill="#EBEBEB"/>
<path d="M148.529 48.12C148.779 47.7134 149.13 47.3791 149.548 47.1501C149.967 46.9212 150.437 46.8057 150.914 46.815C150.972 46.8176 151.028 46.8345 151.078 46.8641C151.127 46.8937 151.169 46.935 151.198 46.9845C151.228 47.034 151.245 47.0901 151.248 47.1478C151.251 47.2054 151.239 47.2629 151.214 47.315C150.944 47.7032 150.586 48.0221 150.168 48.2454C149.751 48.4687 149.287 48.5902 148.814 48.6C148.759 48.5972 148.705 48.5808 148.658 48.5523C148.611 48.5237 148.571 48.4839 148.543 48.4364C148.515 48.3889 148.499 48.3351 148.496 48.2799C148.494 48.2247 148.505 48.1698 148.529 48.12Z" fill="#EBEBEB"/>
<path d="M150.204 52.6702C150.411 52.1593 150.757 51.7172 151.204 51.3952C151.641 50.9829 152.192 50.7112 152.784 50.6152C152.979 50.6152 153.074 50.8352 153.019 51.0202C152.9 51.3011 152.753 51.5692 152.579 51.8202C152.417 52.0876 152.213 52.3273 151.974 52.5302C151.774 52.7156 151.537 52.856 151.278 52.9423C151.02 53.0285 150.746 53.0585 150.474 53.0302C150.432 53.0261 150.392 53.0133 150.355 52.9925C150.318 52.9718 150.286 52.9435 150.26 52.9097C150.235 52.8758 150.217 52.837 150.207 52.7958C150.198 52.7546 150.197 52.7118 150.204 52.6702Z" fill="#EBEBEB"/>
<path d="M156.09 52.4502C156.114 52.412 156.147 52.3804 156.186 52.3585C156.226 52.3367 156.27 52.3252 156.315 52.3252C156.36 52.3252 156.405 52.3367 156.444 52.3585C156.483 52.3804 156.516 52.412 156.54 52.4502C156.752 52.9024 156.791 53.4162 156.65 53.8952C156.593 54.4824 156.349 55.036 155.955 55.4752C155.89 55.5381 155.809 55.5832 155.721 55.6061C155.633 55.6289 155.541 55.6288 155.453 55.6057C155.365 55.5826 155.285 55.5373 155.22 55.4742C155.154 55.4111 155.106 55.3322 155.08 55.2452C154.81 54.2352 155.545 53.2202 156.09 52.4502Z" fill="#EBEBEB"/>
<path d="M160.91 52.3005C160.936 52.2562 160.972 52.2184 161.015 52.1901C161.058 52.1617 161.107 52.1435 161.158 52.1367C161.209 52.13 161.261 52.1349 161.31 52.1512C161.359 52.1674 161.403 52.1945 161.44 52.2305C161.829 52.6399 162.07 53.168 162.125 53.7305C162.18 54.2305 162.32 54.8805 162.075 55.3255C162.036 55.3905 161.983 55.4459 161.92 55.4874C161.856 55.5289 161.784 55.5554 161.709 55.5651C161.634 55.5747 161.558 55.5671 161.486 55.5429C161.414 55.5188 161.349 55.4786 161.295 55.4255C160.93 55.1155 160.795 54.3805 160.7 53.9255C160.564 53.3766 160.639 52.7968 160.91 52.3005Z" fill="#EBEBEB"/>
<path d="M165.025 49.9404C165.234 49.9588 165.439 50.0129 165.63 50.1004C165.833 50.2256 166.027 50.366 166.21 50.5204C166.509 50.7892 166.828 51.0349 167.165 51.2554C167.239 51.3013 167.297 51.3701 167.329 51.4515C167.362 51.533 167.366 51.6227 167.343 51.7072C167.32 51.7917 167.27 51.8665 167.201 51.9202C167.132 51.974 167.047 52.0039 166.96 52.0054C166.692 52.0456 166.418 52.0318 166.155 51.9648C165.893 51.8979 165.646 51.779 165.43 51.6154C165.195 51.4429 164.994 51.2275 164.84 50.9804C164.715 50.7435 164.657 50.4776 164.67 50.2104C164.671 50.1675 164.681 50.1254 164.701 50.0872C164.72 50.0491 164.748 50.0157 164.782 49.9898C164.816 49.9638 164.856 49.9459 164.898 49.9374C164.94 49.9288 164.983 49.9298 165.025 49.9404Z" fill="#EBEBEB"/>
<path d="M167.185 46.0004C167.486 45.9276 167.799 45.9244 168.102 45.9912C168.404 46.0579 168.687 46.1927 168.93 46.3854C169.265 46.6554 169.705 47.1904 169.54 47.6504C169.526 47.7009 169.5 47.7469 169.463 47.7838C169.426 47.8207 169.38 47.8471 169.33 47.8604C168.936 47.8621 168.547 47.7659 168.2 47.5804C167.678 47.4826 167.204 47.2154 166.85 46.8204C166.807 46.7464 166.782 46.6636 166.776 46.5783C166.77 46.4929 166.784 46.4074 166.816 46.3283C166.848 46.2491 166.898 46.1784 166.962 46.1216C167.026 46.0647 167.102 46.0233 167.185 46.0004Z" fill="#EBEBEB"/>
<path d="M166.635 41.9599C166.831 41.7067 167.118 41.5399 167.435 41.4949C167.938 41.3608 168.452 41.2639 168.97 41.2049C169.245 41.1599 169.575 41.4449 169.375 41.7049C169.101 42.1453 168.717 42.5058 168.26 42.7499C167.76 42.9849 167.035 43.2499 166.655 42.6899C166.581 42.5832 166.54 42.4575 166.536 42.3279C166.533 42.1983 166.567 42.0705 166.635 41.9599Z" fill="#EBEBEB"/>
<path d="M164.069 38.2449C164.244 37.2749 165.279 36.8349 166.104 36.5799C166.449 36.4749 166.604 36.8999 166.424 37.1399C166.244 37.3799 166.009 37.6949 165.789 37.9599C165.569 38.2249 165.454 38.4899 165.289 38.7549C165.21 38.8985 165.081 39.0078 164.926 39.0619C164.771 39.1159 164.602 39.1108 164.451 39.0475C164.299 38.9843 164.177 38.8673 164.106 38.7192C164.036 38.571 164.023 38.4021 164.069 38.2449Z" fill="#EBEBEB"/>
<path d="M156.765 42.5C156.765 42.77 156.545 42.245 156.265 42.245C155.985 42.245 155.765 42.745 155.765 42.5C155.765 42.3674 155.817 42.2402 155.911 42.1464C156.005 42.0527 156.132 42 156.265 42C156.397 42 156.524 42.0527 156.618 42.1464C156.712 42.2402 156.765 42.3674 156.765 42.5Z" fill="#A6A6A6"/>
<path d="M161.885 42.5C161.885 42.77 161.665 42.25 161.385 42.25C161.105 42.25 160.885 42.75 160.885 42.5C160.885 42.3674 160.937 42.2402 161.031 42.1464C161.125 42.0527 161.252 42 161.385 42C161.517 42 161.645 42.0527 161.738 42.1464C161.832 42.2402 161.885 42.3674 161.885 42.5Z" fill="#A6A6A6"/>
<path d="M155.35 43.8203C155.351 44.0519 155.283 44.2786 155.155 44.4716C155.027 44.6647 154.845 44.8155 154.631 44.9048C154.417 44.9941 154.182 45.018 153.955 44.9734C153.727 44.9288 153.518 44.8178 153.354 44.6544C153.19 44.4909 153.078 44.2825 153.033 44.0554C152.987 43.8283 153.01 43.5928 153.098 43.3787C153.187 43.1646 153.337 42.9816 153.529 42.8528C153.722 42.724 153.948 42.6553 154.18 42.6553C154.489 42.6553 154.786 42.7779 155.005 42.9962C155.225 43.2145 155.348 43.5108 155.35 43.8203Z" fill="white"/>
<path d="M164.869 43.8203C164.87 44.0519 164.802 44.2786 164.675 44.4716C164.547 44.6647 164.364 44.8155 164.151 44.9048C163.937 44.9941 163.701 45.018 163.474 44.9734C163.247 44.9288 163.038 44.8178 162.874 44.6544C162.71 44.4909 162.598 44.2825 162.552 44.0554C162.507 43.8283 162.529 43.5928 162.618 43.3787C162.706 43.1646 162.856 42.9816 163.049 42.8528C163.241 42.724 163.468 42.6553 163.699 42.6553C164.009 42.6553 164.306 42.7779 164.525 42.9962C164.744 43.2145 164.868 43.5108 164.869 43.8203Z" fill="white"/>
<path d="M157.89 42.6748C157.985 42.8434 158.125 42.9819 158.295 43.0748C158.453 43.1436 158.623 43.1792 158.795 43.1792C158.967 43.1792 159.137 43.1436 159.295 43.0748C159.465 42.983 159.607 42.8464 159.705 42.6798C159.715 42.7952 159.697 42.9113 159.652 43.0183C159.608 43.1253 159.539 43.2201 159.45 43.2948C159.264 43.4466 159.03 43.5264 158.79 43.5198C158.55 43.525 158.315 43.4434 158.13 43.2898C158.045 43.2134 157.978 43.1178 157.937 43.011C157.895 42.9041 157.879 42.789 157.89 42.6748Z" fill="#A6A6A6"/>
<path d="M223.695 62.1406H186.979V97.7106H223.695V62.1406Z" fill="#EBEBEB"/>
<path d="M219.5 66.2051H191.175V93.6451H219.5V66.2051Z" fill="white"/>
<path d="M192.28 66.2051H191.175V93.6451H192.28V66.2051Z" fill="#DBDBDB"/>
<path d="M224.799 62.1406H223.694V97.7106H224.799V62.1406Z" fill="#DBDBDB"/>
<path d="M216 81.2204C215.254 79.3495 214.05 77.6957 212.5 76.4104C211.587 75.6239 210.516 75.0414 209.36 74.7016C208.204 74.3619 206.988 74.2729 205.795 74.4404C205.064 74.5412 204.349 74.7309 203.665 75.0054C199.76 76.5704 198.235 80.5054 197.89 81.9154C197.519 81.864 197.156 81.7735 196.805 81.6454C196.645 81.4854 198.415 73.9104 205.52 72.9304C205.893 72.8772 206.268 72.8455 206.645 72.8354C208.596 72.7908 210.51 73.3745 212.105 74.5004C214.995 76.5004 216.55 79.6654 216.76 80.6104C216.8 80.8004 216.5 81.0004 216 81.2204Z" fill="#A6A6A6"/>
<path d="M216 81.2208C215.674 81.3603 215.34 81.4805 215 81.5808C214.325 80.0234 213.298 78.6438 212 77.5508C211.19 76.8541 210.241 76.3384 209.215 76.0383C208.19 75.7382 207.112 75.6607 206.055 75.8108C205.285 75.9134 204.535 76.1308 203.83 76.4558C200.86 77.8158 199.54 80.7308 199.12 82.1308L197.93 81.9158C198.275 80.5058 199.8 76.5708 203.705 75.0058C204.389 74.7313 205.104 74.5415 205.835 74.4408C207.022 74.2791 208.23 74.3711 209.379 74.7107C210.527 75.0502 211.591 75.6297 212.5 76.4108C214.05 77.6961 215.254 79.3499 216 81.2208Z" fill="#C7C7C7"/>
<path d="M215 81.5799C214.612 81.7014 214.216 81.7933 213.815 81.8549C213.129 80.4845 212.118 79.3032 210.87 78.4149C209.531 77.4678 207.876 77.0771 206.255 77.3249C205.763 77.3943 205.28 77.5167 204.815 77.6899C202.23 78.6599 200.975 80.9699 200.475 82.3549L199.095 82.1299C199.515 80.7299 200.835 77.8149 203.805 76.4549C204.51 76.1299 205.26 75.9125 206.03 75.8099C207.091 75.6561 208.174 75.7319 209.204 76.032C210.233 76.3322 211.187 76.8498 212 77.5499C213.298 78.6429 214.325 80.0225 215 81.5799Z" fill="#DBDBDB"/>
<path d="M213.815 81.8556C213.687 81.8925 213.552 81.8925 213.425 81.8556C213.25 81.7256 211.865 79.7606 209.825 78.7606C208.982 78.321 208.033 78.1253 207.085 78.1956C206.755 78.2236 206.429 78.2822 206.11 78.3706C203.085 79.2206 202.015 82.5206 201.61 82.5206C201.525 82.5206 201.07 82.4556 200.47 82.3606C200.97 80.9756 202.225 78.6656 204.81 77.6956C205.275 77.5224 205.758 77.4 206.25 77.3306C207.871 77.0827 209.526 77.4735 210.865 78.4206C212.114 79.3069 213.127 80.4864 213.815 81.8556Z" fill="#EBEBEB"/>
<path d="M218.185 82.4403C218.206 82.7801 218.157 83.1206 218.04 83.4403C217.824 84.0361 217.39 84.5276 216.825 84.8153C215.325 85.6303 214.07 84.2503 214.07 84.2503C213.871 84.5024 213.623 84.7117 213.342 84.8655C213.06 85.0193 212.75 85.1145 212.43 85.1453C212.1 85.1537 211.776 85.0628 211.499 84.8845C211.222 84.7061 211.004 84.4486 210.875 84.1453C210.875 84.1453 209.925 83.8953 209.915 83.1453C209.915 82.1453 211.035 82.2003 211.035 82.2003C211.035 82.2003 210.85 80.4403 212.15 79.9903C212.552 79.8532 212.988 79.8532 213.39 79.9903C213.731 80.0993 214.037 80.2979 214.275 80.5653C214.363 80.1937 214.567 79.8598 214.857 79.6117C215.148 79.3636 215.509 79.2143 215.89 79.1853C216.89 79.1503 217.515 80.3253 217.515 80.3253C217.75 80.2893 217.99 80.3284 218.201 80.4371C218.412 80.5458 218.583 80.7184 218.69 80.9303C218.79 81.202 218.794 81.4995 218.702 81.7739C218.61 82.0483 218.428 82.2833 218.185 82.4403Z" fill="#EBEBEB"/>
<path d="M194.945 81.32C195.063 80.831 195.322 80.3871 195.689 80.0426C196.055 79.6981 196.514 79.4678 197.01 79.38C198.765 79.04 199.565 80.78 199.565 80.78C199.838 80.5905 200.147 80.4583 200.472 80.3913C200.798 80.3243 201.134 80.3238 201.46 80.39C201.787 80.4844 202.079 80.6741 202.298 80.9351C202.517 81.196 202.653 81.5162 202.69 81.855C202.69 81.855 203.555 82.385 203.335 83.135C203.045 84.135 201.945 83.725 201.945 83.725C201.945 83.725 201.59 85.525 200.165 85.57C199.727 85.5953 199.294 85.472 198.935 85.22C198.632 85.0064 198.39 84.7189 198.23 84.385C198.03 84.7221 197.73 84.9877 197.371 85.1439C197.012 85.3001 196.612 85.339 196.23 85.255C195.23 84.98 194.97 83.635 194.97 83.635C194.723 83.6042 194.492 83.4948 194.312 83.3228C194.132 83.1508 194.012 82.9254 193.97 82.68C193.949 82.3754 194.035 82.073 194.213 81.8249C194.391 81.5767 194.65 81.3982 194.945 81.32Z" fill="#EBEBEB"/>
<path d="M204.614 76.5752C204.614 76.8502 204.394 76.3202 204.114 76.3202C203.834 76.3202 203.614 76.8502 203.614 76.5752C203.614 76.4426 203.667 76.3154 203.761 76.2216C203.854 76.1279 203.982 76.0752 204.114 76.0752C204.247 76.0752 204.374 76.1279 204.468 76.2216C204.562 76.3154 204.614 76.4426 204.614 76.5752Z" fill="#A6A6A6"/>
<path d="M209.734 76.5752C209.734 76.8502 209.514 76.3302 209.234 76.3302C208.954 76.3302 208.734 76.8302 208.734 76.5752C208.734 76.4426 208.787 76.3154 208.881 76.2216C208.975 76.1279 209.102 76.0752 209.234 76.0752C209.367 76.0752 209.494 76.1279 209.588 76.2216C209.682 76.3154 209.734 76.4426 209.734 76.5752Z" fill="#A6A6A6"/>
<path d="M203.194 77.875C203.195 78.1066 203.128 78.3333 203 78.5263C202.872 78.7194 202.689 78.8701 202.476 78.9595C202.262 79.0488 202.027 79.0727 201.799 79.0281C201.572 78.9835 201.363 78.8725 201.199 78.709C201.035 78.5456 200.923 78.3372 200.877 78.1101C200.832 77.883 200.855 77.6475 200.943 77.4334C201.031 77.2193 201.181 77.0363 201.374 76.9075C201.566 76.7787 201.793 76.71 202.024 76.71C202.334 76.71 202.631 76.8325 202.85 77.0509C203.069 77.2692 203.193 77.5655 203.194 77.875Z" fill="white"/>
<path d="M212.715 77.875C212.716 78.1068 212.648 78.3337 212.52 78.5269C212.392 78.72 212.209 78.8708 211.995 78.9599C211.781 79.0491 211.545 79.0727 211.318 79.0277C211.091 78.9827 210.882 78.8712 210.718 78.7073C210.554 78.5434 210.442 78.3344 210.397 78.107C210.352 77.8796 210.376 77.6439 210.465 77.4299C210.554 77.2159 210.705 77.0333 210.898 76.9051C211.091 76.7769 211.318 76.709 211.55 76.71C211.859 76.71 212.155 76.8327 212.374 77.0512C212.592 77.2697 212.715 77.566 212.715 77.875Z" fill="white"/>
<path d="M205.735 76.7305C205.83 76.899 205.97 77.0376 206.14 77.1305C206.296 77.2054 206.467 77.2431 206.64 77.2405C206.813 77.2417 206.984 77.2041 207.14 77.1305C207.309 77.0363 207.449 76.8981 207.545 76.7305C207.555 76.8454 207.537 76.9611 207.494 77.068C207.45 77.1749 207.382 77.27 207.295 77.3455C207.108 77.5002 206.872 77.5819 206.63 77.5755C206.389 77.5793 206.154 77.4958 205.97 77.3405C205.886 77.264 205.821 77.1691 205.78 77.0632C205.739 76.9574 205.724 76.8434 205.735 76.7305Z" fill="#A6A6A6"/>
<path d="M43.7947 139.781L37.2347 139.916L33.9047 139.976C32.7897 139.976 31.6697 139.976 30.5547 140.001H30.3347V139.781L30.3047 134.186V133.931H30.5547L37.1747 133.961C39.3847 133.961 41.5897 134.016 43.7947 134.041H43.9347V134.176C43.9347 135.121 43.8897 136.066 43.8697 137.001L43.7947 139.781ZM43.7947 139.781L43.7247 136.951C43.7247 136.021 43.6697 135.101 43.6597 134.186L43.7947 134.321C41.5897 134.346 39.3847 134.401 37.1747 134.401L30.5547 134.436L30.8047 134.186V139.781L30.5797 139.556C31.6697 139.556 32.7597 139.556 33.8547 139.581L37.1447 139.641L43.7947 139.781Z" fill="#EBEBEB"/>
<path d="M36.4099 146.835L29.8499 146.97L26.5199 147.03C25.4049 147.03 24.2849 147.03 23.1699 147.055H22.9499V146.835L22.9199 141.24V141H23.1699L29.7899 141.03C31.9949 141.03 34.2049 141.085 36.4099 141.11H36.5499V141.245C36.5499 142.19 36.5099 143.135 36.4849 144.07L36.4099 146.835ZM36.4099 146.835L36.3399 144C36.3149 143.07 36.2849 142.15 36.2749 141.235L36.4099 141.37C34.2049 141.395 31.9949 141.45 29.7899 141.45L23.1699 141.5L23.4199 141.255L23.3949 146.85L23.1699 146.625C24.2599 146.625 25.3499 146.625 26.4449 146.625L29.7349 146.685L36.4099 146.835Z" fill="#EBEBEB"/>
<path d="M181.79 81.1555L175.23 81.2955L171.9 81.3505C170.785 81.3755 169.665 81.3505 168.55 81.3805H168.33V81.1555L168.3 75.5605V75.3105H168.55L175.17 75.3456C177.38 75.3456 179.585 75.4006 181.79 75.4256H181.93V75.5605C181.93 76.5105 181.885 77.4555 181.86 78.3905L181.79 81.1555ZM181.79 81.1555L181.72 78.3306C181.72 77.3956 181.665 76.4755 181.655 75.5605L181.79 75.6955C179.585 75.7255 177.38 75.7755 175.17 75.7805L168.55 75.8105L168.8 75.5605L168.775 81.1555L168.55 80.9355C169.64 80.9355 170.73 80.9355 171.825 80.9355L175.115 80.9905L181.79 81.1555Z" fill="#EBEBEB"/>
<path d="M174.405 88.2102L167.845 88.3502L164.51 88.4052C163.4 88.4302 162.28 88.4052 161.165 88.4352H160.945V88.2102L160.92 82.6152V82.3652H161.17L167.79 82.3952C169.995 82.3952 172.205 82.4552 174.41 82.4802H174.55V82.6152C174.55 83.5652 174.51 84.5102 174.485 85.4452L174.405 88.2102ZM174.405 88.2102L174.335 85.3852C174.31 84.4502 174.28 83.5302 174.27 82.6152L174.405 82.7502C172.2 82.7802 169.99 82.8302 167.785 82.8352L161.165 82.8652L161.415 82.6152L161.39 88.2102L161.165 87.9902C162.255 87.9902 163.345 87.9902 164.44 88.0152L167.725 88.0702L174.405 88.2102Z" fill="#EBEBEB"/>
<path d="M226.83 146.835L220.265 146.97L216.935 147.03C215.825 147.03 214.705 147.03 213.59 147.055H213.365V146.835L213.34 141.24V141H213.59L220.21 141.03C222.415 141.03 224.625 141.085 226.83 141.11H226.965V141.245C226.965 142.19 226.925 143.135 226.9 144.07L226.83 146.835ZM226.83 146.835L226.76 144.005C226.76 143.075 226.7 142.155 226.695 141.24L226.83 141.375C224.625 141.4 222.415 141.455 220.21 141.455L213.59 141.485L213.84 141.24L213.81 146.835L213.59 146.61C214.68 146.61 215.77 146.61 216.86 146.61L220.15 146.67L226.83 146.835Z" fill="#EBEBEB"/>
<path d="M219.445 27.5999L212.88 27.7399L209.55 27.7949C208.44 27.7949 207.32 27.7949 206.205 27.8249H206V27.5999V22.0049V21.7549H206.255L212.875 21.7849C215.08 21.7849 217.285 21.8449 219.495 21.8699H219.63V21.9999C219.63 22.9499 219.585 23.8949 219.565 24.8249L219.445 27.5999ZM219.445 27.5999L219.375 24.7749C219.35 23.8399 219.315 22.9199 219.305 22.0049L219.445 22.1399C217.235 22.1399 215.03 22.2199 212.825 22.2249L206.205 22.2549L206.455 22.0049L206.425 27.5999L206.205 27.3749C207.295 27.3749 208.38 27.3749 209.475 27.4049L212.765 27.4599L219.445 27.5999Z" fill="#EBEBEB"/>
<path d="M226.83 34.6555L220.265 34.7955L216.935 34.8505C215.825 34.8505 214.705 34.8505 213.59 34.8805H213.365V34.6555L213.34 29.0605V28.8105H213.59L220.21 28.8405C222.415 28.8405 224.625 28.9005 226.83 28.9255H226.965V29.0605C226.965 30.0105 226.925 30.9555 226.9 31.8855L226.83 34.6555ZM226.83 34.6555L226.76 31.8305C226.76 30.8955 226.7 29.9755 226.695 29.0605L226.83 29.1955C224.625 29.1955 222.415 29.2755 220.21 29.2805L213.59 29.3105L213.84 29.0605L213.81 34.6555L213.59 34.4305C214.68 34.4305 215.77 34.4305 216.86 34.4605L220.15 34.5155L226.83 34.6555Z" fill="#EBEBEB"/>
<path d="M36.4099 27.6L29.8499 27.74L26.4999 27.795C25.3849 27.795 24.2649 27.795 23.1499 27.825H22.9499V27.6L22.9199 22V21.75H23.1699L29.7899 21.78C31.9949 21.78 34.2049 21.84 36.4099 21.865H36.5499V22C36.5499 22.95 36.5099 23.895 36.4849 24.825L36.4099 27.6ZM36.4099 27.6L36.3399 24.775C36.3149 23.84 36.2849 22.92 36.2749 22.005L36.4099 22.14C34.2049 22.14 31.9949 22.22 29.7899 22.225L23.1699 22.255L23.4199 22.005L23.3949 27.6L23.1699 27.375C24.2599 27.375 25.3499 27.375 26.4449 27.405L29.7349 27.46L36.4099 27.6Z" fill="#EBEBEB"/>
<path d="M139.05 132.265L132.5 132.4L129.17 132.46C128.055 132.46 126.94 132.46 125.82 132.485H125.6V132.265V126.67V126.415H125.85L132.47 126.445C134.68 126.445 136.885 126.5 139.095 126.525H139.23V126.66C139.23 127.605 139.185 128.55 139.165 129.485L139.05 132.265ZM139.05 132.265L138.975 129.435C138.975 128.505 138.92 127.585 138.91 126.67L139.05 126.805C136.84 126.805 134.635 126.885 132.425 126.885L125.805 126.915L126.055 126.67L126.03 132.265L125.805 132.04C126.9 132.04 127.985 132.04 129.08 132.065L132.37 132.125L139.05 132.265Z" fill="#EBEBEB"/>
<path d="M50.3292 38.5405C50.3292 38.5127 50.3182 38.486 50.2985 38.4663C50.2788 38.4466 50.2521 38.4355 50.2242 38.4355C50.1964 38.4355 50.1697 38.4466 50.15 38.4663C50.1303 38.486 50.1192 38.5127 50.1192 38.5405C49.7692 43.0755 49.8892 47.6505 49.9492 52.2005C50.0092 56.7505 49.8642 61.3155 50.0992 65.8555C50.0992 65.8887 50.1124 65.9205 50.1358 65.9439C50.1593 65.9674 50.1911 65.9805 50.2242 65.9805C50.2574 65.9805 50.2892 65.9674 50.3126 65.9439C50.3361 65.9205 50.3492 65.8887 50.3492 65.8555C50.5842 61.3155 50.4392 56.7455 50.4992 52.2005C50.5592 47.6555 50.6792 43.0755 50.3292 38.5405Z" fill="#C7C7C7"/>
<path d="M52.6192 69.5804C52.6192 72.3104 51.0642 73.2754 50.2242 73.2754C49.3842 73.2754 47.8242 72.3054 47.8242 69.5804C47.8242 66.8554 50.2242 62.4854 50.2242 62.4854C50.2992 62.6254 52.6192 66.8954 52.6192 69.5804Z" fill="#EBEBEB"/>
<path d="M58.2549 38.9999C58.2549 38.9681 58.2423 38.9375 58.2198 38.915C58.1973 38.8925 58.1668 38.8799 58.1349 38.8799C58.1031 38.8799 58.0726 38.8925 58.0501 38.915C58.0276 38.9375 58.0149 38.9681 58.0149 38.9999C57.6249 44.8249 57.8099 50.7299 57.8449 56.5649C57.8799 62.3999 57.8449 68.2799 57.9949 74.1349C58.0012 74.1681 58.0188 74.1981 58.0449 74.2197C58.0709 74.2413 58.1036 74.2531 58.1374 74.2531C58.1712 74.2531 58.204 74.2413 58.23 74.2197C58.256 74.1981 58.2737 74.1681 58.2799 74.1349C58.4049 68.2799 58.3999 62.4199 58.4299 56.5649C58.4599 50.7099 58.6499 44.8399 58.2549 38.9999Z" fill="#C7C7C7"/>
<path d="M60.5343 79.2307C60.5343 81.9657 58.9743 82.9307 58.1343 82.9307C57.2943 82.9307 55.7393 81.9607 55.7393 79.2307C55.7393 76.5007 58.1343 72.1357 58.1343 72.1357C58.2143 72.2807 60.5343 76.5507 60.5343 79.2307Z" fill="#DBDBDB"/>
<path d="M66.8243 33.2001C66.8187 33.1731 66.804 33.1488 66.7826 33.1314C66.7612 33.114 66.7344 33.1045 66.7068 33.1045C66.6792 33.1045 66.6525 33.114 66.6311 33.1314C66.6097 33.1488 66.5949 33.1731 66.5893 33.2001C66.4193 42.4601 66.2693 51.7251 66.6393 60.9801C66.6393 60.9987 66.6467 61.0165 66.6598 61.0296C66.673 61.0428 66.6908 61.0501 66.7093 61.0501C66.7279 61.0501 66.7457 61.0428 66.7588 61.0296C66.772 61.0165 66.7793 60.9987 66.7793 60.9801C67.1493 51.7251 66.9993 42.4601 66.8243 33.2001Z" fill="#C7C7C7"/>
<path d="M69.1045 63.9554C69.1045 66.6854 67.5494 67.6504 66.7094 67.6504C65.8694 67.6504 64.3145 66.6854 64.3145 63.9554C64.3145 61.2254 66.7094 56.8604 66.7094 56.8604C66.7844 57.0004 69.1045 61.2704 69.1045 63.9554Z" fill="#EBEBEB"/>
<path d="M75.4992 36.4556C75.4992 36.4384 75.4924 36.4219 75.4802 36.4097C75.468 36.3975 75.4515 36.3906 75.4342 36.3906C75.417 36.3906 75.4004 36.3975 75.3883 36.4097C75.3761 36.4219 75.3692 36.4384 75.3692 36.4556C75.0142 39.4906 75.1492 42.6306 75.1492 45.6806C75.1492 48.7306 75.1492 51.8356 75.1492 54.9106C75.1842 61.0556 75.1492 67.2106 75.2792 73.3606C75.2792 73.3978 75.294 73.4334 75.3202 73.4596C75.3465 73.4859 75.3821 73.5006 75.4192 73.5006C75.4563 73.5006 75.492 73.4859 75.5182 73.4596C75.5445 73.4334 75.5592 73.3978 75.5592 73.3606C75.7092 67.2106 75.6542 61.0556 75.6892 54.9106C75.6892 51.9106 75.6892 48.9106 75.6892 45.9406C75.7292 42.8006 75.8742 39.5756 75.4992 36.4556Z" fill="#C7C7C7"/>
<path d="M77.8448 76.0003C77.8448 78.7303 76.2848 79.6953 75.4448 79.6953C74.6048 79.6953 73.0498 78.7303 73.0498 76.0003C73.0498 73.2703 75.4448 68.9053 75.4448 68.9053C75.4998 69.0303 77.8448 73.3003 77.8448 76.0003Z" fill="#DBDBDB"/>
<path d="M83.6749 37.0002C83.6749 36.9763 83.6654 36.9534 83.6485 36.9365C83.6316 36.9196 83.6087 36.9102 83.5849 36.9102C83.561 36.9102 83.5381 36.9196 83.5212 36.9365C83.5044 36.9534 83.4949 36.9763 83.4949 37.0002C83.0999 42.4152 83.3399 47.9252 83.3499 53.3502C83.3599 58.7752 83.1399 64.2902 83.5199 69.7052C83.5199 69.7224 83.5267 69.7389 83.5389 69.7511C83.5511 69.7633 83.5676 69.7702 83.5849 69.7702C83.6021 69.7702 83.6186 69.7633 83.6308 69.7511C83.643 69.7389 83.6499 69.7224 83.6499 69.7052C84.0299 64.2902 83.8099 58.7802 83.8199 53.3502C83.8299 47.9202 84.0699 42.3952 83.6749 37.0002Z" fill="#C7C7C7"/>
<path d="M86 69.2454C86 71.9754 84.445 72.9404 83.605 72.9404C82.765 72.9404 81.21 71.9754 81.21 69.2454C81.21 66.5154 83.605 62.1504 83.605 62.1504C83.66 62.2904 86 66.5604 86 69.2454Z" fill="#EBEBEB"/>
<path d="M48.3454 31.725C48.3454 31.725 42.9004 32.935 42.9004 37.95C42.9004 42.965 50.0754 42.45 50.0754 42.45C50.0754 42.45 50.5104 46.7701 56.0454 48.33C61.5804 49.89 65.5004 45.56 65.5004 45.56C66.0353 46.1951 66.71 46.6975 67.4717 47.0281C68.2333 47.3586 69.0612 47.5082 69.8904 47.465C70.7232 47.4593 71.538 47.2225 72.2442 46.7811C72.9504 46.3398 73.5203 45.7111 73.8904 44.965C73.8904 44.965 77.0904 46.35 80.2054 45.05C81.0971 44.6849 81.9016 44.1353 82.566 43.4373C83.2303 42.7393 83.7396 41.9087 84.0604 41C84.0604 41 88.3854 41.5 89.1654 37.54C89.9454 33.58 85.1004 32.35 85.1004 32.35C85.1004 32.35 85.0004 25.88 80.5004 24.03C78.8674 23.3772 77.1064 23.1076 75.3528 23.2419C73.5993 23.3763 71.8999 23.911 70.3854 24.805C70.3854 24.805 64.9354 17.63 56.8054 19.27C48.6754 20.91 48.3454 31.725 48.3454 31.725Z" fill="#EBEBEB"/>
<path d="M74.6152 32.5749C74.6152 32.5199 74.5352 32.5349 74.5302 32.5749C74.4102 33.3849 74.0302 36.4599 72.8502 36.4949C71.7402 36.5299 70.8502 33.8599 70.6152 32.8999C70.6152 32.8893 70.6109 32.8791 70.6034 32.8716C70.5959 32.8641 70.5858 32.8599 70.5751 32.8599C70.5645 32.8599 70.5544 32.8641 70.5469 32.8716C70.5394 32.8791 70.5352 32.8893 70.5352 32.8999C70.5852 34.1549 71.3302 37.3999 73.0352 37.0849C74.5402 36.8599 74.7852 33.4999 74.6152 32.5749Z" fill="white"/>
<path d="M57.4501 32.5749C57.4501 32.5199 57.5351 32.5349 57.5401 32.5749C57.6601 33.3849 58.0401 36.4599 59.2151 36.4949C60.3301 36.5299 61.2151 33.8599 61.4551 32.8999C61.4551 32.8499 61.5351 32.8699 61.5351 32.8999C61.4851 34.1549 60.7401 37.3999 59.0351 37.0849C57.5251 36.8599 57.2851 33.4999 57.4501 32.5749Z" fill="white"/>
<path d="M63.8447 34.6855C64.1619 34.9637 64.513 35.2006 64.8897 35.3905C65.2399 35.5659 65.6234 35.6648 66.0147 35.6805C66.4025 35.6916 66.787 35.6074 67.1347 35.4355C67.5088 35.245 67.8471 34.9913 68.1347 34.6855C67.9913 35.1333 67.7057 35.5221 67.3213 35.7928C66.9369 36.0635 66.4746 36.2014 66.0047 36.1855C65.528 36.1712 65.0671 36.0106 64.6847 35.7255C64.3144 35.4627 64.0238 35.1028 63.8447 34.6855Z" fill="white"/>
<path d="M20.7256 185.67L46.7956 185.545L72.8656 185.505L125.001 185.42L177.136 185.5L203.206 185.545L229.276 185.67L203.206 185.79L177.136 185.835L125.001 185.92L72.8656 185.835L46.7956 185.79L20.7256 185.67Z" fill="#263238"/>
<path d="M137.265 221.955C171.785 221.955 199.77 219.587 199.77 216.665C199.77 213.743 171.785 211.375 137.265 211.375C102.744 211.375 74.7598 213.743 74.7598 216.665C74.7598 219.587 102.744 221.955 137.265 221.955Z" fill="#EBEBEB"/>
<path d="M225.185 185.815C228.515 187.19 229.92 182.815 229.82 179.63C229.72 176.445 228.675 174.075 227.685 173.895C225.955 173.585 220.855 184 225.185 185.815Z" fill="#FFC727"/>
<path d="M199.124 168.89C197.772 170.54 196.293 172.082 194.699 173.5C190.809 177.065 185.804 180.715 184.334 179.135C182.119 176.77 190.684 163.99 192.404 162.59C193.048 162.017 193.865 161.676 194.726 161.623C195.586 161.569 196.439 161.806 197.149 162.295C199.339 163.695 200.619 166.91 199.124 168.89Z" fill="#FFC727"/>
<path opacity="0.1" d="M191.919 175C192.892 174.591 193.823 174.089 194.699 173.5C190.809 177.065 185.804 180.715 184.334 179.135C182.119 176.77 190.684 163.99 192.404 162.59C193.048 162.017 193.865 161.676 194.726 161.623C195.586 161.569 196.439 161.806 197.149 162.295C193.557 164.46 190.713 167.672 188.999 171.5C188.534 172.61 187.329 175.235 189.999 175.5C190.584 175.59 191.399 175.195 191.919 175Z" fill="#030402"/>
<path d="M204.075 187.625C202.3 188.91 183.075 195.325 179.025 193.565C174.975 191.805 173.585 180.955 174.96 180.955C176.335 180.955 178.575 183.51 178.915 183.555C179.11 183.585 182.305 181.73 185.39 180.12C187.56 178.99 189.675 177.975 190.66 177.82C198.97 176.495 203.795 182.93 204.37 186.09C204.5 186.825 204.41 187.38 204.075 187.625Z" fill="#FFC727"/>
<path opacity="0.1" d="M204.075 187.625C202.3 188.91 183.075 195.325 179.025 193.565C174.975 191.805 173.585 180.955 174.96 180.955C176.335 180.955 178.575 183.51 178.915 183.555C179.11 183.585 182.305 181.73 185.39 180.12C183.808 181.281 182.472 182.745 181.46 184.425C179.04 188.875 185.435 190.96 188.625 191.01C191.685 191.07 194.625 190.125 197.48 189.09C199.835 188.23 202.136 187.228 204.37 186.09C204.5 186.825 204.41 187.38 204.075 187.625Z" fill="#030402"/>
<path d="M226.025 185.775C225.935 185.952 225.828 186.119 225.705 186.275C223.88 188.68 216.705 192.775 210.5 193.7C203.815 194.7 191.61 192.915 189.41 188.155C187.21 183.395 193.685 161.155 194.175 159.98L218.42 158.135L218.6 158.585C219.915 161.85 227.855 181.825 226.025 185.775Z" fill="#FFC727"/>
<path opacity="0.1" d="M225.705 186.29C223.88 188.695 216.705 192.79 210.5 193.715C203.815 194.715 191.61 192.93 189.41 188.17C187.21 183.41 193.685 161.17 194.175 159.995L218.42 158.15L218.6 158.6C212.23 161.125 205.875 164.365 200.98 169.235C196.085 174.105 192.7 182.735 198.29 188.42C203.135 193.36 211.46 192.48 217.38 190.42C220.308 189.377 223.102 187.991 225.705 186.29Z" fill="#030402"/>
<path d="M224.414 188.055C223.974 188.7 221.884 190.555 219.069 192.755C212.969 197.555 203.474 204.085 200.069 203.865C195.069 203.545 189.509 192.535 190.964 192.01C192.419 191.485 195.774 193.355 196.154 193.275C196.429 193.215 200.474 188.37 203.589 185.22C204.441 184.276 205.403 183.436 206.454 182.72C216.709 177.11 225.809 186 224.414 188.055Z" fill="#FFC727"/>
<path opacity="0.1" d="M219.069 192.756C212.969 197.556 203.474 204.086 200.069 203.866C195.069 203.546 189.509 192.536 190.964 192.011C192.419 191.486 195.774 193.356 196.154 193.276C196.429 193.216 200.474 188.371 203.589 185.221C201.739 187.516 199.844 190.306 199.449 193.196C198.769 198.196 204.949 198.741 208.399 198.036C212.379 197.221 215.789 195.106 219.069 192.756Z" fill="#030402"/>
<path d="M222.58 184.43C219.115 185.62 209.855 170.86 209.2 168.43C208.515 165.895 209.76 164.06 211.58 163.095C214.04 161.805 217.545 162.095 218.815 164.395C220.22 166.945 222.77 173.895 223.54 178.895C224 181.765 223.845 184 222.58 184.43Z" fill="#FFC727"/>
<path opacity="0.1" d="M222.58 184.431C219.115 185.621 209.855 170.861 209.2 168.431C208.515 165.896 209.76 164.061 211.58 163.096C210.715 164.701 212.15 168.021 212.72 169.171C213.681 170.963 214.798 172.666 216.06 174.261C217.121 175.787 218.338 177.199 219.69 178.476C220.19 178.936 221.48 180.156 222.165 180.191C223.015 180.231 223.39 179.641 223.54 178.896C224 181.766 223.845 184.001 222.58 184.431Z" fill="#030402"/>
<path d="M193.669 160.035C192.204 159.79 192.324 162.615 192.609 163.09C192.894 163.565 197.454 166.815 205.479 166.2C214.284 165.535 219.704 162.045 220.139 161.41C220.574 160.775 219.669 158.055 218.709 158.13C217.749 158.205 207.999 162.42 193.669 160.035Z" fill="#FFC727"/>
<path opacity="0.6" d="M193.669 160.035C192.204 159.79 192.324 162.615 192.609 163.09C192.894 163.565 197.454 166.815 205.479 166.2C214.284 165.535 219.704 162.045 220.139 161.41C220.574 160.775 219.669 158.055 218.709 158.13C217.749 158.205 207.999 162.42 193.669 160.035Z" fill="white"/>
<path d="M197.999 128.09L191.234 132.94C190.858 132.946 190.482 132.923 190.109 132.87C188.741 132.723 187.441 132.196 186.356 131.35C185.272 130.504 184.445 129.371 183.969 128.08C182.039 122.96 184.914 116.55 192.469 117.845C196.439 118.525 197.639 122.09 197.969 124.845C198.09 125.923 198.1 127.01 197.999 128.09Z" fill="#FFC727"/>
<path opacity="0.6" d="M191.71 130.665C191.71 130.665 188.515 130.815 187.36 127.755C186.205 124.695 187.925 120.855 192.44 121.63C196.395 122.31 195.755 127.76 195.755 127.76L191.71 130.665Z" fill="white"/>
<path d="M231.275 126.865C231.305 129.545 229.87 131.25 228.125 132.335C226.306 133.366 224.288 133.997 222.205 134.185L216.205 128.425C216.205 128.425 214.985 123.22 219.66 120.39C222.435 118.71 225.965 118.61 228.4 120.39C230.075 121.63 231.23 123.75 231.275 126.865Z" fill="#FFC727"/>
<path opacity="0.6" d="M218.529 128.5C218.529 128.5 217.799 125.385 220.599 123.69C223.399 121.995 227.484 122.99 227.544 127.565C227.599 131.565 222.119 131.945 222.119 131.945L218.529 128.5Z" fill="white"/>
<path opacity="0.1" d="M222.08 129.415C223.345 132.45 225.735 132.99 228.125 132.335C226.306 133.366 224.288 133.997 222.205 134.185L216.205 128.425C216.205 128.425 214.985 123.22 219.66 120.39C222.435 118.71 225.965 118.61 228.4 120.39C223.875 120.28 220.245 125 222.08 129.415Z" fill="#030402"/>
<path d="M225.069 150.54C224.88 151.34 224.624 152.123 224.304 152.88C223.936 153.739 223.478 154.557 222.939 155.32C221.089 157.92 218.339 159.82 215.199 161.15C210.871 162.879 206.21 163.615 201.559 163.305C195.964 162.935 191.334 161.015 188.254 158.155C186.698 156.742 185.507 154.973 184.784 153C183.649 149.835 184.284 146.865 185.394 143.94C186.244 141.695 187.369 139.475 188.184 137.22C188.719 135.722 189.363 134.265 190.109 132.86C190.518 132.1 190.967 131.362 191.454 130.65C192.623 128.913 194.083 127.391 195.769 126.15C196.459 125.645 197.19 125.199 197.954 124.815C200.167 123.715 202.59 123.103 205.059 123.02C206.12 122.962 207.183 122.962 208.244 123.02C214.924 123.405 219.114 126.08 221.349 128.99C223.674 132.05 226.999 142.645 225.069 150.54Z" fill="#FFC727"/>
<g opacity="0.4">
<path opacity="0.6" d="M192.204 151.14C192.269 152.559 191.934 153.968 191.236 155.206C190.539 156.444 189.507 157.46 188.259 158.14C186.692 156.734 185.49 154.968 184.759 152.995C183.629 149.825 184.259 146.86 185.374 143.935C187.188 144.114 188.877 144.941 190.132 146.264C191.386 147.588 192.122 149.318 192.204 151.14Z" fill="white"/>
<path opacity="0.6" d="M225.069 150.54C224.879 151.339 224.623 152.122 224.304 152.88C222.659 156.755 219.249 159.46 215.199 161.15C213.825 160.788 212.568 160.076 211.551 159.084C210.534 158.092 209.792 156.853 209.396 155.488C209.001 154.124 208.966 152.68 209.295 151.298C209.623 149.915 210.305 148.642 211.273 147.602C212.241 146.561 213.461 145.79 214.816 145.362C216.171 144.934 217.614 144.865 219.003 145.161C220.393 145.457 221.682 146.108 222.745 147.05C223.808 147.993 224.609 149.195 225.069 150.54Z" fill="white"/>
</g>
<path opacity="0.1" d="M222.939 155.32C221.089 157.92 218.339 159.82 215.199 161.15C210.871 162.879 206.21 163.615 201.559 163.305C195.964 162.935 191.334 161.015 188.254 158.155C186.698 156.742 185.507 154.974 184.784 153C183.649 149.835 184.284 146.865 185.394 143.94C186.244 141.695 187.369 139.475 188.184 137.22C188.719 135.722 189.363 134.265 190.109 132.86C188.741 132.713 187.441 132.186 186.356 131.34C185.272 130.494 184.445 129.361 183.969 128.07C182.039 122.95 184.914 116.54 192.469 117.835C196.439 118.515 197.639 122.08 197.969 124.835C200.182 123.736 202.605 123.124 205.074 123.04C206.135 122.982 207.198 122.982 208.259 123.04C196.139 125.635 191.479 142.45 190.934 145.96C190.35 149.526 191.19 153.178 193.274 156.13C197.889 162.5 207.829 162 214.499 159.755C217.521 158.713 220.367 157.218 222.939 155.32Z" fill="#030402"/>
<path opacity="0.6" d="M197.745 141.62C195.805 142.34 192.33 149.36 193.61 151.24C194.89 153.12 205.51 154.37 207.535 152.58C209.56 150.79 206.75 143.47 205.505 142.53C204.26 141.59 199.55 140.95 197.745 141.62Z" fill="white"/>
<path d="M194.27 140.86C193.46 140.755 192.66 141.495 192.525 142.475C192.39 143.455 192.97 144.38 193.78 144.475C194.59 144.57 195.395 143.845 195.525 142.865C195.655 141.885 195.085 140.97 194.27 140.86Z" fill="#263238"/>
<path d="M195.379 141.925C195.379 141.895 195.304 141.925 195.314 141.925C195.609 143.36 194.879 144.975 193.244 144.965C193.219 144.965 193.209 145 193.244 145.005C194.999 145.375 196.054 143.445 195.379 141.925Z" fill="#263238"/>
<path d="M210 142.4C210.82 142.455 211.455 143.345 211.39 144.33C211.325 145.315 210.575 146.11 209.755 146.055C208.935 146 208.3 145.115 208.37 144.125C208.44 143.135 209.175 142.345 210 142.4Z" fill="#263238"/>
<path d="M208.694 143.22C208.694 143.195 208.769 143.22 208.754 143.25C208.174 144.6 208.564 146.33 210.174 146.645V146.685C208.349 146.67 207.724 144.575 208.694 143.22Z" fill="#263238"/>
<path d="M195.815 137.31C195.75 136.865 195.22 136.81 194.86 136.835C194.388 136.879 193.929 137.01 193.505 137.22C193.404 137.268 193.32 137.348 193.267 137.446C193.214 137.545 193.193 137.658 193.208 137.769C193.223 137.88 193.273 137.984 193.35 138.065C193.428 138.146 193.529 138.2 193.64 138.22C194.086 138.257 194.535 138.213 194.965 138.09C195.34 138 195.885 137.795 195.815 137.31Z" fill="#263238"/>
<path d="M209.74 138.75C209.895 138.33 210.43 138.365 210.77 138.48C211.225 138.612 211.649 138.831 212.02 139.125C212.113 139.192 212.181 139.286 212.216 139.395C212.25 139.503 212.249 139.62 212.212 139.728C212.175 139.836 212.104 139.929 212.01 139.993C211.916 140.057 211.804 140.09 211.69 140.085C211.245 140.031 210.813 139.897 210.415 139.69C210.065 139.53 209.575 139.215 209.74 138.75Z" fill="#263238"/>
<path d="M199.999 145.07C199.104 144.95 196.999 143.07 197.389 142.17C197.779 141.27 202.489 141.91 203.049 142.67C203.609 143.43 200.499 145.135 199.999 145.07Z" fill="#263238"/>
<path d="M216.61 148.03C216.563 148.497 216.379 148.94 216.08 149.303C215.782 149.666 215.382 149.931 214.932 150.067C214.482 150.203 214.002 150.202 213.553 150.064C213.104 149.927 212.705 149.66 212.408 149.296C212.111 148.932 211.928 148.488 211.883 148.021C211.838 147.553 211.933 147.083 212.155 146.669C212.377 146.255 212.717 145.916 213.132 145.696C213.547 145.475 214.018 145.383 214.485 145.43C215.111 145.494 215.686 145.804 216.084 146.291C216.483 146.779 216.672 147.404 216.61 148.03Z" fill="#FF99BA"/>
<path d="M191.079 145.545C191.031 146.012 190.846 146.455 190.547 146.817C190.247 147.179 189.847 147.444 189.397 147.578C188.947 147.713 188.467 147.711 188.018 147.573C187.569 147.434 187.171 147.166 186.875 146.802C186.578 146.438 186.396 145.993 186.352 145.526C186.308 145.058 186.404 144.588 186.627 144.175C186.85 143.761 187.191 143.423 187.606 143.204C188.021 142.984 188.492 142.892 188.959 142.94C189.586 143.004 190.161 143.315 190.559 143.804C190.956 144.292 191.144 144.919 191.079 145.545Z" fill="#FF99BA"/>
<path d="M26.2798 78.79H21.2148V185.64H26.2798V78.79Z" fill="#EBEBEB"/>
<path d="M26.4101 76.1201C26.4101 76.6472 26.2538 77.1624 25.9609 77.6007C25.6681 78.0389 25.2519 78.3805 24.7649 78.5822C24.278 78.7839 23.7421 78.8367 23.2252 78.7339C22.7082 78.631 22.2333 78.3772 21.8606 78.0045C21.4879 77.6318 21.2341 77.157 21.1313 76.64C21.0285 76.123 21.0812 75.5872 21.2829 75.1002C21.4846 74.6133 21.8262 74.197 22.2645 73.9042C22.7027 73.6114 23.218 73.4551 23.7451 73.4551C24.4519 73.4551 25.1297 73.7358 25.6295 74.2356C26.1293 74.7354 26.4101 75.4133 26.4101 76.1201Z" fill="#EBEBEB"/>
<path d="M161.701 78.79H156.636V185.64H161.701V78.79Z" fill="#EBEBEB"/>
<path d="M161.835 76.1201C161.835 76.6472 161.679 77.1624 161.386 77.6007C161.093 78.0389 160.677 78.3805 160.19 78.5822C159.703 78.7839 159.167 78.8367 158.65 78.7339C158.133 78.631 157.658 78.3772 157.285 78.0045C156.913 77.6318 156.659 77.157 156.556 76.64C156.453 76.123 156.506 75.5872 156.708 75.1002C156.909 74.6133 157.251 74.197 157.689 73.9042C158.128 73.6114 158.643 73.4551 159.17 73.4551C159.876 73.4564 160.553 73.7376 161.053 74.2371C161.552 74.7366 161.834 75.4137 161.835 76.1201Z" fill="#EBEBEB"/>
<path d="M156.64 150.42H26.2803V166.24H156.64V150.42Z" fill="#EBEBEB"/>
<path d="M31.2553 150.426H26.2803V166.241H31.2553V150.426Z" fill="#DBDBDB"/>
<path d="M156.635 150.426H151.66V166.241H156.635V150.426Z" fill="#DBDBDB"/>
<path d="M88.7406 163.856H37.6406V152.811H88.7406V163.856ZM38.1406 163.356H88.2406V153.311H38.1406V163.356Z" fill="#DBDBDB"/>
<path d="M69.365 158.586H57V156.306H69.35L69.365 158.586ZM57.515 158.086H68.865V156.806H57.5L57.515 158.086Z" fill="#DBDBDB"/>
<path d="M145.27 163.856H94.1699V152.811H145.27V163.856ZM94.6699 163.356H144.77V153.311H94.6699V163.356Z" fill="#DBDBDB"/>
<path d="M125.895 158.586H113.545V156.306H125.895V158.586ZM114.045 158.086H125.395V156.806H114.045V158.086Z" fill="#DBDBDB"/>
<path d="M156.64 145.625H26.2803V150.425H156.64V145.625Z" fill="#DBDBDB"/>
<path d="M156.64 133.181H26.2803V145.626H156.64V133.181Z" fill="#FFC727"/>
<path opacity="0.6" d="M156.64 133.181H26.2803V145.626H156.64V133.181Z" fill="white"/>
<path d="M156.505 84.8301H26.2803V89.0951H156.505V84.8301Z" fill="#EBEBEB"/>
<path d="M30.0404 89.0996H28.3154V150.425H30.0404V89.0996Z" fill="#EBEBEB"/>
<path d="M38.3354 89.1006H36.6104V150.426H38.3354V89.1006Z" fill="#EBEBEB"/>
<path d="M46.6303 89.1006H44.9053V150.426H46.6303V89.1006Z" fill="#EBEBEB"/>
<path d="M54.9252 89.1006H53.2002V150.426H54.9252V89.1006Z" fill="#EBEBEB"/>
<path d="M63.2201 89.0996H61.4951V150.425H63.2201V89.0996Z" fill="#EBEBEB"/>
<path d="M71.515 89.0996H69.79V150.425H71.515V89.0996Z" fill="#EBEBEB"/>
<path d="M79.81 89.0996H78.085V150.425H79.81V89.0996Z" fill="#EBEBEB"/>
<path d="M88.1049 89.1006H86.3799V150.426H88.1049V89.1006Z" fill="#EBEBEB"/>
<path d="M96.4008 89.1006H94.6758V150.426H96.4008V89.1006Z" fill="#EBEBEB"/>
<path d="M104.696 89.1006H102.971V150.426H104.696V89.1006Z" fill="#EBEBEB"/>
<path d="M112.991 89.1006H111.266V150.426H112.991V89.1006Z" fill="#EBEBEB"/>
<path d="M121.29 89.0996H119.565V150.425H121.29V89.0996Z" fill="#EBEBEB"/>
<path d="M129.585 89.1006H127.86V150.426H129.585V89.1006Z" fill="#EBEBEB"/>
<path d="M137.88 89.1006H136.155V150.426H137.88V89.1006Z" fill="#EBEBEB"/>
<path d="M146.175 89.1006H144.45V150.426H146.175V89.1006Z" fill="#EBEBEB"/>
<path d="M154.47 89.1006H152.745V150.426H154.47V89.1006Z" fill="#EBEBEB"/>
<path d="M156.505 84.8301H26.2803V89.0951H156.505V84.8301Z" fill="#EBEBEB"/>
<path d="M26.3501 215.27C26.4955 216.979 27.1078 218.615 28.1201 220C29.7937 222.278 32.1545 223.959 34.8551 224.795C38.0751 225.705 46.9801 225.795 50.8851 224.735C54.7901 223.675 57.5401 220.875 57.2451 215.96C56.9501 211.045 52.2801 205.96 52.2801 205.96C49.1804 206.338 46.0491 206.382 42.9401 206.09C42.0885 206.008 41.2299 206.035 40.3851 206.17C36.6801 206.74 33.8851 209.1 32.7201 209.17C31.3201 209.25 29.2801 207.01 28.6701 206.94C28.0601 206.87 25.9401 210.045 26.3501 215.27Z" fill="#FFC727"/>
<path opacity="0.6" d="M26.3501 215.27C26.4955 216.979 27.1078 218.615 28.1201 220C29.7937 222.278 32.1545 223.959 34.8551 224.795C38.0751 225.705 46.9801 225.795 50.8851 224.735C54.7901 223.675 57.5401 220.875 57.2451 215.96C56.9501 211.045 52.2801 205.96 52.2801 205.96C49.1804 206.338 46.0491 206.382 42.9401 206.09C42.0885 206.008 41.2299 206.035 40.3851 206.17C36.6801 206.74 33.8851 209.1 32.7201 209.17C31.3201 209.25 29.2801 207.01 28.6701 206.94C28.0601 206.87 25.9401 210.045 26.3501 215.27Z" fill="white"/>
<path d="M29.9451 219.575C29.8501 219.515 31.5501 213.33 36.9851 210.075C37.0801 210.015 37.0801 210.151 36.9851 210.226C35.5501 211.461 31.6701 215.971 30.6601 219.196C37.4351 221.166 44.8151 216.126 46.6901 213.376C46.7351 213.316 46.8251 213.375 46.7901 213.45C42.0001 222.19 30.8751 220.76 29.9451 219.575Z" fill="#FFC727"/>
<path opacity="0.1" d="M28.1201 220C29.7937 222.278 32.1546 223.959 34.8551 224.795C38.0751 225.705 46.9801 225.795 50.8851 224.735C54.7901 223.675 57.5401 220.875 57.2451 215.96C56.9501 211.045 52.2801 205.96 52.2801 205.96C49.1804 206.338 46.0491 206.382 42.9401 206.09C42.0885 206.008 41.2299 206.035 40.3851 206.17C43.4751 207.435 46.5051 209.555 48.3851 212.335C52.0651 217.835 45.4901 220.96 41.0151 221.75C36.6396 222.534 32.1284 221.922 28.1201 220Z" fill="#030402"/>
<path d="M54.0906 200.396C54.5306 202.051 56.8306 204.396 57.0356 204.336L57.2706 204.286C58.9399 203.84 60.3944 202.811 61.3706 201.386C63.1356 198.886 62.3706 195.546 61.5856 195.341C60.8006 195.136 60.0856 196.551 58.7356 196.841C57.3856 197.131 56.6656 196.491 55.8456 195.951C55.7356 196.096 53.6656 198.786 54.0906 200.396Z" fill="#FFC727"/>
<path d="M40.3898 206.395C41.2251 207.822 42.45 208.982 43.9209 209.738C45.3918 210.495 47.0478 210.816 48.6948 210.665C53.3948 210.385 56.3248 207.635 57.2698 204.285C57.5399 203.321 57.6464 202.319 57.5848 201.32C57.49 199.409 56.8896 197.558 55.8448 195.955C54.9611 194.597 53.7258 193.504 52.2704 192.793C50.815 192.082 49.194 191.778 47.5798 191.915C47.0571 191.947 46.5374 192.017 46.0248 192.125C41.2098 193.16 38.9498 197.555 38.9998 201.5C39.0333 203.224 39.5122 204.91 40.3898 206.395Z" fill="#FFC727"/>
<path opacity="0.6" d="M40.3898 206.395C41.2251 207.822 42.45 208.982 43.9209 209.738C45.3918 210.495 47.0478 210.816 48.6948 210.665C53.3948 210.385 56.3248 207.635 57.2698 204.285C57.5399 203.321 57.6464 202.319 57.5848 201.32C57.49 199.409 56.8896 197.558 55.8448 195.955C54.9611 194.597 53.7258 193.504 52.2704 192.793C50.815 192.082 49.194 191.778 47.5798 191.915C47.0571 191.947 46.5374 192.017 46.0248 192.125C41.2098 193.16 38.9498 197.555 38.9998 201.5C39.0333 203.224 39.5122 204.91 40.3898 206.395Z" fill="white"/>
<path d="M52.1096 200.935C53.8996 200.59 54.6096 203.48 52.6846 203.85C50.7596 204.22 50.2596 201.285 52.1096 200.935Z" fill="#263238"/>
<path opacity="0.1" d="M40.3896 206.395C41.2249 207.822 42.4498 208.982 43.9207 209.739C45.3916 210.495 47.0476 210.816 48.6946 210.665C53.3946 210.385 56.3246 207.635 57.2696 204.285C58.9389 203.839 60.3934 202.81 61.3696 201.385C63.1346 198.885 62.3696 195.545 61.5846 195.34C60.7996 195.135 60.0847 196.55 58.7346 196.84C57.3846 197.13 56.6646 196.49 55.8447 195.95C54.9609 194.592 53.7256 193.5 52.2702 192.788C50.8148 192.077 49.1938 191.773 47.5797 191.91C47.0569 191.942 46.5372 192.012 46.0247 192.12C51.8696 193.735 56.8496 201.315 50.7596 205.76C49.5701 206.586 48.2159 207.144 46.7901 207.397C45.3643 207.65 43.9006 207.591 42.4996 207.225C41.7663 207.032 41.0581 206.753 40.3896 206.395Z" fill="#030402"/>
<path d="M157.155 180.81C162.495 181.63 172.86 203.185 167.29 205.81C162.79 207.935 148.075 196.735 148.515 189.265C148.81 184.315 153.41 180.235 157.155 180.81Z" fill="#AD6359"/>
<path d="M115.44 178.595C115.125 170.165 119.555 153.885 128.44 151.095C137.325 148.305 147.17 153.315 148.8 164.86C150.07 173.86 146.685 183.165 146.685 183.165C146.685 183.165 154.185 180.21 156.455 180.7C160.955 181.675 165.63 190.355 161.13 195.575C157.915 199.3 135.715 216.25 123.305 204.045C116.225 197.085 115.825 189.06 115.44 178.595Z" fill="#AD6359"/>
<g opacity="0.1">
<path d="M157.156 180.81C162.496 181.63 172.861 203.185 167.291 205.81C162.791 207.935 148.076 196.735 148.516 189.265C148.811 184.315 153.411 180.235 157.156 180.81Z" fill="black"/>
<path d="M115.44 178.595C115.125 170.165 119.555 153.885 128.44 151.095C137.326 148.305 147.17 153.315 148.8 164.86C150.07 173.86 146.685 183.165 146.685 183.165C146.685 183.165 154.185 180.21 156.455 180.7C160.955 181.675 165.631 190.355 161.131 195.575C157.916 199.3 135.715 216.25 123.305 204.045C116.225 197.085 115.825 189.06 115.44 178.595Z" fill="black"/>
</g>
<path d="M146.954 181.754C146.273 184.136 145.194 186.386 143.764 188.409C143.084 189.384 142.354 190.314 141.584 191.219C140.779 192.229 139.88 193.159 138.899 193.999C138.789 194.084 138.899 194.249 139.034 194.169C139.559 193.779 140.134 193.459 140.644 193.039C141.145 192.619 141.624 192.174 142.079 191.704C142.954 190.81 143.721 189.817 144.364 188.744C145.649 186.593 146.56 184.24 147.059 181.784C147.069 181.724 146.999 181.694 146.954 181.754Z" fill="#263238"/>
<path d="M158.25 195.39C157.4 197.019 156.284 198.496 154.95 199.76C154.325 200.345 153.68 200.885 153.01 201.4C152.313 201.979 151.555 202.482 150.75 202.9C150.66 202.94 150.715 203.1 150.805 203.065C151.22 202.89 151.655 202.78 152.065 202.565C152.471 202.36 152.865 202.131 153.245 201.88C153.992 201.389 154.673 200.806 155.275 200.145C156.542 198.749 157.568 197.153 158.31 195.42C158.33 195.395 158.27 195.35 158.25 195.39Z" fill="#263238"/>
<path d="M71.6246 183.35C74.4346 184.025 90.2796 187.375 100.18 184.545C107.748 182.47 114.225 177.558 118.265 170.83C124.765 160.195 118.63 152.18 112.065 155.67C104.27 159.82 97.0646 164.995 92.0346 166.67C85.8846 168.71 75.2146 169.27 73.5346 169.585C69.9996 170.25 68.1246 182.5 71.6246 183.35Z" fill="#AD6359"/>
<path d="M74.54 169.614C73.585 168.249 69.78 165.924 69.21 164.789C68.64 163.654 67.865 160.474 66.18 161.314C64.495 162.154 66.215 166.709 66.62 167.749C67.025 168.789 56.325 165.224 55.435 167.749C54.545 170.274 62.09 171.974 61.935 172.489C61.78 173.004 53.725 172.049 53.205 174.289C52.685 176.529 61.4 176.744 61.385 176.919C61.37 177.094 55.18 174.879 54.34 176.744C53.5 178.609 62.275 180.274 62.245 180.669C62.215 181.064 57.075 181.769 57.45 183.774C57.825 185.779 65.565 183.724 66.275 183.644C66.985 183.564 72.48 183.934 73.335 183.079C74.19 182.224 75.22 170.589 74.54 169.614Z" fill="#AD6359"/>
<g opacity="0.1">
<path d="M71.6246 183.35C74.4346 184.025 90.2796 187.375 100.18 184.545C107.748 182.47 114.225 177.558 118.265 170.83C124.765 160.195 118.63 152.18 112.065 155.67C104.27 159.82 97.0646 164.995 92.0346 166.67C85.8846 168.71 75.2146 169.27 73.5346 169.585C69.9996 170.25 68.1246 182.5 71.6246 183.35Z" fill="black"/>
<path d="M74.54 169.614C73.585 168.249 69.78 165.924 69.21 164.789C68.64 163.654 67.865 160.474 66.18 161.314C64.495 162.154 66.215 166.709 66.62 167.749C67.025 168.789 56.325 165.224 55.435 167.749C54.545 170.274 62.09 171.974 61.935 172.489C61.78 173.004 53.725 172.049 53.205 174.289C52.685 176.529 61.4 176.744 61.385 176.919C61.37 177.094 55.18 174.879 54.34 176.744C53.5 178.609 62.275 180.274 62.245 180.669C62.215 181.064 57.075 181.769 57.45 183.774C57.825 185.779 65.565 183.724 66.275 183.644C66.985 183.564 72.48 183.934 73.335 183.079C74.19 182.224 75.22 170.589 74.54 169.614Z" fill="black"/>
</g>
<path d="M67.715 170.05C66.9384 171.69 66.3722 173.422 66.03 175.205C65.7485 177.008 65.7165 178.842 65.935 180.655C65.935 180.795 66.165 180.795 66.15 180.655C66.0441 178.862 66.1464 177.064 66.455 175.295C66.7089 173.517 67.186 171.778 67.875 170.12C67.915 170.03 67.76 169.96 67.715 170.05Z" fill="#263238"/>
<path d="M60.4002 176.765C59.8452 176.675 59.2952 176.575 58.7452 176.465C58.1952 176.355 57.7452 176.29 57.2002 176.235C56.5902 176.165 56.2002 176.145 55.5902 176.025C55.4152 175.985 55.3802 176.025 55.5452 176.1C56.5574 176.411 57.5876 176.66 58.6302 176.845C59.1702 176.915 59.7052 176.975 60.2452 177.025C60.8226 177.095 61.4035 177.134 61.9852 177.14C62.0552 177.14 62.0802 177.025 61.9852 177.01C61.5002 176.9 60.9302 176.855 60.4002 176.765Z" fill="#263238"/>
<path d="M137.455 194.19C136.905 193.835 140.115 182.985 140.375 171.775C140.69 158.175 137.95 149.915 138.43 149.165C139.43 147.635 141.535 149.035 141.875 149.01C142.215 148.985 155.375 144.845 164.165 148.665C172.955 152.485 178.665 164.75 176.885 174.72C175.105 184.69 167.22 201.72 139.635 193.995C139.47 193.95 138.675 195 137.455 194.19Z" fill="#FFC727"/>
<g opacity="0.6">
<path d="M137.455 194.19C136.905 193.835 140.115 182.985 140.375 171.775C140.69 158.175 137.95 149.915 138.43 149.165C139.43 147.635 141.535 149.035 141.875 149.01C142.215 148.985 155.375 144.845 164.165 148.665C172.955 152.485 178.665 164.75 176.885 174.72C175.105 184.69 167.22 201.72 139.635 193.995C139.47 193.95 138.675 195 137.455 194.19Z" fill="white"/>
</g>
<path d="M141.94 151C142.615 152.649 143.173 154.343 143.61 156.07C144.033 157.803 144.367 159.557 144.61 161.325C145.121 164.866 145.289 168.447 145.11 172.02C144.949 175.595 144.447 179.146 143.61 182.625C143.211 184.364 142.724 186.081 142.15 187.77C141.9 188.625 141.525 189.44 141.205 190.27C140.885 191.1 140.54 191.92 140.205 192.735C140.45 191.88 140.705 191.025 140.965 190.18C141.225 189.335 141.515 188.5 141.69 187.625C142.1 185.905 142.575 184.205 142.86 182.46L143.1 181.16C143.18 180.725 143.285 180.3 143.33 179.86L143.68 177.24C143.82 176.37 143.855 175.485 143.94 174.61C144.025 173.735 144.105 172.855 144.11 171.975L144.2 169.335L144.16 166.695C144.105 164.935 143.995 163.195 143.815 161.42C143.499 157.898 142.872 154.411 141.94 151Z" fill="#FFC727"/>
<path d="M186.325 190.345C191.61 191.47 200.725 213.58 195.015 215.895C190.42 217.76 176.35 205.735 177.215 198.305C177.795 193.37 182.62 189.555 186.325 190.345Z" fill="#AD6359"/>
<path d="M144.8 185.75C144.975 177.32 150.3 161.315 159.34 159.035C168.38 156.755 177.915 162.32 178.885 173.94C179.635 183 175.725 192.095 175.725 192.095C175.725 192.095 183.38 189.595 185.625 190.195C190.07 191.425 194.23 200.36 189.44 205.31C186.02 208.845 162.885 224.5 151.195 211.605C144.53 204.255 144.59 196.22 144.8 185.75Z" fill="#AD6359"/>
<path d="M176.09 190.71C175.27 193.047 174.065 195.23 172.525 197.17C171.785 198.105 171.025 198.99 170.185 199.85C169.324 200.811 168.373 201.689 167.345 202.47C167.324 202.488 167.31 202.513 167.307 202.54C167.303 202.567 167.31 202.595 167.325 202.617C167.341 202.64 167.365 202.656 167.391 202.662C167.418 202.668 167.446 202.664 167.47 202.65C168.02 202.29 168.61 202.005 169.145 201.615C169.666 201.224 170.167 200.807 170.645 200.365C171.57 199.523 172.393 198.575 173.095 197.54C174.503 195.465 175.548 193.165 176.185 190.74C176.205 190.685 176.11 190.65 176.09 190.71Z" fill="#263238"/>
<path d="M186.585 204.965C185.644 206.544 184.445 207.955 183.04 209.14C182.385 209.69 181.705 210.195 181.01 210.67C180.278 211.206 179.492 211.663 178.665 212.035C178.575 212.07 178.62 212.235 178.715 212.2C179.14 212.05 179.575 211.97 180 211.79C180.417 211.609 180.822 211.403 181.215 211.175C181.988 210.726 182.704 210.183 183.345 209.56C184.685 208.235 185.8 206.7 186.645 205.015C186.665 205 186.61 204.925 186.585 204.965Z" fill="#263238"/>
<path d="M139.335 149.94C145.43 165.625 139.135 192.22 137.44 193.26C137.44 193.26 108.975 194.945 96.1 166.165C95.41 164.62 115.955 152.37 121.04 149.775C125.8 147.35 133.995 148.93 138.09 149.42C138.785 149.5 139.23 149.66 139.335 149.94Z" fill="#AD6359"/>
<g opacity="0.1">
<path d="M121.136 170.395C121.013 170.325 120.877 170.28 120.737 170.263C120.596 170.246 120.454 170.256 120.318 170.294C120.181 170.333 120.054 170.397 119.943 170.485C119.832 170.573 119.739 170.682 119.671 170.805C119.498 171.076 119.436 171.403 119.498 171.718C119.559 172.034 119.739 172.314 120.001 172.5C120.192 172.617 120.423 172.653 120.641 172.6C120.859 172.548 121.048 172.411 121.166 172.22C121.272 172.16 121.368 172.085 121.451 171.995C121.542 171.872 121.606 171.731 121.64 171.581C121.673 171.431 121.675 171.276 121.646 171.126C121.616 170.975 121.555 170.833 121.467 170.707C121.38 170.581 121.267 170.475 121.136 170.395Z" fill="black"/>
<path d="M109.03 178.305C108.907 178.235 108.772 178.19 108.631 178.173C108.491 178.156 108.349 178.166 108.212 178.205C108.076 178.243 107.949 178.308 107.838 178.395C107.727 178.483 107.634 178.592 107.565 178.715C107.392 178.987 107.33 179.314 107.393 179.63C107.455 179.946 107.637 180.225 107.9 180.41C107.995 180.47 108.101 180.509 108.212 180.527C108.322 180.545 108.435 180.541 108.544 180.515C108.653 180.489 108.755 180.442 108.846 180.375C108.936 180.309 109.012 180.226 109.07 180.13C109.175 180.07 109.269 179.994 109.35 179.905C109.442 179.782 109.507 179.641 109.54 179.491C109.574 179.34 109.576 179.185 109.545 179.034C109.515 178.884 109.454 178.741 109.365 178.615C109.276 178.49 109.162 178.384 109.03 178.305Z" fill="black"/>
<path d="M125.601 188.075C125.531 188.075 125.446 188.145 125.491 188.225C125.584 188.361 125.688 188.49 125.801 188.61C125.861 188.685 126.021 188.91 125.941 189.02C125.861 189.13 125.611 189.02 125.521 188.97C125.108 188.64 124.826 188.174 124.726 187.655C124.719 187.636 124.705 187.619 124.688 187.608C124.67 187.597 124.649 187.593 124.628 187.596C124.607 187.599 124.588 187.609 124.574 187.624C124.56 187.64 124.552 187.66 124.551 187.68C124.611 188.36 125.021 189.905 126.001 189.68C126.175 189.629 126.322 189.514 126.415 189.358C126.508 189.203 126.538 189.018 126.501 188.84C126.451 188.634 126.338 188.448 126.176 188.311C126.014 188.173 125.813 188.091 125.601 188.075Z" fill="black"/>
</g>
<path d="M131.5 212.024C132.4 209.274 139.675 194.024 137.65 183.909C135.495 173.164 131.9 164.649 128.22 161.969C118.145 154.624 109.72 164.469 111.275 171.754C113.21 180.899 117.045 184.544 118.195 189.714C118.325 190.314 116.73 203.479 117.93 209.014C118.675 212.549 130.355 215.444 131.5 212.024Z" fill="#AD6359"/>
<path d="M117.835 206.855C116.47 207.26 114.485 209.195 113.335 209.405C112.185 209.615 108.88 210.645 109.685 211.725C110.49 212.805 115.04 212.305 116.075 212.185C117.11 212.065 113.405 217.92 115.89 218.72C118.375 219.52 120.19 215.3 120.695 215.46C121.2 215.62 120.13 220.21 122.345 220.765C124.56 221.32 124.91 216.265 125.085 216.265C125.26 216.265 122.955 219.665 124.795 220.365C126.635 221.065 128.425 216.12 128.795 216.18C129.165 216.24 129.795 219.325 131.795 219.33C133.795 219.335 131.875 214.58 131.795 214.155C131.715 213.73 132.185 210.56 131.345 209.965C130.505 209.37 118.81 206.565 117.835 206.855Z" fill="#AD6359"/>
<path d="M117.77 195.575C117.465 193.603 117.557 191.59 118.04 189.655C118.15 189.155 118.305 188.695 118.45 188.22C118.615 187.749 118.803 187.286 119.015 186.835C119.431 185.93 119.956 185.08 120.58 184.305C120.127 185.174 119.725 186.069 119.375 186.985C119.028 187.892 118.744 188.823 118.525 189.77C118.295 190.717 118.12 191.677 118 192.645C117.873 193.617 117.796 194.595 117.77 195.575Z" fill="#263238"/>
<path d="M118.17 189.715C117.485 188.53 116.885 187.31 116.32 186.08C115.755 184.85 115.22 183.58 114.705 182.35C114.19 181.12 113.705 179.85 113.255 178.555C112.805 177.26 112.365 176 111.98 174.685C112.729 175.827 113.398 177.02 113.98 178.255C114.58 179.475 115.12 180.72 115.635 181.975C116.15 183.23 116.635 184.5 117.045 185.79C117.488 187.077 117.864 188.388 118.17 189.715Z" fill="#263238"/>
<path d="M111.55 176.705C112.107 177.063 112.611 177.495 113.05 177.99C113.504 178.474 113.888 179.019 114.19 179.61C113.072 178.885 112.16 177.885 111.54 176.705H111.55Z" fill="#263238"/>
<path d="M132.92 168.66C134.242 171.811 135.392 175.03 136.365 178.305C136.862 179.949 137.272 181.618 137.595 183.305C137.67 183.735 137.725 184.165 137.79 184.595C137.855 185.025 137.875 185.48 137.875 185.915C137.875 186.35 137.875 186.79 137.875 187.22C137.875 187.65 137.845 188.08 137.815 188.51C137.561 191.93 137.06 195.328 136.315 198.675C135.935 200.345 135.495 202 134.97 203.635L134.55 204.845L134.08 206.045C133.91 206.44 133.73 206.825 133.555 207.215C133.38 207.605 133.14 207.965 132.94 208.34C133.603 206.776 134.125 205.157 134.5 203.5C134.91 201.85 135.24 200.19 135.55 198.5C136.147 195.166 136.571 191.803 136.82 188.425C136.855 188.005 136.88 187.585 136.89 187.165C136.9 186.745 136.915 186.33 136.89 185.915C136.865 185.5 136.845 185.095 136.825 184.685L136.655 183.445C136.4 181.785 136.005 180.135 135.605 178.485C134.78 175.215 133.865 171.935 132.92 168.66Z" fill="#263238"/>
<path d="M134.24 169.785C134.528 170.474 134.713 171.202 134.79 171.945C134.899 172.686 134.886 173.439 134.75 174.175C134.531 173.468 134.379 172.741 134.295 172.005C134.196 171.269 134.178 170.525 134.24 169.785Z" fill="#263238"/>
<path d="M129.32 208.6C128.053 207.851 126.69 207.276 125.27 206.89C123.804 206.553 122.297 206.424 120.795 206.505C120.68 206.505 120.655 206.695 120.77 206.69C122.247 206.698 123.718 206.885 125.15 207.245C126.577 207.56 127.956 208.065 129.25 208.745C129.32 208.765 129.39 208.64 129.32 208.6Z" fill="#263238"/>
<path d="M120.799 124.4C121.486 125.017 122.335 125.425 123.246 125.576C124.156 125.728 125.091 125.616 125.941 125.255C126.791 124.894 127.52 124.298 128.043 123.538C128.566 122.777 128.861 121.883 128.894 120.96C130.489 122.14 132.594 122.525 134.334 121.235C136.074 119.945 136.409 117.57 135.399 115.665C135.399 115.665 135.369 115.665 135.374 115.665C136.104 117.495 135.814 119.715 134.134 120.925C132.699 121.96 131.134 121.785 129.769 121.05C130.494 121.176 131.237 121.153 131.953 120.981C132.668 120.809 133.341 120.492 133.929 120.05C134.565 119.536 135.036 118.846 135.282 118.066C135.528 117.286 135.539 116.451 135.314 115.665C137.114 115.14 138.859 113.96 139.519 112.135C139.801 111.378 139.857 110.555 139.679 109.766C139.502 108.978 139.099 108.258 138.519 107.695C139.328 107.292 140.001 106.663 140.457 105.884C140.914 105.105 141.133 104.209 141.088 103.308C141.044 102.406 140.737 101.536 140.206 100.806C139.676 100.076 138.943 99.5158 138.099 99.195C138.653 98.8485 139.111 98.3683 139.431 97.7984C139.751 97.2286 139.922 96.5875 139.929 95.9341C139.936 95.2807 139.778 94.6361 139.471 94.0596C139.163 93.4831 138.716 92.9931 138.169 92.635C138.537 92.2917 138.799 91.8503 138.924 91.363C139.049 90.8757 139.032 90.3628 138.874 89.885C138.534 88.755 137.569 87.985 136.554 87.445C136.695 86.9386 136.706 86.4052 136.587 85.8934C136.468 85.3816 136.223 84.9077 135.874 84.515C135.408 84.0264 134.784 83.7194 134.113 83.6489C133.441 83.5783 132.767 83.7489 132.209 84.13C131.384 82.45 130.249 80.735 128.454 80.01C126.979 79.415 125.139 79.575 124.014 80.755C123.573 80.0908 122.996 79.5279 122.321 79.1034C121.646 78.6788 120.889 78.4024 120.099 78.2923C119.309 78.1822 118.505 78.2409 117.74 78.4646C116.975 78.6883 116.265 79.0719 115.659 79.59C115.121 79.1519 114.477 78.8628 113.792 78.7514C113.106 78.6399 112.404 78.7101 111.754 78.955C110.848 79.2534 110.027 79.7682 109.364 80.455C108.853 80.1038 108.244 79.9201 107.624 79.9291C107.003 79.938 106.401 80.1392 105.899 80.505C105.443 80.8634 105.073 81.3182 104.813 81.8369C104.554 82.3556 104.413 82.9252 104.399 83.505C104.196 83.7746 103.934 83.9951 103.634 84.15C102.883 84.54 102.239 85.1088 101.76 85.8064C101.28 86.504 100.979 87.3088 100.884 88.15C100.393 88.2438 99.9284 88.4416 99.5203 88.7301C99.1123 89.0187 98.7708 89.3912 98.5188 89.8228C98.2668 90.2543 98.1101 90.7348 98.0593 91.232C98.0085 91.7291 98.0648 92.2314 98.2243 92.705C97.3123 93.2025 96.6327 94.039 96.3324 95.0335C96.0321 96.028 96.1351 97.1008 96.6193 98.02C95.925 98.4694 95.3359 99.0636 94.8924 99.7617C94.4488 100.46 94.1612 101.245 94.0493 102.065C93.8843 103.34 94.2493 104.83 95.4093 105.47C94.6143 106.1 94.7193 107.355 95.2843 108.155C95.507 108.455 95.7619 108.73 96.0443 108.975C96.3693 109.27 96.8693 109.555 97.0743 109.975C97.2793 110.395 97.1643 110.91 97.1843 111.35C97.2017 111.669 97.252 111.986 97.3343 112.295C97.6629 113.439 98.3714 114.436 99.343 115.124C100.315 115.811 101.491 116.146 102.679 116.075C102.774 117.78 104.234 118.945 105.754 119.515C106.251 119.69 106.764 119.819 107.284 119.9C107.756 119.947 108.201 120.139 108.559 120.45C108.779 120.665 108.954 120.95 109.179 121.145C109.999 121.9 110.999 122 111.999 121.955C112.409 126.5 117.919 127.435 120.799 124.4ZM105.724 81.185C106.181 80.7254 106.77 80.4193 107.409 80.3091C108.047 80.1989 108.705 80.2901 109.289 80.57L109.189 80.695C109.189 80.695 108.764 80.63 108.554 80.625C108.168 80.6124 107.782 80.6579 107.409 80.76C106.845 80.9042 106.32 81.1713 105.872 81.5421C105.423 81.9129 105.062 82.3783 104.814 82.905L104.749 83.02C104.895 82.3288 105.233 81.6929 105.724 81.185ZM135.614 85.53C135.257 85.0245 134.751 84.6422 134.167 84.4354C133.584 84.2286 132.95 84.2075 132.354 84.375L132.309 84.285C133.484 83.75 134.704 83.585 135.709 84.69C136.017 85.0334 136.228 85.4521 136.321 85.9035C136.414 86.3549 136.386 86.8229 136.239 87.26C136.197 86.6361 135.981 86.0366 135.614 85.53ZM112.189 121.95H112.234C112.73 123.276 113.722 124.356 115.001 124.962C116.28 125.568 117.745 125.651 119.084 125.195C116.194 126.405 112.999 125.785 112.189 121.95Z" fill="#263238"/>
<path d="M126.71 146.12C122.93 157.07 113.34 162.12 107.735 163.87C99.0546 166.595 74.7346 169.73 67.7746 154.43C66.1596 150.885 65.3396 145.59 65.1546 139.875C64.7946 128.93 66.7646 116.44 69.9396 111.7C76.6796 101.645 95.1896 95.3804 111.265 101.92C124.205 107.19 130.5 135.16 126.71 146.12Z" fill="#AD6359"/>
<path d="M98.8251 129.124C98.133 128.96 97.4503 128.758 96.7801 128.519C96.0001 128.279 95.3501 128.169 94.8101 127.519C94.6789 127.316 94.6186 127.075 94.6385 126.833C94.6584 126.592 94.7574 126.364 94.9201 126.184C95.6601 125.454 96.6901 125.509 97.6451 125.759C98.6141 125.981 99.4662 126.554 100.035 127.369C100.645 128.194 99.7651 129.309 98.8251 129.124Z" fill="#263238"/>
<path d="M76.45 129.065C77.1427 128.912 77.827 128.723 78.5 128.5C79.28 128.275 79.92 128.17 80.465 127.5C80.5981 127.3 80.6614 127.061 80.6451 126.822C80.6289 126.582 80.5339 126.355 80.375 126.175C79.65 125.44 78.625 125.485 77.675 125.72C76.7129 125.929 75.8619 126.487 75.285 127.285C74.655 128.12 75.5 129.24 76.45 129.065Z" fill="#263238"/>
<path d="M91.6202 146.189C91.7275 146.48 91.8144 146.777 91.8801 147.079C92.1602 148.279 92.3402 150.389 90.5252 151.159C89.8321 151.435 89.0675 151.473 88.3502 151.269C86.3802 150.799 84.5352 148.734 84.5352 148.734C88.7602 149.424 91.6202 146.189 91.6202 146.189Z" fill="#263238"/>
<path d="M91.8796 147.08C92.1596 148.28 92.3396 150.39 90.5246 151.16C89.8315 151.435 89.0669 151.474 88.3496 151.27C88.4999 150.212 88.9812 149.228 89.7246 148.46C90.3185 147.83 91.0587 147.356 91.8796 147.08Z" fill="#FF99BA"/>
<path d="M81.7944 131.65C81.4044 136.15 81.6944 134.55 81.1094 139.04C80.1094 139.16 75.6094 139.41 75.9544 139.795C77.1994 141.18 80.8744 143.52 80.8594 143.555C80.3894 144.79 78.3944 146.17 78.4994 146.265C84.2994 151.685 89.7394 148.325 91.5544 146.415C91.9194 146.03 91.7644 146.045 91.5544 146.215C89.7044 147.605 84.1844 149.83 80.0894 146.12C80.8555 145.387 81.4291 144.477 81.7594 143.47C81.7994 143.345 78.9094 141.355 77.7594 140.255C79.1244 140.125 80.8044 140.085 81.8194 140C82.0544 140 82.6194 136.435 82.2094 131.635C82.2074 131.58 82.1836 131.528 82.1433 131.49C82.103 131.453 82.0494 131.433 81.9944 131.435C81.9393 131.437 81.8873 131.46 81.8498 131.501C81.8123 131.541 81.7924 131.595 81.7944 131.65Z" fill="#263238"/>
<path d="M96.1946 132.665C99.8696 132.56 99.8046 139.925 96.3996 140.02C92.9946 140.115 93.1096 132.75 96.1946 132.665Z" fill="#263238"/>
<path d="M97.3651 132.944C97.9551 133.239 98.5651 133.814 99.2351 133.809C100.01 133.809 100.525 133.084 100.96 132.394C101.005 132.324 101.065 132.394 101.075 132.454C101.22 133.664 100.885 134.954 99.6051 135.269C98.4401 135.559 97.4801 134.579 97.0501 133.394C96.9701 133.174 97.1301 132.819 97.3651 132.944Z" fill="#263238"/>
<path d="M78.9399 132.794C75.7349 132.549 75.4399 139.639 78.3949 139.869C81.3499 140.099 81.6199 132.999 78.9399 132.794Z" fill="#263238"/>
<path d="M78.0451 132.944C77.4551 133.239 76.8501 133.814 76.1751 133.809C75.4001 133.809 74.8851 133.084 74.4501 132.394C74.4051 132.324 74.3451 132.394 74.3351 132.454C74.1901 133.664 74.5251 134.954 75.8051 135.269C76.9701 135.559 77.9301 134.579 78.3601 133.394C78.4401 133.174 78.2801 132.819 78.0451 132.944Z" fill="#263238"/>
<path d="M94.8452 165.5C92.0902 165.275 89.3452 165.63 86.5952 165.305C83.9323 164.98 81.3143 164.358 78.7902 163.45C76.0787 162.558 73.5414 161.205 71.2902 159.45C71.1452 159.33 71.1752 159.42 71.2902 159.555C73.0961 161.355 75.2226 162.801 77.5602 163.82C79.822 164.88 82.207 165.654 84.6602 166.125C87.1767 166.591 89.7394 166.759 92.2952 166.625C95.2052 166.495 98.6702 166.195 100.565 168.92C100.615 168.99 100.73 168.92 100.685 168.85C99.5752 166.705 97.1702 165.695 94.8452 165.5Z" fill="#263238"/>
<path d="M109.39 166.129C109.696 165.122 110.222 164.194 110.93 163.414C111.649 162.648 112.449 161.96 113.315 161.364C115.01 160.154 116.735 159.074 118.355 157.829C120.027 156.711 121.493 155.312 122.69 153.694C123.821 151.987 124.859 150.219 125.8 148.399C125.217 150.401 124.394 152.325 123.35 154.129C122.796 155.041 122.133 155.88 121.375 156.629C120.61 157.347 119.8 158.015 118.95 158.629C117.272 159.839 115.535 160.964 113.745 161.999C112.863 162.51 112.026 163.096 111.245 163.749C110.487 164.423 109.858 165.23 109.39 166.129Z" fill="#263238"/>
<path d="M66.2898 125.225C67.6562 125.19 68.9594 124.642 69.9398 123.69C71.9748 121.735 72.1398 119.89 72.1398 119.89C74.3648 118.345 76.0548 115.49 75.5648 112.845C76.8553 113.103 78.1908 113.023 79.4413 112.612C80.6917 112.201 81.8143 111.474 82.6998 110.5C84.5198 118 94.3048 121.1 100.85 117C101.125 120.055 102.05 123.155 104.3 125.32C106.462 127.42 109.184 128.852 112.14 129.445C112.137 129.46 112.137 129.475 112.14 129.49C110.605 135.19 116.4 140.035 121.79 138.935C122.298 138.882 122.8 138.783 123.29 138.64C125.9 137.85 128.45 136.56 129.505 133.925C130.153 132.248 130.176 130.393 129.571 128.7C128.967 127.007 127.774 125.587 126.21 124.7C127.292 123.632 127.98 122.229 128.162 120.72C128.343 119.21 128.008 117.684 127.21 116.39C126.16 114.715 123.64 113.92 123.39 111.925C123.162 109.695 122.215 107.6 120.69 105.957C119.165 104.314 117.147 103.213 114.94 102.82C113.733 102.683 112.593 102.196 111.66 101.42C111.057 100.88 110.421 100.379 109.755 99.9198C107.13 98.2119 104.018 97.4127 100.895 97.6448C99.0648 97.7848 97.2448 98.6999 95.4298 98.1899C93.8548 97.7499 88.8948 98.1099 87.2798 98.4699C80.2398 100.035 77.3448 103.26 77.3448 103.26C77.3448 103.26 73.6548 104.035 70.5548 108.445C67.5898 112.655 67.5548 114.945 67.5548 114.945C67.1547 116.09 66.6821 117.209 66.1398 118.295C64.3148 121.11 66.0948 125.23 66.2898 125.225ZM112.22 129.775C113.12 134 114.48 135.94 116.17 137.275C113.535 135.76 111.715 133.06 112.22 129.775ZM83.3498 110.66C84.2779 112.508 85.6244 114.115 87.2823 115.352C88.9401 116.588 90.8635 117.422 92.8998 117.785C88.6548 117.395 84.9648 115.22 83.3498 110.66Z" fill="#263238"/>
<path d="M112.875 138.735C112.875 138.735 117.075 129.395 122.325 128.765C127.875 128.095 129.825 138.115 126.325 142.615C122.245 147.89 115.235 146.615 115.235 146.615L112.875 138.735Z" fill="#AD6359"/>
<path d="M121.11 134.825C121.849 134.036 122.68 133.34 123.585 132.75C123.69 132.685 123.585 132.505 123.475 132.56C119.625 134.5 116.305 139 117.25 143.5C117.257 143.533 117.274 143.563 117.3 143.585C117.326 143.606 117.359 143.618 117.393 143.618C117.427 143.618 117.459 143.606 117.485 143.585C117.512 143.563 117.529 143.533 117.535 143.5C117.605 143.085 117.67 142.68 117.74 142.275C118.35 141.115 118.9 140.065 119.985 139.215C121.024 138.396 122.267 137.877 123.58 137.715C123.735 137.715 123.695 137.48 123.545 137.48C122.522 137.504 121.516 137.745 120.593 138.188C119.671 138.631 118.853 139.266 118.195 140.05C118.456 138.999 118.861 137.989 119.4 137.05C119.888 136.232 120.462 135.468 121.11 134.77" fill="#263238"/>
<path d="M116.37 146.35C116.364 146.352 116.36 146.356 116.356 146.361C116.353 146.366 116.352 146.371 116.352 146.377C116.352 146.383 116.353 146.389 116.356 146.394C116.36 146.398 116.364 146.402 116.37 146.405C116.375 146.402 116.379 146.398 116.383 146.394C116.386 146.389 116.388 146.383 116.388 146.377C116.388 146.371 116.386 146.366 116.383 146.361C116.379 146.356 116.375 146.352 116.37 146.35Z" fill="#263238"/>
<path d="M124.445 151.395C124.785 152.8 127.515 146.95 127.515 146.19C127.515 145.43 129.69 142.595 130.015 141.02C130.34 139.445 130.59 135.02 130.425 134.02C130.26 133.02 131.34 130.1 130.84 128.405C130.34 126.71 125.295 111.74 112.19 104.505C99.0849 97.27 89.8549 99.225 89.8549 99.225C85.1062 99.839 80.4386 100.969 75.9349 102.595C68.6549 105.255 62.9999 125.755 63.0849 126.145C63.1699 126.535 64.0099 127.57 63.9649 128.715C63.9199 129.86 63.0949 131.275 63.9649 132.11C64.8349 132.945 64.0849 135.955 64.4149 137.025C64.7449 138.095 65.1099 138.285 65.1299 139.07C65.1499 139.855 63.1749 120 83.9999 106.86C83.9999 106.86 117.085 121.23 124.445 151.395Z" fill="#FFC727"/>
<path d="M65.1094 138.87C65.1175 138.942 65.1175 139.014 65.1094 139.085C65.1294 139.15 65.1194 139.075 65.1094 138.87Z" fill="#FFC727"/>
<path d="M65.1094 138.87C65.1171 138.942 65.1171 139.014 65.1094 139.085C65.1294 139.15 65.1194 139.075 65.1094 138.87Z" fill="#FFC727"/>
<path opacity="0.3" d="M69.8945 116.325C69.9088 116.801 69.7532 117.266 69.4554 117.637C69.1577 118.008 68.7375 118.261 68.2701 118.35C67.8028 118.439 67.319 118.359 66.9056 118.123C66.4922 117.888 66.1763 117.513 66.0145 117.065C66.3395 116.22 66.6945 115.36 67.0695 114.49C67.3759 114.351 67.7124 114.292 68.0478 114.318C68.3832 114.344 68.7067 114.454 68.9883 114.638C69.2699 114.821 69.5006 115.073 69.659 115.37C69.8174 115.667 69.8984 115.999 69.8945 116.335V116.325ZM77.0745 110.025C76.5441 110.025 76.0354 110.236 75.6603 110.611C75.2853 110.986 75.0745 111.495 75.0745 112.025C75.0718 112.307 75.1287 112.587 75.2416 112.845C75.3544 113.104 75.5208 113.336 75.7295 113.525C76.6295 112.6 77.6045 111.685 78.6595 110.79C78.4712 110.55 78.2304 110.357 77.9557 110.224C77.681 110.091 77.3796 110.023 77.0745 110.025ZM67.1445 123.8C66.6141 123.767 66.0922 123.946 65.6937 124.298C65.2952 124.649 65.0527 125.145 65.0195 125.675C64.9864 126.206 65.1653 126.728 65.5169 127.126C65.8686 127.525 66.3641 127.767 66.8945 127.8C67.3093 126.571 67.7883 125.364 68.3295 124.185C67.9868 123.932 67.5708 123.797 67.1445 123.8ZM102.94 100.575C102.769 100.88 102.681 101.225 102.685 101.575C102.639 102.106 102.807 102.632 103.15 103.039C103.493 103.446 103.984 103.7 104.515 103.745C105.045 103.79 105.572 103.623 105.979 103.28C106.385 102.936 106.639 102.446 106.685 101.915C105.375 101.365 104.125 100.935 102.94 100.575ZM109 116.325C108.604 116.325 108.217 116.442 107.888 116.662C107.559 116.882 107.303 117.194 107.152 117.56C107 117.925 106.961 118.327 107.038 118.715C107.115 119.103 107.306 119.46 107.585 119.739C107.865 120.019 108.221 120.21 108.609 120.287C108.997 120.364 109.399 120.324 109.765 120.173C110.13 120.022 110.443 119.765 110.662 119.436C110.882 119.107 111 118.721 111 118.325C111 117.795 110.789 117.286 110.414 116.911C110.039 116.536 109.53 116.325 109 116.325ZM80.8295 101.06C79.6645 101.38 78.4295 101.75 77.1695 102.18C77.1695 102.711 77.3802 103.219 77.7553 103.594C78.1304 103.969 78.6391 104.18 79.1695 104.18C79.7 104.18 80.2087 103.969 80.5837 103.594C80.9588 103.219 81.1695 102.711 81.1695 102.18C81.1689 101.781 81.0488 101.391 80.8245 101.06H80.8295ZM90.8945 101.56C90.499 101.56 90.1123 101.677 89.7834 101.897C89.4545 102.117 89.1982 102.429 89.0468 102.795C88.8954 103.16 88.8558 103.562 88.933 103.95C89.0101 104.338 89.2006 104.695 89.4803 104.974C89.76 105.254 90.1164 105.445 90.5044 105.522C90.8923 105.599 91.2945 105.559 91.6599 105.408C92.0254 105.257 92.3377 105 92.5575 104.671C92.7772 104.342 92.8945 103.956 92.8945 103.56C92.8952 103.297 92.8438 103.036 92.7433 102.792C92.6427 102.549 92.4951 102.327 92.3088 102.141C92.1224 101.955 91.9011 101.807 91.6576 101.706C91.414 101.606 91.153 101.555 90.8895 101.555L90.8945 101.56ZM99.0995 109.29C98.704 109.29 98.3173 109.407 97.9884 109.627C97.6595 109.847 97.4032 110.159 97.2518 110.525C97.1004 110.89 97.0608 111.292 97.138 111.68C97.2151 112.068 97.4056 112.425 97.6853 112.704C97.965 112.984 98.3214 113.175 98.7094 113.252C99.0973 113.329 99.4994 113.289 99.8649 113.138C100.23 112.987 100.543 112.73 100.762 112.401C100.982 112.072 101.1 111.686 101.1 111.29C101.1 111.027 101.049 110.766 100.948 110.522C100.848 110.279 100.7 110.057 100.514 109.871C100.327 109.685 100.106 109.537 99.8626 109.436C99.619 109.336 99.358 109.285 99.0945 109.285L99.0995 109.29ZM114.205 107.29C113.809 107.29 113.422 107.407 113.093 107.627C112.764 107.847 112.508 108.159 112.357 108.525C112.205 108.89 112.166 109.292 112.243 109.68C112.32 110.068 112.511 110.425 112.79 110.704C113.07 110.984 113.426 111.175 113.814 111.252C114.202 111.329 114.604 111.289 114.97 111.138C115.335 110.987 115.648 110.73 115.867 110.401C116.087 110.072 116.205 109.686 116.205 109.29C116.207 109.026 116.156 108.764 116.056 108.519C115.956 108.274 115.809 108.052 115.622 107.865C115.436 107.677 115.214 107.529 114.97 107.427C114.726 107.326 114.464 107.275 114.2 107.275L114.205 107.29ZM118.57 121.96C118.174 121.96 117.787 122.077 117.458 122.297C117.129 122.517 116.873 122.829 116.722 123.195C116.57 123.56 116.531 123.962 116.608 124.35C116.685 124.738 116.876 125.095 117.155 125.374C117.435 125.654 117.791 125.845 118.179 125.922C118.567 125.999 118.969 125.959 119.335 125.808C119.7 125.657 120.013 125.4 120.232 125.071C120.452 124.742 120.57 124.356 120.57 123.96C120.572 123.696 120.521 123.434 120.421 123.189C120.321 122.944 120.174 122.722 119.987 122.535C119.801 122.347 119.579 122.199 119.335 122.097C119.091 121.996 118.829 121.945 118.565 121.945L118.57 121.96ZM123.305 144.19C122.923 144.189 122.55 144.298 122.23 144.505C122.73 145.705 123.155 146.94 123.545 148.2C124.075 148.168 124.571 147.927 124.924 147.53C125.276 147.132 125.456 146.611 125.425 146.08C125.393 145.55 125.151 145.054 124.754 144.701C124.356 144.349 123.835 144.168 123.305 144.2V144.19ZM114.2 130C114.043 130.001 113.887 130.019 113.735 130.055C114.495 131.012 115.23 131.997 115.94 133.01C116.118 132.707 116.212 132.362 116.21 132.01C116.211 131.746 116.16 131.484 116.059 131.239C115.959 130.995 115.811 130.773 115.624 130.586C115.437 130.399 115.215 130.251 114.97 130.15C114.726 130.05 114.464 129.999 114.2 130ZM123.455 114.5C123.187 114.621 122.949 114.8 122.759 115.023C122.568 115.246 122.429 115.509 122.351 115.792C122.273 116.075 122.258 116.372 122.308 116.661C122.358 116.951 122.471 117.226 122.639 117.467C122.807 117.708 123.026 117.908 123.28 118.055C123.535 118.202 123.818 118.291 124.111 118.315C124.404 118.34 124.698 118.3 124.974 118.198C125.249 118.096 125.499 117.935 125.705 117.725C125.03 116.635 124.28 115.55 123.455 114.465V114.5ZM124.23 132.395C123.834 132.395 123.447 132.512 123.118 132.732C122.789 132.952 122.533 133.264 122.382 133.63C122.23 133.995 122.191 134.397 122.268 134.785C122.345 135.173 122.536 135.53 122.815 135.809C123.095 136.089 123.451 136.28 123.839 136.357C124.227 136.434 124.629 136.394 124.995 136.243C125.36 136.092 125.673 135.835 125.892 135.506C126.112 135.177 126.23 134.791 126.23 134.395C126.234 134.13 126.186 133.866 126.087 133.619C125.989 133.372 125.842 133.148 125.656 132.958C125.47 132.769 125.248 132.618 125.003 132.516C124.758 132.413 124.495 132.36 124.23 132.36V132.395ZM129.58 137.785C129.579 138.069 129.639 138.349 129.756 138.608C129.872 138.866 130.042 139.097 130.255 139.285C130.35 138.285 130.425 137.12 130.46 136.13C130.194 136.31 129.975 136.551 129.822 136.833C129.669 137.115 129.586 137.429 129.58 137.75V137.785ZM129.13 124.045C128.869 124.075 128.616 124.155 128.386 124.283C128.156 124.41 127.954 124.581 127.79 124.786C127.626 124.992 127.505 125.228 127.432 125.48C127.36 125.732 127.337 125.997 127.367 126.258C127.397 126.519 127.477 126.771 127.604 127.001C127.732 127.231 127.903 127.434 128.108 127.597C128.314 127.761 128.549 127.882 128.802 127.955C129.054 128.028 129.319 128.05 129.58 128.02C129.933 128.018 130.278 127.919 130.58 127.735C130.335 126.905 129.855 125.61 129.13 124V124.045Z" fill="white"/>
<path opacity="0.1" d="M127.5 146.189C127.269 144.782 126.9 143.4 126.4 142.064C125.95 140.709 125.455 139.374 124.95 138.039C123.95 135.374 122.9 132.714 121.75 130.109C121.465 129.459 121.185 128.794 120.86 128.179C120.494 127.59 120.063 127.043 119.575 126.549C118.615 125.509 117.575 124.549 116.54 123.549C115.505 122.549 114.45 121.604 113.39 120.649L110.21 117.779C112.467 119.536 114.663 121.369 116.8 123.279C117.875 124.224 118.915 125.209 119.91 126.249C120.432 126.766 120.891 127.341 121.28 127.964C121.63 128.609 121.915 129.264 122.205 129.919C123.325 132.553 124.36 135.219 125.31 137.919C125.775 139.274 126.23 140.629 126.63 141.999C126.83 142.689 127.02 143.379 127.18 144.079C127.358 144.77 127.466 145.477 127.5 146.189Z" fill="#050400"/>
<path opacity="0.1" d="M118.035 118.335C120.901 120.208 123.501 122.458 125.765 125.025C126.911 126.309 127.917 127.712 128.765 129.21C129.617 130.702 130.188 132.337 130.45 134.035C130.32 133.625 130.195 133.22 130.08 132.815C130.024 132.61 129.949 132.411 129.855 132.22L129.605 131.64C129.52 131.445 129.45 131.25 129.36 131.06L129.06 130.5C128.85 130.135 128.68 129.75 128.435 129.4L127.75 128.34L127 127.315C126.76 126.97 126.5 126.65 126.22 126.315C125.94 125.98 125.695 125.655 125.405 125.345C124.303 124.068 123.135 122.85 121.905 121.695C121.295 121.105 120.665 120.54 120.02 119.98C119.375 119.42 118.695 118.875 118.035 118.335Z" fill="#050400"/>
<path opacity="0.1" d="M63.9648 127.8C64.3214 126.214 64.8235 124.664 65.4648 123.17C66.0548 121.67 66.7048 120.17 67.3748 118.705C68.0322 117.217 68.7648 115.764 69.5698 114.35C70.4387 112.969 71.5088 111.725 72.7448 110.66C72.1993 111.255 71.6884 111.881 71.2148 112.535C70.7315 113.171 70.2922 113.839 69.8998 114.535C69.5198 115.235 69.1848 115.965 68.8448 116.7L67.8448 118.9L65.8448 123.31C65.5048 124.045 65.1848 124.81 64.8448 125.53C64.504 126.268 64.2101 127.026 63.9648 127.8Z" fill="#050400"/>
<path opacity="0.1" d="M64.2949 132.785C64.4396 131.625 64.66 130.476 64.9549 129.345C65.229 128.208 65.5628 127.087 65.9549 125.985C66.157 125.429 66.3907 124.885 66.6549 124.355C66.9399 123.855 67.2099 123.33 67.5099 122.825L68.3799 121.325C68.6899 120.825 68.9799 120.325 69.2999 119.825C69.0799 120.365 68.8299 120.895 68.5999 121.43L67.8499 123.005C67.6049 123.535 67.3499 124.05 67.0799 124.57C66.8338 125.088 66.6152 125.619 66.4249 126.16C66.0199 127.245 65.6699 128.35 65.3049 129.455C65.1249 130.005 64.9499 130.56 64.7799 131.12C64.6199 131.665 64.4599 132.225 64.2949 132.785Z" fill="#050400"/>
<path opacity="0.1" d="M109.5 103.14C106.165 105.88 98.5002 112.04 96.4552 112.465C95.7559 112.58 95.0489 112.644 94.3401 112.655C91.0466 110.462 87.5898 108.524 84.0002 106.86C81.5732 108.377 79.2947 110.119 77.1952 112.065C74.6364 111.283 72.1557 110.265 69.7852 109.025C71.5952 105.935 73.6802 103.43 75.9202 102.61C80.4239 100.984 85.0914 99.8536 89.8401 99.2396C89.8401 99.2396 97.8352 97.5546 109.5 103.14Z" fill="#050400"/>
<path d="M84.1344 102.294C84.1344 102.294 73.5844 94.7193 62.7344 97.8743C62.7344 97.8743 67.4394 107.974 72.4944 109.834C74.9944 110.759 83.4144 108.074 83.7994 106.334C84.0476 105.002 84.1598 103.649 84.1344 102.294Z" fill="#FFC727"/>
<path opacity="0.3" d="M72.9304 97.5849C72.741 97.9432 72.4473 98.2356 72.088 98.4233C71.7287 98.6109 71.3209 98.685 70.9186 98.6356C70.5163 98.5863 70.1385 98.4159 69.8352 98.147C69.532 97.8781 69.3175 97.5234 69.2204 97.1299C70.4672 97.182 71.7079 97.3341 72.9304 97.5849ZM67.9304 104.085C67.4631 104.084 67.0102 104.247 66.6504 104.545C67.4257 105.641 68.2921 106.67 69.2404 107.62C69.4574 107.434 69.6321 107.204 69.7529 106.946C69.8736 106.687 69.9375 106.405 69.9404 106.12C69.9457 105.855 69.8984 105.592 69.8012 105.346C69.704 105.099 69.5588 104.875 69.3742 104.685C69.1895 104.495 68.969 104.344 68.7255 104.24C68.4819 104.136 68.2202 104.082 67.9554 104.08L67.9304 104.085ZM79.1454 100.19C78.7498 100.19 78.3631 100.307 78.0342 100.527C77.7053 100.747 77.449 101.059 77.2976 101.425C77.1463 101.79 77.1066 102.192 77.1838 102.58C77.261 102.968 77.4515 103.324 77.7312 103.604C78.0109 103.884 78.3672 104.074 78.7552 104.151C79.1432 104.229 79.5453 104.189 79.9108 104.038C80.2762 103.886 80.5886 103.63 80.8083 103.301C81.0281 102.972 81.1454 102.585 81.1454 102.19C81.1467 101.663 80.9401 101.157 80.5702 100.781C80.2004 100.406 79.6973 100.191 79.1704 100.185L79.1454 100.19Z" fill="white"/>
<path opacity="0.1" d="M84.1396 102.3C84.1551 103.641 84.0413 104.98 83.7996 106.3C83.789 106.382 83.7562 106.46 83.7046 106.525C83.6632 106.617 83.6057 106.702 83.5346 106.775C83.4796 106.82 83.4346 106.88 83.3596 106.94C82.5846 107.685 80.8596 108.465 78.9746 109.05C78.5718 107.437 78.3207 105.789 78.2246 104.13C78.1896 102.835 79.1196 101.31 80.1396 100.015C81.5357 100.661 82.8739 101.425 84.1396 102.3Z" fill="#050400"/>
<path d="M87.2548 102.645C87.2548 102.645 100.755 94.3899 108.995 94.6149C108.995 94.6149 108.355 103.715 101.91 108.615C99.0248 110.8 87.0948 108.885 86.9098 106.975C86.8228 105.523 86.9389 104.065 87.2548 102.645Z" fill="#FFC727"/>
<path opacity="0.3" d="M106.71 101.555C106.71 101.95 106.592 102.337 106.373 102.666C106.153 102.995 105.84 103.251 105.475 103.402C105.11 103.554 104.707 103.593 104.319 103.516C103.932 103.439 103.575 103.249 103.295 102.969C103.016 102.689 102.825 102.333 102.748 101.945C102.671 101.557 102.711 101.155 102.862 100.789C103.013 100.424 103.27 100.112 103.599 99.8917C103.927 99.672 104.314 99.5547 104.71 99.5547C105.24 99.5547 105.749 99.7654 106.124 100.14C106.499 100.516 106.71 101.024 106.71 101.555ZM90.8896 101.555C90.4941 101.555 90.1074 101.672 89.7785 101.892C89.4496 102.112 89.1933 102.424 89.0419 102.789C88.8905 103.155 88.8509 103.557 88.9281 103.945C89.0052 104.333 89.1957 104.689 89.4754 104.969C89.7551 105.249 90.1115 105.439 90.4995 105.516C90.8874 105.593 91.2896 105.554 91.655 105.402C92.0205 105.251 92.3328 104.995 92.5526 104.666C92.7724 104.337 92.8896 103.95 92.8896 103.555C92.8896 103.024 92.6789 102.516 92.3039 102.14C91.9288 101.765 91.4201 101.555 90.8896 101.555ZM99.0947 109.285C98.7529 109.283 98.4168 109.371 98.1197 109.54C98.6475 109.516 99.1734 109.461 99.6946 109.375C99.5004 109.314 99.2981 109.284 99.0947 109.285Z" fill="white"/>
<path opacity="0.1" d="M90.3693 100.875C91.1943 102.105 92.1393 103.96 92.1093 105.755C92.0352 106.861 91.7267 107.938 91.2043 108.915C88.8093 108.415 86.9843 107.685 86.8943 106.915C86.8178 105.472 86.9389 104.025 87.2543 102.615C87.2543 102.615 88.4543 101.9 90.3693 100.875Z" fill="#050400"/>
<path d="M90.1301 105.28C90.0456 106.292 89.663 107.256 89.0307 108.051C88.3984 108.845 87.5447 109.434 86.5776 109.744C85.6105 110.053 84.5734 110.069 83.5973 109.789C82.6213 109.509 81.7501 108.946 81.094 108.171C80.4379 107.396 80.0262 106.444 79.9111 105.435C79.7959 104.426 79.9824 103.406 80.447 102.503C80.9116 101.6 81.6335 100.855 82.5213 100.363C83.4092 99.8701 84.4232 99.6517 85.4351 99.7352C86.7928 99.8485 88.0499 100.496 88.9303 101.536C89.8106 102.576 90.2422 103.922 90.1301 105.28Z" fill="#FFC727"/>
</svg>
