<svg width="58" height="32" viewBox="0 0 58 32" fill="none" xmlns="http://www.w3.org/2000/svg">
<rect width="58" height="32" rx="16" fill="#D19E81" fill-opacity="0.5"/>
<path d="M22.4261 15H21.1932C21.1203 14.6454 20.9927 14.3338 20.8104 14.0653C20.6314 13.7969 20.4126 13.5715 20.1541 13.3892C19.8989 13.2036 19.6155 13.0644 19.304 12.9716C18.9924 12.8788 18.6676 12.8324 18.3295 12.8324C17.7131 12.8324 17.1546 12.9882 16.6541 13.2997C16.157 13.6113 15.7609 14.0703 15.4659 14.6768C15.1742 15.2834 15.0284 16.0275 15.0284 16.9091C15.0284 17.7907 15.1742 18.5348 15.4659 19.1413C15.7609 19.7479 16.157 20.2069 16.6541 20.5185C17.1546 20.83 17.7131 20.9858 18.3295 20.9858C18.6676 20.9858 18.9924 20.9394 19.304 20.8466C19.6155 20.7538 19.8989 20.6162 20.1541 20.4339C20.4126 20.2483 20.6314 20.0213 20.8104 19.7528C20.9927 19.4811 21.1203 19.1695 21.1932 18.8182H22.4261C22.3333 19.3385 22.1643 19.8042 21.919 20.2152C21.6738 20.6262 21.3688 20.9759 21.0043 21.2642C20.6397 21.5492 20.2304 21.7663 19.7763 21.9155C19.3255 22.0646 18.8433 22.1392 18.3295 22.1392C17.4612 22.1392 16.6889 21.9271 16.0128 21.5028C15.3366 21.0786 14.8047 20.4754 14.4169 19.6932C14.0291 18.911 13.8352 17.983 13.8352 16.9091C13.8352 15.8352 14.0291 14.9072 14.4169 14.125C14.8047 13.3428 15.3366 12.7396 16.0128 12.3153C16.6889 11.8911 17.4612 11.679 18.3295 11.679C18.8433 11.679 19.3255 11.7536 19.7763 11.9027C20.2304 12.0518 20.6397 12.2706 21.0043 12.5589C21.3688 12.844 21.6738 13.192 21.919 13.603C22.1643 14.0107 22.3333 14.4763 22.4261 15ZM25.4327 17.4062V22H24.2594V11.8182H25.4327V15.5568H25.5321C25.7111 15.1624 25.9796 14.8492 26.3375 14.6172C26.6988 14.3819 27.1794 14.2642 27.7793 14.2642C28.2997 14.2642 28.7554 14.3686 29.1465 14.5774C29.5376 14.7829 29.8409 15.0994 30.0563 15.527C30.275 15.9512 30.3844 16.4915 30.3844 17.1477V22H29.2111V17.2273C29.2111 16.6207 29.0537 16.1518 28.7388 15.8203C28.4273 15.4856 27.9947 15.3182 27.4412 15.3182C27.0568 15.3182 26.7121 15.3994 26.4071 15.5618C26.1055 15.7242 25.8669 15.9612 25.6912 16.2727C25.5189 16.5843 25.4327 16.9621 25.4327 17.4062ZM34.7781 22.179C34.2942 22.179 33.855 22.0878 33.4606 21.9055C33.0662 21.7199 32.753 21.4531 32.521 21.1051C32.2889 20.7538 32.1729 20.3295 32.1729 19.8324C32.1729 19.3949 32.2591 19.0402 32.4315 18.7685C32.6038 18.4934 32.8342 18.2779 33.1225 18.1222C33.4109 17.9664 33.729 17.8504 34.0771 17.7741C34.4284 17.6946 34.7814 17.6316 35.136 17.5852C35.6 17.5256 35.9762 17.4808 36.2646 17.451C36.5562 17.4179 36.7683 17.3632 36.9009 17.2869C37.0368 17.2107 37.1048 17.0781 37.1048 16.8892V16.8494C37.1048 16.3589 36.9705 15.9777 36.7021 15.706C36.4369 15.4342 36.0342 15.2983 35.494 15.2983C34.9338 15.2983 34.4947 15.4209 34.1765 15.6662C33.8583 15.9115 33.6346 16.1733 33.5053 16.4517L32.3917 16.054C32.5906 15.59 32.8557 15.2287 33.1871 14.9702C33.5219 14.7083 33.8865 14.526 34.2809 14.4233C34.6786 14.3172 35.0697 14.2642 35.4542 14.2642C35.6995 14.2642 35.9812 14.294 36.2994 14.3537C36.6209 14.41 36.9308 14.5277 37.229 14.7067C37.5307 14.8857 37.7809 15.1558 37.9798 15.517C38.1786 15.8783 38.2781 16.3622 38.2781 16.9688V22H37.1048V20.9659H37.0451C36.9656 21.1316 36.833 21.3089 36.6474 21.4979C36.4618 21.6868 36.2148 21.8475 35.9066 21.9801C35.5984 22.1127 35.2222 22.179 34.7781 22.179ZM34.957 21.125C35.421 21.125 35.8121 21.0339 36.1303 20.8516C36.4518 20.6693 36.6938 20.4339 36.8562 20.1456C37.0219 19.8572 37.1048 19.554 37.1048 19.2358V18.1619C37.055 18.2216 36.9457 18.2763 36.7766 18.326C36.6109 18.3724 36.4187 18.4138 36.1999 18.4503C35.9845 18.4834 35.774 18.5133 35.5685 18.5398C35.3664 18.563 35.2023 18.5829 35.0763 18.5994C34.7714 18.6392 34.4864 18.7038 34.2212 18.7933C33.9594 18.8795 33.7473 19.0104 33.5849 19.1861C33.4258 19.3584 33.3462 19.5937 33.3462 19.892C33.3462 20.2997 33.497 20.608 33.7987 20.8168C34.1036 21.0223 34.4897 21.125 34.957 21.125ZM43.7406 14.3636V15.358H39.7832V14.3636H43.7406ZM40.9366 12.5341H42.1099V19.8125C42.1099 20.1439 42.158 20.3925 42.2541 20.5582C42.3535 20.7206 42.4795 20.83 42.6319 20.8864C42.7877 20.9394 42.9518 20.9659 43.1241 20.9659C43.2534 20.9659 43.3594 20.9593 43.4423 20.946C43.5252 20.9295 43.5914 20.9162 43.6412 20.9062L43.8798 21.9602C43.8002 21.9901 43.6892 22.0199 43.5467 22.0497C43.4042 22.0829 43.2235 22.0994 43.0048 22.0994C42.6734 22.0994 42.3485 22.0282 42.0304 21.8857C41.7155 21.7431 41.4537 21.526 41.2449 21.2344C41.0394 20.9427 40.9366 20.5748 40.9366 20.1307V12.5341Z" fill="white"/>
</svg>
