<svg width="233" height="426" viewBox="0 0 233 426" fill="none" xmlns="http://www.w3.org/2000/svg">
<mask id="mask0_446_234" style="mask-type:alpha" maskUnits="userSpaceOnUse" x="0" y="0" width="233" height="426">
<path d="M189.268 56.1722C189.365 57.2969 189.126 58.4249 188.581 59.4137C188.037 60.4026 187.212 61.2079 186.21 61.728C185.208 62.2481 184.075 62.4596 182.953 62.3357C181.831 62.2119 180.771 61.7583 179.906 61.0322C179.042 60.3062 178.412 59.3402 178.097 58.2565C177.781 57.1727 177.794 56.0197 178.133 54.9432C178.473 53.8666 179.124 52.9149 180.004 52.2081C180.884 51.5013 181.954 51.0712 183.078 50.9722C183.826 50.9063 184.58 50.9887 185.296 51.2145C186.012 51.4403 186.677 51.8051 187.252 52.2882C187.827 52.7712 188.301 53.3629 188.647 54.0294C188.993 54.6958 189.204 55.424 189.268 56.1722Z" fill="white"/>
<path d="M189.269 56.1723C189.393 57.7034 188.924 59.2237 187.961 60.42C186.997 61.6162 185.611 62.3973 184.089 62.6023C183.26 62.7686 182.405 62.7579 181.58 62.5707C180.756 62.3836 179.98 62.0243 179.304 61.5163C178.628 61.0084 178.067 60.3633 177.658 59.6234C177.248 58.8835 177 58.0654 176.929 57.2228C176.858 56.3802 176.966 55.5322 177.246 54.7342C177.526 53.9363 177.971 53.2065 178.553 52.5927C179.134 51.9789 179.839 51.495 180.621 51.1726C181.403 50.8503 182.244 50.6968 183.089 50.7223C184.62 50.6699 186.113 51.2053 187.262 52.2187C188.411 53.232 189.129 54.6465 189.269 56.1723ZM189.269 56.1723C189.205 55.4366 188.993 54.7216 188.645 54.0702C188.297 53.4188 187.821 52.8445 187.246 52.382C186.67 51.9195 186.007 51.5783 185.296 51.379C184.585 51.1796 183.841 51.1263 183.109 51.2223C181.709 51.4021 180.433 52.116 179.547 53.2148C178.662 54.3135 178.235 55.712 178.356 57.1181C178.478 58.5241 179.138 59.8288 180.198 60.7595C181.259 61.6902 182.639 62.1749 184.049 62.1123C184.787 62.0813 185.512 61.901 186.178 61.5823C186.845 61.2636 187.44 60.813 187.928 60.2579C188.416 59.7028 188.786 59.0545 189.017 58.3523C189.247 57.6501 189.333 56.9085 189.269 56.1723Z" fill="#263238"/>
<path d="M176.849 66.7022C176.902 67.3288 176.768 67.957 176.464 68.5075C176.16 69.058 175.7 69.5061 175.141 69.795C174.583 70.084 173.951 70.2008 173.326 70.1309C172.701 70.0609 172.111 69.8072 171.63 69.4019C171.15 68.9966 170.8 68.4579 170.625 67.8538C170.45 67.2497 170.459 66.6074 170.649 66.0081C170.839 65.4088 171.203 64.8794 171.694 64.4867C172.186 64.0941 172.782 63.8559 173.409 63.8022C173.825 63.7652 174.245 63.811 174.644 63.937C175.043 64.0629 175.413 64.2666 175.732 64.5361C176.052 64.8057 176.315 65.1359 176.507 65.5076C176.699 65.8794 176.815 66.2854 176.849 66.7022Z" fill="white"/>
<path d="M176.849 66.7023C176.905 67.3885 176.753 68.0758 176.413 68.6747C176.073 69.2736 175.561 69.7563 174.943 70.0601C174.325 70.3639 173.63 70.4747 172.949 70.3781C172.267 70.2815 171.63 69.9819 171.121 69.5184C170.612 69.0548 170.254 68.4488 170.094 67.7791C169.934 67.1094 169.979 66.407 170.224 65.7634C170.468 65.1197 170.901 64.5646 171.466 64.1703C172.03 63.7759 172.7 63.5606 173.389 63.5523C174.255 63.5488 175.091 63.8705 175.732 64.4537C176.372 65.037 176.771 65.8394 176.849 66.7023ZM176.849 66.7023C176.816 66.2965 176.699 65.9021 176.505 65.5442C176.311 65.1862 176.045 64.8726 175.723 64.6233C175.401 64.374 175.031 64.1944 174.636 64.0961C174.241 63.9978 173.83 63.9829 173.429 64.0523C172.865 64.1476 172.342 64.4048 171.923 64.7925C171.504 65.1803 171.206 65.6817 171.067 66.2357C170.929 66.7896 170.954 67.372 171.141 67.9118C171.327 68.4515 171.667 68.9252 172.118 69.275C172.57 69.6248 173.113 69.8356 173.683 69.8815C174.252 69.9275 174.822 69.8066 175.324 69.5338C175.826 69.2609 176.237 68.8478 176.508 68.345C176.778 67.8421 176.897 67.2713 176.849 66.7023Z" fill="#263238"/>
<path d="M231.929 29.6122C232.46 34.0022 231.227 38.4235 228.501 41.9053C225.775 45.387 221.778 47.6445 217.389 48.1822C214.5 48.5418 211.568 48.1313 208.889 46.9922C207.582 48.7026 205.899 50.0887 203.969 51.0428C202.04 51.9968 199.916 52.4931 197.764 52.4931C195.611 52.4931 193.488 51.9968 191.559 51.0428C189.629 50.0887 187.946 48.7026 186.639 46.9922C186.024 47.1739 185.395 47.3043 184.759 47.3822C182.581 47.648 180.374 47.2766 178.403 46.313C176.432 45.3493 174.784 43.8348 173.656 41.9529C172.529 40.071 171.972 37.9026 172.052 35.7105C172.133 33.5183 172.847 31.3965 174.109 29.6022C171.652 26.4757 170.392 22.5741 170.557 18.601C170.723 14.6278 172.302 10.8444 175.011 7.93298C177.72 5.02155 181.379 3.17365 185.33 2.72245C189.281 2.27125 193.264 3.24644 196.559 5.47219C198.105 3.55029 200.131 2.07082 202.432 1.18351C204.733 0.296207 207.228 0.0325554 209.663 0.419243C212.099 0.805931 214.39 1.82923 216.303 3.38558C218.216 4.94193 219.684 6.97609 220.559 9.28219C221.143 9.08569 221.746 8.95161 222.359 8.88219C224.208 8.66057 226.081 9.00781 227.727 9.87764C229.374 10.7475 230.716 12.0985 231.576 13.7508C232.435 15.403 232.77 17.2779 232.537 19.1255C232.303 20.9731 231.512 22.7056 230.269 24.0922C231.143 25.82 231.705 27.6887 231.929 29.6122Z" fill="white"/>
<path d="M231.929 29.6122C232.449 34.0007 231.232 38.4186 228.539 41.9222C227.636 43.0635 226.595 44.088 225.439 44.9722C223.098 46.7437 220.336 47.8747 217.425 48.2534C214.514 48.6322 211.555 48.2458 208.839 47.1322H208.999C207.685 48.8753 205.986 50.2913 204.034 51.2696C202.083 52.248 199.932 52.7622 197.749 52.7722C195.556 52.78 193.39 52.2839 191.419 51.3222C189.449 50.3438 187.723 48.9359 186.369 47.2022L186.729 47.3222C184.402 48.0248 181.915 47.9899 179.609 47.2222C177.292 46.4576 175.274 44.9851 173.839 43.0122C173.136 42.0205 172.581 40.9326 172.189 39.7822C171.814 38.6251 171.615 37.4183 171.599 36.2022C171.577 33.751 172.318 31.3537 173.719 29.3422V29.9022C171.161 26.6999 169.857 22.6761 170.049 18.5822C170.157 15.5327 171.085 12.5686 172.733 10.001C174.382 7.43334 176.692 5.35682 179.42 3.98931C182.147 2.6218 185.193 2.01373 188.237 2.2289C191.281 2.44408 194.211 3.47455 196.719 5.21221L196.279 5.27221C197.867 3.31737 199.944 1.81766 202.299 0.92543C204.655 0.033197 207.204 -0.219776 209.689 0.19221C212.159 0.601977 214.476 1.65645 216.408 3.24905C218.339 4.84165 219.816 6.91592 220.689 9.26221L220.559 9.19221C222.513 8.55671 224.622 8.58484 226.559 9.27221C227.983 9.78138 229.259 10.6339 230.274 11.7543C231.289 12.8747 232.012 14.2284 232.379 15.6952C232.746 17.162 232.746 18.6966 232.378 20.1631C232.009 21.6296 231.285 22.9827 230.269 24.1022C231.144 25.8261 231.706 27.6918 231.929 29.6122ZM231.929 29.6122C231.693 27.6894 231.117 25.8237 230.229 24.1022C231.588 22.6104 232.411 20.7083 232.569 18.6964C232.726 16.6845 232.209 14.6774 231.099 12.9922C230.001 11.3116 228.376 10.0432 226.479 9.38623C224.582 8.72921 222.521 8.72076 220.619 9.36221H220.519V9.26221C219.631 6.99184 218.166 4.99257 216.269 3.46221C214.37 1.93452 212.099 0.940398 209.689 0.58221C207.29 0.223893 204.838 0.4997 202.579 1.38221C200.333 2.27384 198.363 3.74353 196.869 5.64221L196.679 5.88221L196.419 5.70221C193.2 3.55691 189.323 2.62709 185.481 3.07914C181.639 3.53118 178.084 5.3356 175.451 8.16947C172.818 11.0033 171.279 14.6817 171.11 18.5463C170.941 22.4109 172.153 26.2095 174.529 29.2622L174.749 29.5422L174.539 29.8322C173.232 31.6765 172.533 33.8821 172.539 36.1422C172.555 37.2654 172.733 38.3803 173.069 39.4522C173.42 40.522 173.929 41.5332 174.579 42.4522C175.902 44.303 177.767 45.6978 179.916 46.4446C182.065 47.1915 184.393 47.2535 186.579 46.6222L186.809 46.5622L186.939 46.7422C188.211 48.4178 189.845 49.785 191.719 50.7422C194.572 52.1874 197.838 52.5945 200.959 51.8939C204.079 51.1932 206.858 49.4283 208.819 46.9022L208.889 46.8122H208.989C211.654 47.9649 214.576 48.3926 217.459 48.0522C220.359 47.6957 223.117 46.5894 225.459 44.8422C226.613 43.9748 227.654 42.9671 228.559 41.8422C229.447 40.6915 230.189 39.4353 230.769 38.1022C231.879 35.419 232.278 32.4949 231.929 29.6122Z" fill="#263238"/>
<path d="M50.4701 311.2C50.4701 295.2 53.0835 280.824 58.3101 268.07C63.5368 255.317 74.3168 244.207 90.6501 234.74C95.5568 231.8 101.603 228.467 108.79 224.74C116.185 220.857 123.234 216.347 129.86 211.26C136.633 206.138 142.513 199.931 147.26 192.89C152.046 185.713 154.527 177.245 154.37 168.62C154.513 162.338 153.177 156.111 150.47 150.44C147.973 145.378 144.472 140.877 140.18 137.21C135.772 133.537 130.671 130.786 125.18 129.12C119.551 127.343 113.683 126.436 107.78 126.43C101.09 126.339 94.4485 127.576 88.2401 130.07C82.529 132.424 77.1715 135.557 72.3201 139.38C67.5919 143.123 63.3134 147.402 59.5701 152.13C56.1242 156.428 52.9353 160.926 50.0201 165.6H42.6401L7.37012 136.2C11.4497 126.314 17.1664 117.186 24.2801 109.2C31.2359 101.414 39.327 94.7217 48.2801 89.3502C57.3878 83.9355 67.215 79.835 77.4701 77.1702C88.0267 74.3819 98.9015 72.9801 109.82 73.0002C122.27 73.0072 134.652 74.8228 146.58 78.3902C158.475 81.8908 169.553 87.7242 179.17 95.5502C189.105 103.773 197.133 114.057 202.7 125.69C208.74 137.944 211.76 152.567 211.76 169.56C211.911 178.921 210.675 188.252 208.09 197.25C205.744 205.034 202.183 212.398 197.54 219.07C192.942 225.63 187.506 231.56 181.37 236.71C174.708 242.261 167.664 247.336 160.29 251.9C153.75 255.834 147.217 259.594 140.69 263.18C134.373 266.626 128.385 270.643 122.8 275.18C117.541 279.443 113.061 284.586 109.56 290.38C106.133 296.1 104.42 303.044 104.42 311.21L50.4701 311.2ZM51.4701 425.39V357.76H105.87V425.39H51.4701Z" fill="#BEA27C"/>
<g opacity="0.2">
<path d="M50.4701 311.2C50.4701 295.2 53.0835 280.824 58.3101 268.07C63.5368 255.317 74.3168 244.207 90.6501 234.74C95.5568 231.8 101.603 228.467 108.79 224.74C116.185 220.857 123.234 216.347 129.86 211.26C136.633 206.138 142.513 199.931 147.26 192.89C152.046 185.713 154.527 177.245 154.37 168.62C154.513 162.338 153.177 156.111 150.47 150.44C147.973 145.378 144.472 140.877 140.18 137.21C135.772 133.537 130.671 130.786 125.18 129.12C119.551 127.343 113.683 126.436 107.78 126.43C101.09 126.339 94.4485 127.576 88.2401 130.07C82.529 132.424 77.1715 135.557 72.3201 139.38C67.5919 143.123 63.3134 147.402 59.5701 152.13C56.1242 156.428 52.9353 160.926 50.0201 165.6H42.6401L7.37012 136.2C11.4497 126.314 17.1664 117.186 24.2801 109.2C31.2359 101.414 39.327 94.7217 48.2801 89.3502C57.3878 83.9355 67.215 79.835 77.4701 77.1702C88.0267 74.3819 98.9015 72.9801 109.82 73.0002C122.27 73.0072 134.652 74.8228 146.58 78.3902C158.475 81.8908 169.553 87.7242 179.17 95.5502C189.105 103.773 197.133 114.057 202.7 125.69C208.74 137.944 211.76 152.567 211.76 169.56C211.911 178.921 210.675 188.252 208.09 197.25C205.744 205.034 202.183 212.398 197.54 219.07C192.942 225.63 187.506 231.56 181.37 236.71C174.708 242.261 167.664 247.336 160.29 251.9C153.75 255.834 147.217 259.594 140.69 263.18C134.373 266.626 128.385 270.643 122.8 275.18C117.541 279.443 113.061 284.586 109.56 290.38C106.133 296.1 104.42 303.044 104.42 311.21L50.4701 311.2ZM51.4701 425.39V357.76H105.87V425.39H51.4701Z" fill="black"/>
</g>
<path d="M43.13 311.2C43.13 295.2 45.7433 280.824 50.97 268.07C56.1967 255.317 66.98 244.207 83.32 234.74C88.22 231.8 94.2633 228.467 101.45 224.74C108.85 220.859 115.902 216.349 122.53 211.26C129.301 206.136 135.18 199.929 139.93 192.89C144.708 185.71 147.185 177.244 147.03 168.62C147.159 162.354 145.816 156.144 143.11 150.49C140.613 145.428 137.112 140.927 132.82 137.26C128.412 133.587 123.311 130.836 117.82 129.17C112.191 127.393 106.323 126.486 100.42 126.48C93.7298 126.369 87.0843 127.59 80.87 130.07C75.156 132.424 69.7952 135.557 64.94 139.38C60.2149 143.124 55.9397 147.402 52.2 152.13C48.751 156.428 45.5588 160.926 42.64 165.6L0 136.2C4.07665 126.313 9.79369 117.184 16.91 109.2C23.863 101.411 31.9546 94.7185 40.91 89.3503C50.0149 83.9372 59.8386 79.8367 70.09 77.1703C80.6561 74.3785 91.5413 72.9767 102.47 73.0003C114.92 73.0066 127.303 74.8222 139.23 78.3903C151.125 81.8887 162.204 87.7223 171.82 95.5503C181.757 103.771 189.786 114.056 195.35 125.69C201.39 137.944 204.413 152.567 204.42 169.56C204.568 178.921 203.328 188.253 200.74 197.25C198.388 205.037 194.817 212.401 190.16 219.07C185.562 225.63 180.126 231.56 173.99 236.71C167.331 242.265 160.287 247.341 152.91 251.9C146.383 255.834 139.85 259.594 133.31 263.18C126.993 266.626 121.005 270.643 115.42 275.18C110.164 279.443 105.687 284.586 102.19 290.38C98.7633 296.1 97.0467 303.044 97.04 311.21L43.13 311.2ZM44.13 425.39V357.76H98.47V425.39H44.13Z" fill="#BEA27C"/>
</mask>
<g mask="url(#mask0_446_234)">
<rect x="-15" y="-15" width="263" height="456" fill="#966B9D"/>
<path d="M193.409 19.6922C193.686 20.8764 193.72 22.1045 193.509 23.3022C193.224 24.5756 192.52 25.7165 191.509 26.5422C191.159 26.8622 190.729 27.2322 190.209 27.6622C189.68 28.1007 189.188 28.5824 188.739 29.1022C188.281 29.632 187.913 30.2333 187.649 30.8822C187.385 31.543 187.329 32.2688 187.489 32.9622C187.58 33.469 187.793 33.9461 188.109 34.3522C188.396 34.7226 188.757 35.0291 189.169 35.2522C189.584 35.4746 190.04 35.6106 190.509 35.6522C190.994 35.6962 191.482 35.6693 191.959 35.5722C192.503 35.4679 193.021 35.2535 193.479 34.9422C193.897 34.6592 194.277 34.3231 194.609 33.9422C194.929 33.5602 195.201 33.1404 195.419 32.6922C195.624 32.2865 195.804 31.8691 195.959 31.4422L199.899 33.1022C199.738 33.968 199.43 34.7999 198.989 35.5622C198.561 36.3069 198.022 36.9814 197.389 37.5622C196.747 38.1515 196.027 38.6496 195.249 39.0422C194.445 39.4464 193.591 39.7423 192.709 39.9222C191.704 40.1359 190.673 40.1999 189.649 40.1122C188.63 40.0358 187.636 39.7534 186.729 39.2822C185.793 38.7938 184.972 38.1121 184.319 37.2822C183.138 35.6282 182.556 33.6213 182.669 31.5922C182.724 30.9273 182.887 30.2756 183.149 29.6622C183.406 29.0539 183.742 28.4822 184.149 27.9622C184.59 27.398 185.071 26.8666 185.589 26.3722C186.049 25.9522 186.519 25.5322 186.979 25.1322C187.424 24.7355 187.829 24.2968 188.189 23.8222C188.541 23.3891 188.815 22.8986 188.999 22.3722C189.181 21.7989 189.202 21.1865 189.059 20.6022L193.409 19.6922ZM191.409 10.4922L192.559 15.9522L188.169 16.8722L187.019 11.4122L191.409 10.4922Z" fill="#FF81AE"/>
<path d="M203.418 30.1323C203.397 28.9152 203.615 27.7058 204.058 26.5723C204.615 25.3827 205.556 24.4144 206.728 23.8223C207.138 23.5723 207.628 23.3023 208.228 22.9923C208.836 22.6724 209.414 22.3011 209.958 21.8823C210.517 21.457 211.004 20.9437 211.398 20.3623C211.793 19.7708 211.999 19.0733 211.988 18.3623C211.998 17.8432 211.885 17.3291 211.658 16.8623C211.453 16.4443 211.164 16.0732 210.808 15.7723C210.447 15.4712 210.029 15.2467 209.578 15.1123C209.116 14.9622 208.634 14.8846 208.148 14.8823C207.593 14.872 207.041 14.9775 206.528 15.1923C206.059 15.3853 205.619 15.641 205.218 15.9523C204.844 16.265 204.509 16.6208 204.218 17.0123C203.931 17.365 203.667 17.7357 203.428 18.1223L199.908 15.6923C200.249 14.8803 200.722 14.1302 201.308 13.4723C201.872 12.8236 202.533 12.2669 203.268 11.8223C204.018 11.3801 204.826 11.0436 205.668 10.8223C206.539 10.5925 207.437 10.4782 208.338 10.4823C209.354 10.4875 210.364 10.6357 211.338 10.9223C212.319 11.215 213.233 11.6974 214.028 12.3423C214.847 13.0184 215.509 13.8647 215.968 14.8223C216.486 15.9573 216.739 17.1951 216.708 18.4423C216.72 19.2129 216.619 19.9811 216.408 20.7223C216.217 21.365 215.923 21.9728 215.538 22.5223C215.16 23.0642 214.713 23.555 214.208 23.9823C213.66 24.4415 213.078 24.8593 212.468 25.2323L210.848 26.1623C210.329 26.451 209.837 26.7857 209.378 27.1623C208.935 27.5078 208.559 27.9315 208.268 28.4123C207.967 28.9343 207.818 29.5301 207.838 30.1323H203.418ZM203.498 39.5523V33.9723H207.978V39.5523H203.498Z" fill="#FF81AE"/>
</g>
</svg>
