<svg width="157" height="163" viewBox="0 0 157 163" fill="none" xmlns="http://www.w3.org/2000/svg">
<path d="M154.214 28.9204C155.101 26.1553 156.621 22.758 155.229 23.0194C153.836 23.2807 149.532 28.1743 150.559 25.5484C151.586 22.9224 154.231 20.3934 153.853 19.0109C153.475 17.6284 150.309 16.3723 148.789 16.3723C147.269 16.3723 145.482 17.856 143.848 20.8739C142.213 23.8919 141.301 23.5125 141.301 23.5125C141.301 23.5125 146.115 16.0983 145.355 13.818C144.595 11.5377 137.378 7.55453 136.241 7.17518C135.103 6.79583 131.176 11.9508 129.024 14.4629C126.872 16.9751 132.441 6.54714 132.569 5.03817C132.696 3.5292 130.417 4.15724 128.769 6.54714C127.122 8.93705 124.1 13.9613 125.352 10.3154C126.605 6.66938 129.275 3.40275 129.275 2.39537C129.276 2.30061 129.267 2.20597 129.249 2.11296L128.494 1.62402C128.494 1.62402 124.966 6.56822 123.098 10.054C121.23 13.5398 120.19 17.8855 118.739 19.9466C117.287 22.0078 111.059 24.0689 109.608 27.7739C108.156 31.4789 107.74 38.2861 107.74 38.2861L100.901 48.2293C100.901 48.2293 100.583 48.6508 103.643 49.2409C106.704 49.831 112.711 53.987 115.283 57.5149C117.856 61.0429 118.713 67.7321 118.713 67.7321C118.713 67.7321 120.063 69.5572 121.162 68.7057C122.262 67.8543 122.754 65.0556 125.331 62.7457C127.908 60.4359 132.925 52.2841 132.925 52.2841C132.925 52.2841 136.601 54.9606 140.142 51.9174C143.682 48.8742 148.963 35.2513 152.147 31.4831C152.771 30.7455 153.45 29.932 154.15 29.1058C154.18 29.051 154.193 28.9878 154.214 28.9204Z" fill="#263238"/>
<path d="M120.526 69.1608C120.464 69.165 120.401 69.165 120.339 69.1608C119.397 69.0301 118.577 67.9342 118.543 67.8963C118.522 67.8664 118.509 67.8316 118.505 67.7951C118.505 67.7319 117.622 61.1186 115.109 57.6791C112.664 54.3071 106.751 50.1174 103.605 49.4894C100.901 48.9541 100.753 48.5621 100.702 48.4188C100.682 48.3736 100.675 48.324 100.681 48.2751C100.687 48.2262 100.706 48.1798 100.736 48.1406L107.528 38.2564C107.574 37.5778 108.028 31.2553 109.408 27.7189C110.317 25.3964 112.961 23.7526 115.296 22.3026C116.756 21.4006 118.017 20.6166 118.56 19.8453C119.312 18.7831 119.97 17.0423 120.683 15.2088C121.317 13.4251 122.063 11.6824 122.916 9.99061C124.771 6.51745 128.294 1.56061 128.328 1.51846C128.36 1.47411 128.408 1.44365 128.461 1.43344C128.515 1.42323 128.571 1.43406 128.617 1.46367L129.372 1.95261C129.42 1.98391 129.453 2.03224 129.466 2.08749C129.487 2.19442 129.496 2.30315 129.495 2.41204C129.495 2.92206 128.965 3.82828 128.222 5.08014C127.162 6.76257 126.27 8.54421 125.56 10.3995C125.464 10.6677 125.382 10.9406 125.314 11.2172C125.798 10.6692 126.804 9.15183 127.505 8.08543C127.895 7.49112 128.277 6.91788 128.604 6.44158C129.878 4.60384 131.457 3.79878 132.259 4.0854C132.449 4.16275 132.606 4.3036 132.703 4.48365C132.8 4.66371 132.831 4.87168 132.79 5.07171C132.73 5.75875 131.707 7.97584 130.625 10.3194C129.945 11.7904 129.13 13.5481 128.85 14.3658L128.871 14.3447C129.27 13.8768 129.72 13.3205 130.226 12.7219C133.167 9.16026 135.32 6.66076 136.313 6.98953C137.531 7.41103 144.773 11.4321 145.563 13.7841C146.246 15.8242 142.774 21.5987 141.742 23.2257C142.112 23.015 142.753 22.4291 143.644 20.7894C145.274 17.801 147.095 16.1529 148.768 16.1529C150.287 16.1529 153.616 17.4174 154.036 18.9475C154.278 19.8242 153.484 21.0171 152.567 22.3911C151.845 23.3976 151.231 24.477 150.737 25.6114C150.67 25.7647 150.625 25.9263 150.602 26.0919C151.252 25.6974 151.861 25.2385 152.418 24.722C153.467 23.8411 154.541 22.9307 155.186 22.8169C155.298 22.7855 155.416 22.7855 155.528 22.8167C155.639 22.848 155.74 22.9093 155.819 22.9939C156.281 23.5292 155.819 24.9749 154.995 27.289C154.796 27.858 154.592 28.4397 154.414 28.975C154.414 29.0129 154.414 29.0508 154.384 29.0846L154.363 29.1689C154.354 29.198 154.339 29.2252 154.32 29.249C153.624 30.092 152.941 30.8886 152.317 31.6262C150.92 33.2785 149.116 36.8528 147.223 40.6337C144.807 45.4177 142.311 50.3661 140.299 52.0858C137.128 54.8003 133.821 53.089 133.002 52.5874C132.221 53.8519 127.861 60.7687 125.48 62.9099C124.267 64.0622 123.287 65.4342 122.593 66.9521C122.143 67.8204 121.791 68.5033 121.32 68.8784C121.097 69.0627 120.816 69.1627 120.526 69.1608ZM118.917 67.6645C119.065 67.8541 119.723 68.6381 120.398 68.7309C120.511 68.7457 120.625 68.7381 120.734 68.7084C120.844 68.6787 120.946 68.6276 121.035 68.558C121.46 68.2377 121.782 67.5886 122.207 66.7667C122.92 65.2039 123.929 63.7916 125.178 62.6065C127.7 60.3388 132.683 52.2713 132.734 52.1912C132.75 52.1667 132.77 52.1455 132.794 52.129C132.818 52.1124 132.845 52.1009 132.874 52.095C132.902 52.089 132.932 52.0889 132.96 52.0946C132.989 52.1003 133.016 52.1116 133.04 52.128C133.184 52.2333 136.627 54.657 140.006 51.7739C141.95 50.109 144.429 45.2027 146.824 40.4524C148.747 36.6589 150.559 33.0551 151.99 31.3649L153.959 29.0256V28.9961C153.968 28.9487 153.981 28.9022 153.998 28.857C154.176 28.2964 154.38 27.7105 154.583 27.1372C155.127 25.5777 155.81 23.6346 155.483 23.2552C155.483 23.2552 155.42 23.1878 155.25 23.2173C154.723 23.3142 153.59 24.2668 152.677 25.0339C151.2 26.2984 150.653 26.6904 150.313 26.4502C150.058 26.2732 150.169 25.8643 150.313 25.4512C150.815 24.2861 151.443 23.1781 152.185 22.1467C153.009 20.9075 153.785 19.7399 153.599 19.0444C153.259 17.8137 150.237 16.5618 148.738 16.5618C147.24 16.5618 145.546 18.1677 144.022 20.9749C142.366 24.0097 141.398 23.7821 141.22 23.7062C141.191 23.6953 141.166 23.6778 141.145 23.6551C141.124 23.6324 141.109 23.6051 141.101 23.5756C141.091 23.5464 141.088 23.5153 141.091 23.4846C141.095 23.4539 141.106 23.4245 141.123 23.3985C142.447 21.3585 145.75 15.6809 145.151 13.9021C144.434 11.7651 137.285 7.7398 136.173 7.3731C135.379 7.11177 132.352 10.7788 130.544 12.9706C130.047 13.5734 129.585 14.1297 129.186 14.6018C128.914 14.9179 128.672 15.1666 128.443 15.0233C128.141 14.8336 128.26 14.3911 130.23 10.1255C131.202 8.01799 132.306 5.6323 132.352 5.02113C132.378 4.71765 132.293 4.53219 132.102 4.46475C131.563 4.27086 130.124 4.94526 128.939 6.66498C128.617 7.13706 128.239 7.7103 127.848 8.3004C125.777 11.4364 125.352 11.9548 125 11.782C124.775 11.6766 124.741 11.4195 125.149 10.2477C125.865 8.36371 126.768 6.55502 127.844 4.84831C128.498 3.74398 129.058 2.79139 129.058 2.39518C129.063 2.34329 129.063 2.29112 129.058 2.23923L128.566 1.91046C126.67 4.57286 124.913 7.3303 123.302 10.1719C122.454 11.8475 121.714 13.5749 121.086 15.3437C120.377 17.2109 119.711 18.977 118.93 20.0855C118.335 20.9285 117.041 21.7294 115.534 22.6567C113.258 24.0729 110.673 25.6746 109.816 27.8706C108.389 31.504 107.965 38.248 107.961 38.3154C107.958 38.3534 107.945 38.3899 107.922 38.4208L101.13 48.2797C101.258 48.385 101.763 48.6717 103.677 49.051C106.904 49.6917 112.953 53.9868 115.449 57.4052C117.945 60.8235 118.824 66.9606 118.917 67.6645Z" fill="#263238"/>
<path d="M120.372 24.8027C120.329 24.8023 120.287 24.7888 120.252 24.764C120.216 24.7392 120.19 24.7043 120.175 24.664C120.16 24.6236 120.158 24.5798 120.169 24.5383C120.18 24.4968 120.204 24.4596 120.236 24.4318C121.323 23.555 121.934 22.9101 122.198 22.4086C123.233 20.3516 125.322 14.7836 125.343 14.7288C125.362 14.6763 125.402 14.6335 125.453 14.6098C125.504 14.5861 125.562 14.5834 125.615 14.6024C125.667 14.6232 125.71 14.6632 125.734 14.7141C125.757 14.7651 125.76 14.8232 125.742 14.8764C125.721 14.9312 123.62 20.5202 122.58 22.594C122.291 23.163 121.654 23.829 120.504 24.7563C120.467 24.7877 120.42 24.8043 120.372 24.8027Z" fill="white"/>
<path d="M109.497 42.2862C109.461 42.2859 109.426 42.2772 109.395 42.2609C109.346 42.2335 109.31 42.1879 109.295 42.1342C109.28 42.0804 109.287 42.023 109.314 41.9743L110.749 39.3989C110.847 38.8341 111.857 33.0301 113.262 30.4926C114.039 29.0975 116.136 27.5421 118.169 26.0121L118.424 25.8224C118.469 25.7889 118.526 25.7745 118.581 25.7824C118.637 25.7903 118.687 25.8199 118.721 25.8646C118.755 25.9093 118.769 25.9655 118.762 26.0208C118.754 26.0762 118.724 26.1261 118.679 26.1596L118.424 26.3493C116.429 27.8372 114.366 29.3799 113.636 30.695C112.222 33.224 111.174 39.4411 111.161 39.5043C111.156 39.5273 111.149 39.5499 111.14 39.5718L109.684 42.1766C109.666 42.2102 109.639 42.2382 109.606 42.2575C109.573 42.2768 109.535 42.2868 109.497 42.2862Z" fill="white"/>
<path d="M106.22 48.1626C106.185 48.1622 106.15 48.1536 106.118 48.1373C106.07 48.1098 106.033 48.0645 106.018 48.011C106.002 47.9575 106.007 47.9 106.033 47.8507L108.288 43.8169C108.299 43.7895 108.316 43.7647 108.338 43.7443C108.359 43.7239 108.385 43.7083 108.413 43.6984C108.442 43.6886 108.472 43.6848 108.501 43.6873C108.531 43.6897 108.56 43.6984 108.586 43.7127C108.612 43.7271 108.635 43.7467 108.653 43.7705C108.671 43.7942 108.684 43.8214 108.691 43.8503C108.697 43.8792 108.698 43.9092 108.692 43.9383C108.686 43.9675 108.674 43.995 108.657 44.0192L106.407 48.0572C106.388 48.0897 106.361 48.1166 106.328 48.1351C106.295 48.1536 106.258 48.1631 106.22 48.1626Z" fill="white"/>
<path d="M134.317 18.8129C134.277 18.8115 134.237 18.7999 134.203 18.7792C134.155 18.7489 134.122 18.7013 134.11 18.6468C134.098 18.5923 134.109 18.5353 134.139 18.4883C135.238 16.7686 135.867 15.6263 135.871 15.6137C135.899 15.5652 135.944 15.5293 135.998 15.5136C136.052 15.4979 136.11 15.5035 136.16 15.5294C136.184 15.5426 136.206 15.5606 136.223 15.5821C136.241 15.6037 136.254 15.6286 136.262 15.6552C136.27 15.6818 136.272 15.7097 136.269 15.7373C136.266 15.7649 136.258 15.7917 136.245 15.816C136.245 15.816 135.604 16.9836 134.496 18.7159C134.477 18.7459 134.45 18.7705 134.419 18.7875C134.388 18.8045 134.353 18.8132 134.317 18.8129Z" fill="white"/>
<path d="M111.612 50.5145C111.582 50.5185 111.552 50.5185 111.522 50.5145C111.471 50.4907 111.431 50.4477 111.411 50.3949C111.391 50.3421 111.393 50.2836 111.416 50.2321L115.36 41.4902C115.39 41.3385 116.434 36.879 118.675 34.135C119.656 32.9296 121.052 31.9685 122.674 30.8558C124.796 29.389 127.225 27.7282 129.466 24.9969C130.561 23.6566 131.644 22.2108 132.688 20.7061C132.703 20.6818 132.723 20.6608 132.747 20.6444C132.77 20.628 132.797 20.6166 132.825 20.6108C132.854 20.605 132.883 20.605 132.911 20.6107C132.939 20.6165 132.966 20.6278 132.989 20.6441C133.013 20.6605 133.033 20.6814 133.048 20.7057C133.064 20.7299 133.074 20.757 133.078 20.7853C133.082 20.8136 133.081 20.8424 133.074 20.8701C133.067 20.8978 133.054 20.9237 133.036 20.9463C131.988 22.4595 130.914 23.8968 129.797 25.2625C127.53 28.0402 125.085 29.7177 122.929 31.2014C121.333 32.2973 119.957 33.2415 119.019 34.4006C116.837 37.0687 115.784 41.5661 115.772 41.6209L111.815 50.405C111.796 50.4412 111.766 50.471 111.73 50.4905C111.694 50.51 111.653 50.5184 111.612 50.5145Z" fill="white"/>
<path d="M130.263 34.9817C130.222 34.9814 130.182 34.9681 130.149 34.9438C130.125 34.9289 130.105 34.9094 130.089 34.8866C130.073 34.8638 130.062 34.838 130.057 34.8109C130.051 34.7837 130.051 34.7558 130.057 34.7287C130.062 34.7015 130.073 34.6758 130.089 34.653C133.855 29.106 138.842 21.675 138.893 21.5865C138.908 21.5631 138.928 21.5431 138.951 21.5274C138.974 21.5117 139 21.5008 139.027 21.4953C139.055 21.4898 139.083 21.4898 139.11 21.4954C139.137 21.5009 139.163 21.5118 139.186 21.5274C139.233 21.5583 139.265 21.6062 139.276 21.6607C139.287 21.7152 139.276 21.7718 139.246 21.8183C139.195 21.8941 134.207 29.3252 130.442 34.8848C130.422 34.9139 130.395 34.938 130.364 34.9548C130.333 34.9717 130.299 34.9809 130.263 34.9817Z" fill="white"/>
<path d="M116.081 53.9199C116.04 53.9198 116 53.9081 115.966 53.8862C115.942 53.872 115.921 53.853 115.904 53.8305C115.888 53.808 115.876 53.7824 115.87 53.7552C115.863 53.728 115.863 53.6999 115.867 53.6724C115.872 53.6449 115.883 53.6187 115.898 53.5954L121.684 44.5879C121.707 44.5516 121.742 44.5236 121.782 44.5078C121.803 44.5078 124.015 43.5384 127.339 38.7122C127.763 38.1053 128.243 37.3971 128.773 36.6047C128.789 36.5817 128.809 36.562 128.832 36.5468C128.856 36.5315 128.882 36.5209 128.909 36.5156C128.936 36.5103 128.965 36.5104 128.992 36.516C129.019 36.5215 129.045 36.5323 129.068 36.5478C129.092 36.5633 129.111 36.5832 129.127 36.6063C129.142 36.6294 129.153 36.6553 129.158 36.6825C129.163 36.7097 129.163 36.7377 129.158 36.7648C129.152 36.792 129.141 36.8178 129.126 36.8408C128.591 37.6205 128.107 38.3329 127.691 38.9483C124.554 43.5005 122.406 44.6807 122.007 44.8703L116.255 53.8103C116.237 53.8415 116.212 53.8679 116.182 53.887C116.151 53.9062 116.117 53.9175 116.081 53.9199Z" fill="white"/>
<path d="M146.055 25.0132C146.017 25.0139 145.98 25.0037 145.949 24.9837C145.9 24.9547 145.865 24.9081 145.851 24.8537C145.836 24.7994 145.844 24.7416 145.872 24.6928L147.57 21.873C147.584 21.8487 147.603 21.8274 147.625 21.8103C147.648 21.7933 147.673 21.7808 147.7 21.7736C147.728 21.7665 147.756 21.7648 147.784 21.7686C147.812 21.7725 147.839 21.7818 147.863 21.7961C147.887 21.8104 147.908 21.8293 147.925 21.8517C147.942 21.8742 147.954 21.8998 147.961 21.927C147.967 21.9541 147.969 21.9824 147.964 22.01C147.96 22.0377 147.95 22.0642 147.935 22.088L146.237 24.912C146.218 24.9428 146.191 24.9682 146.159 24.9859C146.127 25.0036 146.091 25.013 146.055 25.0132Z" fill="white"/>
<path d="M125.662 51.7658C125.621 51.7654 125.582 51.7538 125.548 51.7321C125.515 51.7105 125.488 51.6798 125.471 51.6436C125.454 51.6074 125.448 51.5672 125.453 51.5276C125.458 51.4881 125.475 51.4508 125.5 51.4201L128.404 47.947C128.418 47.9321 128.433 47.9193 128.451 47.909L134.084 44.2799L144.565 26.9015C144.578 26.8754 144.596 26.8523 144.619 26.8337C144.642 26.8151 144.668 26.8013 144.696 26.7933C144.724 26.7853 144.754 26.7831 144.783 26.7871C144.812 26.791 144.84 26.8009 144.865 26.8161C144.89 26.8314 144.912 26.8516 144.929 26.8755C144.945 26.8995 144.957 26.9266 144.963 26.9552C144.968 26.9839 144.968 27.0133 144.962 27.0418C144.955 27.0703 144.943 27.0971 144.925 27.1206L134.423 44.537C134.406 44.5645 134.383 44.5876 134.355 44.6045L128.731 48.242L125.848 51.6899C125.825 51.7156 125.796 51.7358 125.764 51.7489C125.731 51.762 125.697 51.7678 125.662 51.7658Z" fill="white"/>
<path d="M120.153 58.346C120.103 58.3451 120.055 58.3273 120.017 58.2954C119.995 58.2779 119.977 58.2563 119.964 58.2319C119.951 58.2075 119.944 58.1807 119.941 58.1532C119.939 58.1257 119.942 58.098 119.951 58.0718C119.959 58.0455 119.973 58.0212 119.991 58.0004L124.156 53.0267C124.191 52.9839 124.242 52.9568 124.298 52.9512C124.354 52.9457 124.409 52.9622 124.453 52.9972C124.495 53.0339 124.522 53.0853 124.527 53.1409C124.533 53.1966 124.517 53.2522 124.482 53.2964L120.318 58.2701C120.298 58.2942 120.273 58.3135 120.244 58.3266C120.215 58.3397 120.184 58.3464 120.153 58.346Z" fill="white"/>
<path d="M147.889 33.3926C147.864 33.3965 147.838 33.3965 147.813 33.3926C147.787 33.3824 147.763 33.3672 147.743 33.3479C147.723 33.3286 147.707 33.3055 147.696 33.2801C147.685 33.2546 147.679 33.2273 147.679 33.1996C147.678 33.1719 147.683 33.1444 147.694 33.1186C148.793 30.4463 149.54 29.5907 149.57 29.5569C149.608 29.5178 149.66 29.4946 149.714 29.4924C149.769 29.4901 149.822 29.5089 149.863 29.5447C149.904 29.5806 149.93 29.6308 149.935 29.6849C149.939 29.739 149.923 29.7928 149.888 29.8351C149.888 29.8351 149.15 30.6781 148.089 33.2788C148.069 33.3145 148.041 33.3441 148.005 33.3642C147.97 33.3843 147.93 33.3942 147.889 33.3926Z" fill="white"/>
<path d="M121.863 64.3477C121.819 64.3475 121.776 64.3343 121.74 64.3098C121.695 64.2768 121.664 64.2276 121.654 64.1725C121.645 64.1174 121.657 64.0608 121.689 64.0147C122.687 62.6238 131.453 50.396 132.264 49.865C132.586 49.6542 133.329 49.6921 134.615 49.7806C136.509 49.9113 139.102 50.0926 139.968 48.9967C141.212 47.4287 144.638 40.7184 146.425 36.4065C146.435 36.3807 146.45 36.3572 146.47 36.3373C146.489 36.3175 146.513 36.3016 146.538 36.2906C146.564 36.2797 146.591 36.2738 146.619 36.2735C146.647 36.2731 146.675 36.2782 146.701 36.2884C146.753 36.3107 146.794 36.3523 146.815 36.4043C146.837 36.4563 146.837 36.5146 146.815 36.5666C144.999 40.9924 141.586 47.6352 140.304 49.258C139.297 50.5225 136.576 50.3412 134.586 50.2021C133.669 50.1389 132.714 50.0715 132.497 50.2021C131.941 50.5689 125.938 58.8008 122.037 64.2423C122.02 64.2732 121.995 64.2992 121.964 64.3176C121.934 64.3361 121.899 64.3464 121.863 64.3477Z" fill="white"/>
<path d="M43.2666 121.453C43.2666 121.453 46.2678 117.52 47.588 114.182C48.9082 110.843 49.6299 107.859 51.0689 106.789C52.508 105.718 60.5565 100.824 61.5159 98.4428C62.4752 96.0613 63.7997 92.4786 65.5995 90.5734C67.3994 88.6682 78.3345 78.4131 85.6529 68.6554C92.9713 58.8977 98.3879 52.5625 99.3388 50.7712C99.784 49.8924 100.307 49.0546 100.901 48.2674C100.901 48.2674 105.464 46.3623 112.549 52.082C119.634 57.8018 120.475 62.6954 120.475 64.4826V66.8682L89.7324 95.3617L52.8688 125.528C50.9077 125.397 49.0108 124.781 47.3503 123.737C46.0286 122.908 44.6656 122.145 43.2666 121.453Z" fill="white"/>
<path d="M52.8687 125.718C52.7668 125.718 50.2537 125.718 47.2398 123.897C44.2895 122.144 43.1901 121.651 43.1773 121.647C43.1482 121.633 43.1224 121.614 43.102 121.59C43.0815 121.565 43.0668 121.537 43.0591 121.506C43.0513 121.475 43.0507 121.443 43.0572 121.412C43.0637 121.381 43.0772 121.351 43.0967 121.326C43.1264 121.288 46.0936 117.377 47.3884 114.102C47.7195 113.259 48.0081 112.466 48.2883 111.691C49.1373 109.326 49.8123 107.476 50.9414 106.633C51.2428 106.409 51.8244 106.022 52.5545 105.537C55.3605 103.674 60.5818 100.209 61.3205 98.3713L61.5921 97.6927C62.5133 95.3745 63.7783 92.2132 65.4424 90.4387C65.7735 90.0889 66.3975 89.4693 67.2635 88.6136C71.2368 84.681 79.4976 76.5039 85.483 68.5165C89.0106 63.8083 92.1519 59.8252 94.4484 56.9126C96.9954 53.6966 98.6637 51.5722 99.1519 50.6617C99.602 49.7723 100.133 48.9257 100.74 48.1327C100.761 48.1063 100.788 48.0859 100.82 48.0737C101.011 47.9937 105.579 46.1812 112.681 51.922C120.109 57.92 120.687 63.0538 120.687 64.4827V66.8684C120.687 66.897 120.681 66.9254 120.669 66.9515C120.658 66.9777 120.64 67.0011 120.619 67.0202L89.8808 95.5178L53.0045 125.668C52.9672 125.701 52.9187 125.719 52.8687 125.718ZM43.5891 121.36C44.0476 121.588 45.2149 122.203 47.4563 123.526C49.071 124.523 50.9015 125.125 52.7965 125.28L89.6006 95.1679L120.262 66.742V64.4574C120.262 63.0749 119.693 58.1054 112.413 52.2339C105.91 46.9778 101.529 48.2592 101.032 48.4404C100.464 49.2076 99.9603 50.0196 99.5255 50.8683C99.0203 51.8124 97.335 53.9494 94.7838 57.1908C92.4873 60.0991 89.3459 64.0781 85.8226 68.7863C79.8202 76.7948 71.5424 84.9887 67.5691 88.9297C66.7201 89.7727 66.0833 90.3965 65.7565 90.7422C64.1476 92.4282 62.8996 95.5768 61.9912 97.8655L61.7195 98.5441C60.9299 100.5 55.8402 103.88 52.805 105.899C52.0748 106.384 51.5018 106.763 51.2089 106.983C50.1816 107.745 49.5109 109.651 48.7001 111.855C48.4199 112.635 48.1312 113.44 47.7959 114.283C46.637 117.145 44.2216 120.517 43.5891 121.36Z" fill="#263238"/>
<path d="M91.7832 134.92C91.7832 134.92 93.4048 133.407 94.7547 133.597C96.1046 133.786 96.372 134.44 96.5631 136.998C96.7541 139.557 96.6565 142.01 95.7141 143.047C94.7717 144.083 93.5237 145.504 93.5237 145.504C93.5237 145.504 94.1901 139.363 94.0967 137.567C94.0033 135.771 91.7832 134.92 91.7832 134.92Z" fill="white"/>
<path d="M93.4984 145.714C93.4705 145.72 93.4414 145.72 93.4135 145.714C93.372 145.696 93.3373 145.666 93.3143 145.627C93.2914 145.588 93.2816 145.543 93.2861 145.499C93.2861 145.435 93.9526 139.349 93.8592 137.591C93.7701 135.956 91.7367 135.138 91.707 135.13C91.6734 135.117 91.6436 135.096 91.6205 135.069C91.5975 135.042 91.5819 135.009 91.5754 134.974C91.5694 134.939 91.5721 134.903 91.5831 134.869C91.5942 134.835 91.6134 134.805 91.6391 134.78C91.707 134.717 93.3371 133.204 94.7676 133.402C96.2661 133.617 96.5675 134.443 96.7586 136.997C96.9963 140.243 96.6991 142.27 95.8459 143.206C94.9077 144.23 93.6724 145.646 93.6597 145.659C93.6378 145.678 93.6123 145.693 93.5846 145.702C93.5569 145.712 93.5276 145.716 93.4984 145.714ZM92.1739 134.847C92.8107 135.168 94.2031 136.036 94.2964 137.537C94.3898 139.037 93.9653 143.202 93.7955 144.845C94.2455 144.34 94.9544 143.535 95.5487 142.89C96.3086 142.047 96.5803 140.074 96.351 136.989C96.1515 134.329 95.8416 133.937 94.7209 133.777C93.7786 133.671 92.6579 134.472 92.1739 134.847Z" fill="#263238"/>
<path d="M81.4082 156.563C81.4082 156.563 84.2651 157.697 85.9758 156.66C87.6866 155.623 88.8327 152.407 89.3081 151.556C89.7836 150.704 92.9249 149.381 93.498 145.503C94.071 141.625 95.7818 136.807 95.5908 135.484C95.3997 134.16 93.1159 134.068 91.7703 134.919C90.4246 135.771 90.4373 136.335 89.8685 137.566C89.2997 138.797 87.296 148.622 86.3451 149.474C85.3943 150.325 82.7284 151.084 82.3463 152.593C81.9643 154.102 81.4082 156.563 81.4082 156.563Z" fill="white"/>
<path d="M84.1419 157.31C83.1795 157.284 82.2282 157.099 81.3275 156.762C81.2803 156.743 81.2414 156.708 81.2181 156.663C81.1947 156.618 81.1883 156.566 81.2001 156.517C81.2001 156.492 81.7775 154.039 82.1553 152.543C82.4269 151.451 83.7174 150.764 84.8593 150.153C85.3385 149.918 85.7922 149.636 86.2135 149.31C86.7611 148.821 87.8436 144.467 88.561 141.584C88.8646 140.194 89.2401 138.821 89.6859 137.47C89.7963 137.229 89.8854 137.019 89.9661 136.825C90.3007 135.846 91.012 135.039 91.9444 134.58C92.8768 134.121 93.9543 134.048 94.9412 134.376C95.1647 134.465 95.3608 134.611 95.5098 134.799C95.6588 134.986 95.7555 135.21 95.7902 135.446C95.8963 136.188 95.4761 137.824 94.9412 139.893C94.4785 141.68 93.9606 143.708 93.6889 145.529C93.2644 148.441 91.4009 149.967 90.2929 150.882C89.9888 151.098 89.7173 151.357 89.4864 151.649C89.3887 151.818 89.2614 152.104 89.1086 152.437C88.5015 153.761 87.4912 155.974 86.0776 156.829C85.4893 157.163 84.8194 157.33 84.1419 157.31ZM81.6543 156.433C82.2826 156.648 84.4942 157.314 85.8654 156.479C87.1644 155.691 88.1449 153.55 88.7308 152.264C88.8921 151.91 89.0194 151.628 89.1213 151.442C89.3763 151.101 89.6844 150.802 90.034 150.557C91.1674 149.626 92.8824 148.222 93.2899 145.466C93.6165 143.553 94.0415 141.658 94.5634 139.788C95.06 137.845 95.493 136.163 95.4124 135.505C95.3851 135.338 95.3133 135.18 95.2044 135.049C95.0955 134.918 94.9533 134.818 94.7926 134.759C94.3209 134.597 93.8182 134.542 93.3221 134.599C92.826 134.656 92.3492 134.823 91.9272 135.088C91.1877 135.5 90.6371 136.18 90.3906 136.985C90.3057 137.183 90.2165 137.406 90.1019 137.647C89.8981 138.068 89.4821 139.754 89.0024 141.685C87.9666 145.858 87.1261 149.09 86.5276 149.626C86.0819 149.973 85.5994 150.272 85.0885 150.515C84.0273 151.084 82.8217 151.725 82.5925 152.623C82.2486 153.904 81.7944 155.834 81.6543 156.433Z" fill="#263238"/>
<path d="M93.3071 142.435C93.2631 142.435 93.2203 142.421 93.184 142.397L92.6915 142.047C91.9656 141.533 92.5302 137.276 92.5345 137.229C92.5351 137.056 92.5789 136.886 92.6618 136.734C92.7448 136.582 92.8643 136.452 93.0099 136.357C93.1048 136.31 93.2094 136.285 93.3155 136.285C93.4216 136.285 93.5263 136.31 93.6212 136.357C93.6707 136.384 93.7075 136.429 93.7234 136.483C93.7393 136.536 93.7331 136.594 93.7061 136.643C93.6791 136.693 93.6335 136.729 93.5793 136.745C93.5252 136.761 93.467 136.755 93.4174 136.728C93.3828 136.712 93.3452 136.704 93.3071 136.704C93.2689 136.704 93.2313 136.712 93.1967 136.728C93.1288 136.761 93.0099 136.879 92.9547 137.28C92.7128 139.08 92.6576 141.474 92.9547 141.697L93.4471 142.047C93.47 142.063 93.4894 142.083 93.5044 142.106C93.5193 142.129 93.5294 142.155 93.5342 142.182C93.5389 142.209 93.5382 142.237 93.532 142.263C93.5258 142.29 93.5143 142.316 93.4981 142.338C93.4781 142.37 93.4498 142.396 93.4161 142.413C93.3825 142.43 93.3448 142.437 93.3071 142.435Z" fill="#263238"/>
<path d="M94.2238 136.479C94.1774 136.478 94.1325 136.463 94.0959 136.435C94.0593 136.406 94.033 136.367 94.0209 136.323C94.0089 136.278 94.0119 136.231 94.0293 136.189C94.0468 136.146 94.0778 136.11 94.1176 136.087L95.4845 135.303C95.5336 135.275 95.5918 135.267 95.6465 135.281C95.7013 135.296 95.7483 135.33 95.7774 135.379C95.7916 135.403 95.8008 135.429 95.8044 135.457C95.808 135.484 95.806 135.512 95.7985 135.539C95.791 135.566 95.7781 135.591 95.7606 135.612C95.7431 135.634 95.7214 135.652 95.6968 135.665L94.3299 136.449C94.2982 136.469 94.2613 136.479 94.2238 136.479Z" fill="#263238"/>
<path d="M57.6059 153.444C57.6059 153.444 60.9382 159.399 63.1244 160.061C65.3106 160.723 70.8333 161.292 72.1663 161.574C73.4992 161.857 77.7824 163.749 79.6884 161.764C81.5944 159.779 82.9273 156.091 83.5938 154.013C84.2603 151.935 85.2111 149.76 85.2111 149.76L56.8418 151.176L57.6059 153.444Z" fill="#E0E0E0"/>
<path d="M77.1715 162.874C75.7803 162.799 74.4074 162.524 73.0963 162.056C72.7015 161.938 72.3619 161.833 72.1284 161.782C71.6742 161.685 70.7021 161.55 69.5814 161.398C67.3273 161.087 64.5256 160.703 63.0738 160.265C60.8282 159.586 57.5553 153.795 57.428 153.55V153.512L56.6639 151.244C56.6531 151.214 56.6498 151.181 56.6543 151.149C56.6587 151.117 56.6707 151.086 56.6894 151.059C56.708 151.032 56.7327 151.01 56.7613 150.994C56.79 150.978 56.822 150.968 56.8549 150.966L85.2242 149.55C85.2606 149.546 85.2974 149.552 85.3304 149.568C85.3634 149.583 85.3914 149.608 85.411 149.639C85.4289 149.67 85.4383 149.706 85.4383 149.742C85.4383 149.778 85.4289 149.814 85.411 149.845C85.411 149.866 84.4559 152.033 83.7979 154.06C82.6136 157.761 81.2849 160.383 79.8458 161.892C79.4931 162.231 79.0732 162.493 78.6128 162.662C78.1523 162.831 77.6615 162.903 77.1715 162.874ZM57.8016 153.36C57.9968 153.71 61.1636 159.261 63.1885 159.86C64.6063 160.281 67.5099 160.703 69.6281 160.981C70.8125 161.141 71.7506 161.268 72.2176 161.369C72.468 161.424 72.8161 161.529 73.2236 161.656C75.0363 162.212 78.0714 163.148 79.5402 161.618C80.9113 160.189 82.2443 157.537 83.3947 153.951C83.9083 152.345 84.6002 150.663 84.8889 149.988L57.1351 151.375L57.8016 153.36Z" fill="#263238"/>
<path d="M75.2956 53.2659C75.2956 53.2659 74.8371 50.4124 74.6164 49.561C74.3956 48.7095 72.1373 45.2153 71.3392 44.8612L70.5454 44.5114C70.5454 44.5114 67.697 32.1404 65.9354 28.9918C64.1737 25.8432 61.6904 24.2077 60.7649 23.8579C59.8395 23.508 57.942 17.5354 57.2374 15.803C56.5327 14.0707 55.2422 7.17071 50.5387 6.00315C45.8353 4.8356 40.5503 12.8862 38.9032 14.9895C37.2561 17.0928 41.6073 7.75238 41.1191 4.60377C40.6309 1.45517 36.4496 -3.91896 23.9778 7.17071C11.506 18.2604 11.0518 20.7051 12.58 23.1498C14.1082 25.5945 22.3435 14.9811 20.9214 18.8294C19.4993 22.6777 15.2798 27.584 14.2228 31.3184C13.1658 35.0529 14.3416 37.5019 15.751 38.2015C17.1603 38.9012 20.3398 39.466 20.3398 39.466C20.3398 39.466 23.5957 39.3607 24.6824 40.0856L25.7692 40.8148L33.7413 47.719C33.7413 47.719 34.7176 51.5968 34.9087 52.6885C35.0997 53.7802 35.8468 57.2407 36.6703 57.9404C37.4939 58.6401 44.7655 62.0332 44.7655 62.0332C44.9515 63.1745 45.4848 64.2321 46.2937 65.0637C47.1072 65.8436 48.0949 66.4213 49.1761 66.7497C49.1761 66.7497 50.5387 58.6401 58.7656 55.7233C63.6655 53.9729 68.8404 53.1036 74.0476 53.1564L75.2956 53.2659Z" fill="#6BAADE"/>
<path d="M49.1842 66.9527C49.1617 66.9568 49.1387 66.9568 49.1163 66.9527C48.0287 66.5617 47.0219 65.9775 46.1448 65.2288C45.2813 64.4194 44.7226 63.3411 44.5614 62.1729C44.0605 61.9116 41.6705 60.6766 38.3934 59.1971C35.4431 57.8694 35.2479 56.2256 35.0908 54.9021C35.0635 54.5487 34.9966 54.1995 34.8913 53.8609C34.6523 53.0352 34.4959 52.1881 34.4243 51.3319C34.2418 49.9284 34.038 48.3351 33.5753 47.8841C33.2315 47.5469 31.9155 46.4383 30.5189 45.2666C28.3964 43.492 25.998 41.4731 25.5862 40.963C24.9665 40.1917 21.8421 39.5257 20.3479 39.6985C18.5438 39.8966 11.2806 37.9662 8.41946 29.6205C5.61776 21.4307 0.99071 20.3475 0.944015 20.3475C0.916639 20.3415 0.890727 20.3302 0.867773 20.3142C0.84482 20.2983 0.825278 20.2779 0.81028 20.2544C0.795283 20.2309 0.785124 20.2047 0.780391 20.1772C0.775657 20.1498 0.776446 20.1217 0.782706 20.0946C0.788233 20.0676 0.799149 20.0419 0.814814 20.0192C0.83048 19.9964 0.850575 19.977 0.873917 19.9621C0.897259 19.9471 0.923373 19.937 0.950722 19.9322C0.978071 19.9275 1.0061 19.9282 1.03316 19.9344C1.23267 19.9766 5.93189 21.0682 8.82273 29.5025C11.7942 38.1769 19.2697 39.4077 20.2842 39.2981C21.7912 39.1337 25.1363 39.7744 25.9004 40.7228C26.2867 41.2075 28.7742 43.2939 30.7736 44.9715C32.2382 46.1981 33.5032 47.2603 33.8555 47.6101C34.4158 48.1665 34.6196 49.764 34.8191 51.3067C34.8852 52.1327 35.0273 52.951 35.2436 53.7514C35.3653 54.1201 35.4408 54.5023 35.4686 54.8894C35.6214 56.1539 35.7955 57.6207 38.525 58.8515C42.2224 60.5375 44.7906 61.8779 44.8161 61.8905C44.846 61.9077 44.8714 61.9314 44.8906 61.9599C44.9097 61.9884 44.922 62.0209 44.9265 62.0549C45.0633 63.1573 45.5774 64.1795 46.3825 64.9506C47.0995 65.5343 47.9008 66.0075 48.7597 66.3542C48.18 64.7893 48.1457 63.0767 48.6621 61.4901C49.545 58.7335 51.9604 56.3562 55.8488 54.4258C65.4171 49.6754 73.7033 52.4405 75.1424 52.9884C75.2103 52.6259 75.2358 51.6523 74.4037 49.6417C73.2533 46.8683 70.4304 44.6975 70.4007 44.6765C70.3661 44.6498 70.3408 44.6129 70.3285 44.5711C70.2564 44.3519 68.6305 39.1422 68.2825 36.7944C67.9641 34.5773 66.6269 29.8144 65.4256 27.7743C64.8355 26.7711 63.6299 25.9787 62.4541 25.2158C61.3631 24.4993 60.3316 23.8249 59.9792 23.0367C59.7627 22.5519 59.2788 21.064 58.6633 19.1841C57.3558 15.1757 55.3777 9.1145 54.2315 7.40743C52.5632 4.92058 48.8573 0.566484 48.8191 0.520119C48.7974 0.49972 48.7803 0.474993 48.7688 0.44756C48.7574 0.420126 48.7519 0.390604 48.7528 0.360928C48.7537 0.331252 48.7608 0.302092 48.7738 0.275357C48.7868 0.248623 48.8054 0.224918 48.8283 0.205795C48.8511 0.186672 48.8778 0.172563 48.9065 0.164392C48.9353 0.15622 48.9654 0.154169 48.995 0.158377C49.0246 0.162584 49.053 0.172953 49.0783 0.188804C49.1036 0.204656 49.1252 0.225631 49.1417 0.250358C49.18 0.292508 52.9028 4.66768 54.5838 7.1756C55.764 8.92904 57.7506 15.0239 59.0666 19.0535C59.6778 20.9249 60.1618 22.4002 60.3698 22.847C60.6712 23.5214 61.6433 24.1621 62.6875 24.8407C63.8422 25.5952 65.1454 26.4508 65.7864 27.5425C66.9538 29.5277 68.3334 34.1811 68.6942 36.7143C69.0083 38.8893 70.5153 43.7534 70.7021 44.3646C71.1266 44.6891 73.6736 46.7629 74.79 49.4605C75.9829 52.3393 75.5117 53.254 75.4523 53.3551C75.4256 53.3991 75.3838 53.4319 75.3346 53.4474C75.2853 53.463 75.2321 53.4601 75.1848 53.4394C75.0957 53.4015 66.3298 49.667 56.0271 54.784C52.2491 56.6597 49.9058 58.9527 49.0611 61.5955C48.5196 63.2459 48.6179 65.0376 49.337 66.6198C49.3571 66.6571 49.3655 66.6996 49.3609 66.7417C49.3564 66.7838 49.3392 66.8235 49.3116 66.8558C49.2825 66.9025 49.2372 66.9371 49.1842 66.9527Z" fill="#263238"/>
<path d="M68.172 44.2253C68.172 44.2253 66.9877 44.1578 65.2005 44.1578C65.1442 44.1578 65.0903 44.1356 65.0505 44.0961C65.0106 44.0566 64.9883 44.003 64.9883 43.9471C64.9883 43.8912 65.0106 43.8376 65.0505 43.7981C65.0903 43.7585 65.1442 43.7363 65.2005 43.7363C67.0047 43.7363 68.172 43.8038 68.2017 43.8038C68.2296 43.8054 68.2569 43.8124 68.2821 43.8246C68.3072 43.8367 68.3297 43.8536 68.3482 43.8743C68.3668 43.8951 68.381 43.9193 68.3901 43.9455C68.3992 43.9717 68.403 43.9995 68.4013 44.0272C68.3969 44.0835 68.3704 44.1358 68.3275 44.1729C68.2846 44.2099 68.2288 44.2288 68.172 44.2253Z" fill="#263238"/>
<path d="M41.2032 59.8799C41.1749 59.8783 41.1472 59.8711 41.1218 59.8587C41.0964 59.8463 41.0737 59.829 41.0551 59.8078C41.0365 59.7866 41.0224 59.7619 41.0135 59.7352C41.0047 59.7085 41.0013 59.6803 41.0036 59.6523C41.0036 59.5764 41.5894 51.7576 47.5324 47.374C51.1916 44.6722 58.0218 43.9219 63.1074 43.7617C63.1633 43.7617 63.2171 43.7832 63.2575 43.8217C63.2979 43.8602 63.3217 43.9127 63.3238 43.9683C63.325 44.0234 63.3043 44.0769 63.2662 44.1171C63.2281 44.1573 63.1756 44.181 63.1201 44.1832C58.094 44.3392 51.3572 45.0768 47.7872 47.7112C42.0012 51.9768 41.4197 59.6059 41.4197 59.6818C41.4154 59.7358 41.3907 59.7863 41.3505 59.823C41.3104 59.8597 41.2577 59.88 41.2032 59.8799Z" fill="#263238"/>
<path d="M50.1519 16.8277C50.0956 16.8433 50.0354 16.8361 49.9844 16.8077C49.9335 16.7792 49.896 16.7318 49.8802 16.6759C49.8645 16.62 49.8717 16.5602 49.9004 16.5096C49.929 16.459 49.9768 16.4218 50.0331 16.4062C51.1266 15.782 52.3025 15.3124 53.5267 15.011C53.5546 15.0055 53.5833 15.0054 53.6111 15.0109C53.639 15.0164 53.6656 15.0273 53.6892 15.0429C53.7129 15.0586 53.7332 15.0787 53.749 15.1022C53.7648 15.1256 53.7758 15.1519 53.7814 15.1796C53.787 15.2073 53.787 15.2358 53.7815 15.2635C53.776 15.2912 53.765 15.3175 53.7492 15.341C53.7335 15.3645 53.7132 15.3846 53.6896 15.4003C53.666 15.416 53.6395 15.427 53.6116 15.4325C52.43 15.7292 51.2946 16.1844 50.2368 16.7855C50.2119 16.8054 50.1829 16.8198 50.1519 16.8277Z" fill="#263238"/>
<path d="M34.8948 46.1475H34.8609C34.8332 46.1429 34.8068 46.1329 34.783 46.1181C34.7593 46.1033 34.7387 46.084 34.7225 46.0613C34.7063 46.0386 34.6949 46.0129 34.6887 45.9857C34.6826 45.9585 34.682 45.9304 34.6868 45.903C36.0398 39.3416 38.0977 32.9432 40.8251 26.8175C42.0732 23.9448 43.8957 21.3536 46.1823 19.201C46.202 19.1813 46.2255 19.1656 46.2514 19.1549C46.2772 19.1442 46.305 19.1387 46.333 19.1387C46.361 19.1387 46.3887 19.1442 46.4146 19.1549C46.4405 19.1656 46.4639 19.1813 46.4837 19.201C46.5036 19.2206 46.5194 19.2439 46.5301 19.2696C46.5409 19.2953 46.5465 19.3228 46.5465 19.3506C46.5465 19.3785 46.5409 19.406 46.5301 19.4317C46.5194 19.4574 46.5036 19.4807 46.4837 19.5003C44.2394 21.6156 42.4501 24.1608 41.2241 26.9819C38.5076 33.0751 36.461 39.4414 35.1198 45.9705C35.1106 46.0222 35.0826 46.0687 35.0411 46.1013C34.9997 46.134 34.9476 46.1504 34.8948 46.1475Z" fill="#263238"/>
<path d="M33.7708 32.87C33.7146 32.87 33.6606 32.8478 33.6208 32.8083C33.581 32.7687 33.5586 32.7151 33.5586 32.6592C33.5586 25.3251 40.4482 14.1132 40.5161 13.991C40.546 13.9435 40.5936 13.9097 40.6485 13.8971C40.7035 13.8844 40.7612 13.8939 40.8091 13.9236C40.8569 13.9532 40.8909 14.0005 40.9037 14.055C40.9164 14.1096 40.9068 14.1669 40.877 14.2144C40.8091 14.324 33.9831 25.4432 33.9831 32.6592C33.9831 32.7151 33.9607 32.7687 33.9209 32.8083C33.8811 32.8478 33.8271 32.87 33.7708 32.87Z" fill="#263238"/>
<path d="M93.6883 127.639C93.5907 126.881 93.4039 125.557 93.4039 125.557C93.4039 125.557 92.6398 114.215 92.6398 103.909C92.6398 93.6033 92.5464 89.2577 91.1158 85.7592C90.1048 83.4273 88.7935 81.2355 87.2147 79.2386C87.2147 79.2386 80.359 66.2859 78.5506 62.033C76.7423 57.78 75.2947 53.2658 75.2947 53.2658C75.2947 53.2658 71.8987 49.9359 63.0309 50.3153C54.1631 50.6946 48.7592 55.702 47.5155 59.1035C46.2717 62.5051 49.1837 66.7411 49.1837 66.7411C49.1837 66.7411 60.2207 79.2091 62.9375 81.7718C65.6543 84.3345 68.4178 92.0101 68.2565 94.7287C68.0952 97.4474 60.191 103.045 58.5864 106.885C56.9818 110.725 54.4008 118.565 51.9812 123.361C49.5615 128.158 46.6665 133.439 46.0382 135.842C45.4099 138.244 41.3687 144.478 41.2031 146.4C41.0376 148.322 43.5421 149.191 44.684 149.191C45.5158 149.17 46.344 149.075 47.1589 148.908C47.1589 148.908 46.399 150.232 49.6337 151.366C52.8684 152.5 62.1055 154.577 63.6422 154.392C65.1789 154.207 66.5925 152.782 68.4009 151.442C70.2092 150.101 80.2062 143.012 80.7793 142.653C81.3523 142.295 86.6798 138.303 88.7769 136.98C90.8739 135.656 93.1534 133.671 93.4464 131.779C93.6816 130.412 93.7627 129.024 93.6883 127.639ZM60.9381 139.833C58.7477 141.911 57.2238 145.692 57.2238 145.692C57.2238 145.692 53.607 144.369 52.8472 144.558C53.9325 143.577 54.8907 142.466 55.6998 141.25C57.2808 138.459 58.712 135.588 59.9873 132.647C60.4627 131.323 64.4615 131.513 64.4615 133.119C64.4615 134.725 63.1286 137.751 60.9381 139.833Z" fill="#E0E0E0"/>
<path d="M63.3875 154.612C61.3032 154.612 52.6901 152.669 49.5361 151.565C48.0758 151.05 47.1971 150.426 46.9254 149.706C46.8604 149.538 46.8343 149.358 46.849 149.179C46.1263 149.313 45.3936 149.388 44.6586 149.402C43.5094 149.363 42.4156 148.902 41.5894 148.108C41.3667 147.882 41.1961 147.61 41.0891 147.311C40.9821 147.013 40.9414 146.695 40.9696 146.38C41.0588 145.305 42.2432 143.071 43.4869 140.711C44.4845 138.823 45.516 136.871 45.809 135.788C46.3056 133.929 48.1225 130.405 50.054 126.675C50.6398 125.541 51.2298 124.395 51.7986 123.269C53.3651 120.159 54.9739 115.83 56.396 112.007C57.1346 110.026 57.8308 108.154 58.3954 106.805C59.1892 104.917 61.4221 102.662 63.5785 100.483C65.8369 98.1984 67.9679 96.0445 68.0485 94.7168C68.2013 92.1035 65.5652 84.5081 62.7974 81.9243C60.0297 79.3405 49.1243 66.9863 49.0139 66.8809C48.8781 66.6828 46.0424 62.4973 47.3159 59.0326C48.496 55.7871 53.8023 50.4972 63.0224 50.101C71.869 49.7217 75.3032 52.9799 75.4433 53.119C75.4688 53.1418 75.4879 53.1708 75.4985 53.2033C75.4985 53.2496 76.963 57.7555 78.7459 61.9536C80.5288 66.1517 87.3335 79.0117 87.4015 79.1424C88.9855 81.1457 90.3011 83.3446 91.3154 85.6841C92.7884 89.3005 92.852 93.8864 92.852 103.91C92.852 114.089 93.6077 125.406 93.6119 125.545C93.6119 125.545 93.8029 126.86 93.8963 127.611C93.9639 129.022 93.8685 130.436 93.6119 131.826C93.2596 134.157 90.165 136.34 88.849 137.17C87.3972 138.089 84.3153 140.336 82.4815 141.676C81.6325 142.283 81.0425 142.721 80.8642 142.839C80.3123 143.206 70.2517 150.33 68.4985 151.628C68.074 151.931 67.6834 152.239 67.3014 152.538C65.9982 153.562 64.869 154.443 63.638 154.595C63.5549 154.606 63.4713 154.612 63.3875 154.612ZM47.1334 148.711C47.1665 148.71 47.1992 148.718 47.2288 148.732C47.2584 148.747 47.2839 148.769 47.3032 148.795C47.326 148.83 47.3382 148.87 47.3382 148.911C47.3382 148.952 47.326 148.993 47.3032 149.027C47.2652 149.116 47.2457 149.211 47.2457 149.307C47.2457 149.404 47.2652 149.499 47.3032 149.588C47.4645 150.009 47.9994 150.599 49.6549 151.181C52.8344 152.294 62.097 154.376 63.5531 154.195C64.6652 154.056 65.7477 153.208 67.0085 152.226C67.3905 151.923 67.7938 151.611 68.2141 151.303C70.0267 149.975 79.9854 142.911 80.5967 142.506C80.7665 142.393 81.399 141.933 82.1971 141.352C84.0437 140.007 87.1298 137.76 88.5986 136.833C91.2305 135.168 92.9412 133.28 93.1662 131.775C93.4161 130.423 93.5115 129.047 93.4506 127.674C93.3572 126.919 93.1662 125.596 93.1662 125.596C93.1662 125.469 92.4021 114.114 92.4021 103.918C92.4021 93.2668 92.279 89.2415 90.8951 85.8484C89.8896 83.537 88.5884 81.3639 87.0237 79.3826C86.9303 79.2182 80.1213 66.3372 78.3299 62.1264C76.6319 58.1601 75.2565 53.9156 75.0867 53.3929C74.6962 53.0515 71.1813 50.1853 63.0139 50.531C54.0018 50.9187 48.8314 56.0442 47.6895 59.1843C46.5009 62.4468 49.2983 66.5901 49.3238 66.6322C49.4172 66.7334 60.3608 79.1002 63.0479 81.625C65.8878 84.2762 68.5919 92.0656 68.4306 94.7505C68.3457 96.2384 66.1595 98.4471 63.8417 100.786C61.7192 102.936 59.5118 105.162 58.7477 106.974C58.1831 108.314 57.4742 110.182 56.7526 112.163C55.3262 115.994 53.7089 120.336 52.134 123.467C51.5694 124.593 50.9751 125.743 50.3893 126.877C48.4791 130.586 46.6749 134.089 46.1868 135.906C45.8854 137.031 44.8878 138.92 43.835 140.913C42.6592 143.135 41.4451 145.432 41.3602 146.426C41.3388 146.683 41.3732 146.941 41.4611 147.183C41.549 147.425 41.6883 147.646 41.8696 147.83C42.6169 148.537 43.5978 148.949 44.6288 148.989C45.445 148.969 46.2576 148.875 47.057 148.711H47.1334ZM57.2238 145.916C57.1999 145.92 57.1755 145.92 57.1516 145.916C55.7762 145.415 53.4075 144.652 52.9066 144.791C52.8602 144.802 52.8116 144.797 52.768 144.778C52.7244 144.759 52.6881 144.727 52.6646 144.686C52.6436 144.643 52.6368 144.596 52.6452 144.549C52.6536 144.503 52.6768 144.461 52.7113 144.429C53.7814 143.459 54.728 142.364 55.53 141.166C57.0928 138.387 58.5097 135.53 59.775 132.605C60.0849 131.733 61.5706 131.438 62.8272 131.653C63.9733 131.851 64.661 132.407 64.661 133.145C64.661 134.831 63.2899 137.908 61.0697 140.011C58.9472 142.034 57.4233 145.76 57.4105 145.798C57.3913 145.831 57.364 145.857 57.3312 145.876C57.2985 145.894 57.2614 145.904 57.2238 145.904V145.916ZM53.3693 144.374C54.6419 144.627 55.8913 144.983 57.1049 145.44C57.4487 144.639 58.8496 141.537 60.7896 139.695C62.9121 137.668 64.2492 134.709 64.2492 133.132C64.2492 132.525 63.4851 132.18 62.7677 132.057C61.7022 131.872 60.4118 132.104 60.1868 132.732C58.9106 135.687 57.4737 138.572 55.8823 141.373C55.1639 142.462 54.3206 143.465 53.3693 144.361V144.374Z" fill="#263238"/>
<path d="M46.9637 148.159C46.9282 148.159 46.8933 148.15 46.8618 148.134C46.813 148.106 46.7769 148.061 46.761 148.008C46.7452 147.954 46.7509 147.897 46.7769 147.847C47.2396 147.004 48.0122 145.567 47.6004 143.729C47.2099 141.98 44.5271 141.095 44.5016 141.082C44.4753 141.074 44.4509 141.061 44.4298 141.043C44.4087 141.026 44.3913 141.004 44.3786 140.98C44.366 140.955 44.3584 140.929 44.3561 140.902C44.3539 140.874 44.3572 140.847 44.3658 140.821C44.374 140.794 44.3874 140.769 44.4054 140.748C44.4233 140.727 44.4453 140.709 44.4702 140.696C44.4951 140.683 44.5223 140.675 44.5503 140.673C44.5783 140.67 44.6064 140.673 44.6332 140.682C44.752 140.724 47.5707 141.651 48.0292 143.632C48.4876 145.613 47.6047 147.198 47.1802 148.045C47.1595 148.084 47.1278 148.115 47.0893 148.135C47.0508 148.155 47.0071 148.164 46.9637 148.159Z" fill="#263238"/>
<path d="M66.7879 122.801H66.737C66.6821 122.787 66.635 122.753 66.6056 122.704C66.5763 122.656 66.567 122.599 66.5799 122.544C66.686 122.123 66.7752 121.726 66.8601 121.355C66.945 120.985 67.0044 120.727 67.0723 120.453C67.0788 120.426 67.0906 120.401 67.1072 120.378C67.1238 120.355 67.1447 120.336 67.1688 120.322C67.1929 120.307 67.2197 120.297 67.2476 120.293C67.2755 120.289 67.3039 120.291 67.3313 120.298C67.3583 120.304 67.3837 120.317 67.4061 120.333C67.4284 120.35 67.4472 120.371 67.4614 120.395C67.4756 120.418 67.4849 120.445 67.4888 120.472C67.4927 120.5 67.4911 120.528 67.4841 120.555C67.4162 120.824 67.3482 121.124 67.2761 121.448C67.2039 121.773 67.0978 122.228 66.9917 122.645C66.9802 122.69 66.9539 122.73 66.917 122.758C66.88 122.787 66.8346 122.802 66.7879 122.801Z" fill="#263238"/>
<path d="M60.7941 131.678C60.7443 131.678 60.6964 131.66 60.6583 131.628C60.6368 131.61 60.619 131.589 60.606 131.564C60.5931 131.54 60.5852 131.513 60.5828 131.486C60.5804 131.458 60.5836 131.43 60.5922 131.404C60.6008 131.378 60.6146 131.354 60.6328 131.333C60.6328 131.333 61.8639 129.87 64.0076 127.742C64.8662 126.851 65.5233 125.789 65.9348 124.627C65.9557 124.575 65.9962 124.533 66.0478 124.51C66.0993 124.487 66.1578 124.485 66.2107 124.504C66.2371 124.514 66.2612 124.529 66.2816 124.548C66.3021 124.567 66.3185 124.59 66.33 124.616C66.3414 124.641 66.3477 124.669 66.3483 124.697C66.349 124.725 66.3441 124.752 66.3338 124.778C65.8989 125.996 65.2088 127.108 64.309 128.041C62.1865 130.148 60.9724 131.59 60.9597 131.602C60.9395 131.627 60.9142 131.646 60.8855 131.659C60.8569 131.672 60.8257 131.679 60.7941 131.678Z" fill="#263238"/>
<path d="M66.8383 134.182C66.7994 134.183 66.7611 134.173 66.7279 134.152C66.7037 134.138 66.6827 134.119 66.6661 134.097C66.6495 134.074 66.6377 134.049 66.6314 134.021C66.625 133.994 66.6243 133.966 66.6292 133.939C66.6341 133.911 66.6446 133.885 66.66 133.862C66.868 133.533 68.4768 132.437 69.1178 132.007L68.5617 131.316C67.7849 130.351 68.6721 128.471 68.7103 128.391C68.721 128.364 68.7371 128.339 68.7577 128.319C68.7783 128.298 68.8029 128.282 68.8301 128.272C68.8572 128.261 68.8862 128.256 68.9153 128.257C68.9445 128.258 68.9731 128.265 68.9994 128.277C69.0257 128.29 69.0491 128.308 69.0682 128.329C69.0873 128.351 69.1017 128.377 69.1104 128.405C69.1191 128.432 69.122 128.461 69.1189 128.49C69.1158 128.519 69.1068 128.547 69.0924 128.572C68.8674 129.048 68.3835 130.422 68.8929 131.05L69.5933 131.923C69.6122 131.945 69.6261 131.972 69.6342 132C69.6422 132.028 69.6442 132.058 69.64 132.087C69.6356 132.116 69.625 132.144 69.6089 132.169C69.5928 132.193 69.5715 132.215 69.5466 132.23C68.6563 132.781 67.8117 133.401 67.0208 134.085C67.001 134.115 66.9739 134.14 66.942 134.157C66.9101 134.173 66.8744 134.182 66.8383 134.182Z" fill="#263238"/>
<path d="M47.1336 149.12C47.0773 149.123 47.022 149.104 46.9798 149.067C46.9376 149.03 46.912 148.977 46.9086 148.922C46.9052 148.866 46.9243 148.811 46.9617 148.769C46.9992 148.727 47.0518 148.702 47.1081 148.698C49.4683 148.428 52.6266 144.483 52.6775 144.428C52.7139 144.386 52.7654 144.358 52.8215 144.352C52.8775 144.346 52.9339 144.361 52.9789 144.395C53.0227 144.429 53.0508 144.48 53.0571 144.535C53.0635 144.59 53.0476 144.646 53.0129 144.69C52.8771 144.858 49.6933 148.829 47.159 149.115L47.1336 149.12Z" fill="#263238"/>
<path d="M46.2678 118.591C45.4386 118.863 44.6882 119.33 44.0812 119.954C43.4741 120.577 43.0285 121.337 42.7826 122.169C41.9336 125.031 44.1071 125.267 44.8245 128.964C45.5419 132.66 46.2678 136.715 48.5473 136.239C50.8269 135.763 52.8687 133.853 53.9512 129.917C55.0337 125.98 54.1932 120.736 52.5121 119.543" fill="white"/>
<path d="M48.1911 136.487C47.852 136.487 47.5208 136.386 47.2402 136.197C45.8351 135.269 45.245 132.243 44.6932 129.314L44.6337 129.006C44.4042 127.826 43.9395 126.704 43.2668 125.706C42.6131 124.648 42.0995 123.813 42.5961 122.11C42.8499 121.247 43.312 120.459 43.9423 119.814C44.5726 119.169 45.3521 118.687 46.2129 118.409C46.2692 118.395 46.329 118.403 46.3791 118.432C46.4293 118.462 46.4657 118.509 46.4803 118.565C46.495 118.621 46.4866 118.681 46.4572 118.73C46.4277 118.78 46.3795 118.816 46.3232 118.831C45.5313 119.097 44.8152 119.548 44.2347 120.146C43.6543 120.744 43.2263 121.471 42.9867 122.266C42.541 123.788 42.9867 124.517 43.6107 125.524C44.3107 126.565 44.7942 127.735 45.0328 128.964L45.0922 129.271C45.6483 132.112 46.2171 135.054 47.4736 135.885C47.6234 135.985 47.7923 136.053 47.9699 136.085C48.1474 136.117 48.3297 136.112 48.5052 136.07C50.9673 135.552 52.7799 133.419 53.7478 129.899C54.8345 125.942 53.9048 120.829 52.3894 119.754C52.3664 119.738 52.3469 119.718 52.3319 119.694C52.3169 119.671 52.3067 119.644 52.302 119.617C52.2972 119.59 52.298 119.561 52.3043 119.534C52.3105 119.507 52.3221 119.482 52.3384 119.459C52.3722 119.414 52.4221 119.385 52.4776 119.376C52.533 119.367 52.5896 119.381 52.6356 119.413C54.4397 120.677 55.2208 126.157 54.1553 130.013C52.8818 134.65 50.4239 136.1 48.5901 136.479C48.4578 136.496 48.324 136.499 48.1911 136.487Z" fill="#263238"/>
<path d="M47.3167 135.78C47.2778 135.78 47.2395 135.77 47.2063 135.75C47.1822 135.736 47.1612 135.717 47.1446 135.695C47.1279 135.672 47.1158 135.647 47.1091 135.62C47.1024 135.593 47.1012 135.564 47.1055 135.537C47.1098 135.509 47.1195 135.483 47.1341 135.459C47.1341 135.459 48.2039 133.693 49.0401 132.446C49.8764 131.198 50.1651 130.309 49.575 128.357C49.3415 127.573 48.8491 127.135 48.2676 127.147C47.6223 127.173 46.837 127.834 46.5356 129.255C46.2218 131.032 46.2463 132.852 46.6078 134.62C46.6201 134.676 46.6097 134.735 46.5786 134.783C46.5476 134.831 46.4985 134.865 46.4422 134.878C46.3859 134.89 46.327 134.879 46.2785 134.849C46.2299 134.818 46.1956 134.769 46.1833 134.713C45.806 132.887 45.7815 131.006 46.1111 129.17C46.4167 127.733 47.253 126.776 48.2336 126.734C49.0147 126.709 49.6769 127.278 49.9656 128.243C50.6023 130.351 50.2967 131.316 49.3755 132.686C48.5265 133.925 47.4907 135.67 47.4822 135.687C47.4633 135.714 47.4387 135.736 47.41 135.752C47.3814 135.768 47.3495 135.777 47.3167 135.78Z" fill="#263238"/>
<path d="M56.749 139.547C56.749 139.547 61.0322 144.466 62.3652 145.6C63.6981 146.734 67.5059 145.693 68.461 145.128C69.4161 144.563 78.5513 141.819 80.6441 140.778C82.7369 139.737 85.025 136.984 85.6914 136.141C86.3579 135.298 88.8327 133.494 89.1171 131.981C89.4016 130.468 87.7842 128.297 84.4476 129.334C81.1111 130.371 74.9304 133.305 74.9304 133.305L66.8351 133.966C66.8351 133.966 62.4585 130.283 59.9837 132.643L56.749 139.547Z" fill="white"/>
<path d="M64.2837 146.321C63.5542 146.374 62.8285 146.176 62.2291 145.76C60.9004 144.626 56.7658 139.889 56.5875 139.686C56.5604 139.656 56.5431 139.618 56.5379 139.577C56.5326 139.537 56.5395 139.495 56.5578 139.459L59.7967 132.559L59.8434 132.496C62.2843 130.165 66.317 133.271 66.9156 133.76L74.8792 133.107C75.3886 132.867 81.217 130.135 84.3922 129.145C86.6039 128.453 87.8731 129.178 88.4335 129.672C88.7715 129.957 89.0311 130.323 89.1877 130.735C89.3444 131.147 89.3931 131.592 89.3292 132.028C89.1169 133.157 87.8392 134.359 86.8161 135.324C86.4781 135.623 86.1591 135.942 85.861 136.281C85.4025 136.867 82.9914 139.855 80.7458 140.972C79.5996 141.537 76.3989 142.603 73.5717 143.543C71.2158 144.323 68.9914 145.061 68.5711 145.313C67.2312 145.95 65.769 146.294 64.2837 146.321ZM56.9993 139.514C57.6233 140.226 61.3037 144.42 62.5178 145.44C63.7318 146.46 67.4207 145.507 68.3631 144.947C68.8216 144.673 70.9653 143.96 73.4571 143.138C76.2715 142.203 79.4596 141.145 80.576 140.588C82.7409 139.514 85.0969 136.593 85.5511 136.015C85.8594 135.659 86.1912 135.324 86.5445 135.012C87.4741 134.139 88.7476 132.942 88.9344 131.948C88.9853 131.583 88.9419 131.211 88.8083 130.867C88.6746 130.524 88.455 130.22 88.1703 129.983C87.6779 129.562 86.5529 128.913 84.5408 129.562C81.2637 130.586 75.1127 133.49 75.049 133.52C75.0272 133.533 75.0023 133.54 74.9768 133.541L66.8816 134.203C66.854 134.205 66.8262 134.202 66.8 134.193C66.7737 134.184 66.7495 134.17 66.7288 134.152C66.6863 134.118 62.4838 130.645 60.1872 132.795L56.9993 139.514Z" fill="#263238"/>
<path d="M84.146 136.745C83.9768 136.743 83.81 136.704 83.6578 136.631C83.3091 136.415 83.0181 136.119 82.8096 135.767C82.6012 135.416 82.4815 135.019 82.4607 134.612C82.3461 133.508 83.9889 131.956 85.7888 130.443C85.9586 130.3 86.0987 130.182 86.1921 130.098C86.9986 129.377 88.5523 130.174 88.616 130.207C88.6408 130.22 88.6628 130.237 88.6808 130.258C88.6987 130.279 88.7123 130.303 88.7206 130.33C88.7289 130.356 88.7318 130.384 88.7292 130.411C88.7265 130.439 88.7183 130.465 88.7051 130.49C88.6797 130.539 88.6355 130.577 88.5822 130.594C88.5289 130.612 88.4708 130.607 88.4207 130.582C88.0429 130.384 86.9647 129.975 86.4765 130.41C86.3789 130.498 86.2345 130.616 86.052 130.764C85.0714 131.607 82.7664 133.533 82.8767 134.557C82.8923 134.893 82.9873 135.221 83.1539 135.514C83.3206 135.807 83.5543 136.056 83.8361 136.243C83.9311 136.295 84.0385 136.32 84.1468 136.317C84.2551 136.313 84.3604 136.28 84.4516 136.222C84.4988 136.195 84.5546 136.188 84.6074 136.2C84.6601 136.213 84.706 136.246 84.7353 136.291C84.7647 136.337 84.7755 136.391 84.7653 136.444C84.7552 136.497 84.725 136.545 84.6809 136.576C84.5227 136.682 84.3369 136.741 84.146 136.745Z" fill="#263238"/>
<path d="M65.4131 153.541C65.4131 153.541 69.5053 159.497 71.7806 158.928C74.0559 158.359 85.3943 151.459 87.0116 150.422C88.629 149.385 89.3931 146.262 90.4374 142.763C91.4816 139.265 92.3434 137.284 91.9613 136.441C91.5793 135.598 88.82 135.214 86.4428 136.727C84.0656 138.241 81.871 141.912 81.871 141.912L65.4131 153.541Z" fill="white"/>
<path d="M71.4831 159.177C69.0592 159.177 65.4 153.895 65.2387 153.659C65.2071 153.614 65.1948 153.558 65.2043 153.504C65.2138 153.449 65.2445 153.401 65.2896 153.368L81.722 141.769C81.9767 141.347 84.0483 137.975 86.3363 136.538C88.0641 135.438 90.0083 135.295 91.1671 135.64C91.3745 135.681 91.5709 135.765 91.7435 135.886C91.9161 136.008 92.0611 136.164 92.169 136.344C92.4874 137.052 92.0756 138.338 91.3921 140.466C91.1671 141.162 90.9167 141.946 90.6535 142.823C90.5431 143.193 90.437 143.56 90.3309 143.923C89.4309 146.983 88.6541 149.626 87.1386 150.599C85.4406 151.699 74.1744 158.553 71.8566 159.135C71.7341 159.162 71.6088 159.176 71.4831 159.177ZM65.7056 153.592C66.9197 155.312 70.044 159.143 71.7378 158.726C73.9834 158.165 85.2708 151.295 86.9094 150.245C88.289 149.356 89.0319 146.785 89.9234 143.805C90.0295 143.442 90.1356 143.075 90.246 142.705C90.5134 141.819 90.7639 141.019 90.9889 140.34C91.6171 138.376 92.0331 137.077 91.7784 136.517C91.6936 136.394 91.585 136.289 91.459 136.208C91.3329 136.127 91.1918 136.071 91.044 136.045C89.9785 135.729 88.1829 135.864 86.5656 136.888C84.2563 138.355 82.0871 141.98 82.0659 142.017C82.0507 142.042 82.0304 142.064 82.0064 142.081L65.7056 153.592Z" fill="#263238"/>
<path d="M88.8834 143.316C88.7396 143.315 88.5966 143.294 88.4589 143.253C87.508 142.97 87.6396 140.205 88.1023 138.317C88.6244 136.167 90.3309 135.995 90.4031 135.99C90.4307 135.987 90.4587 135.99 90.4853 135.998C90.512 136.006 90.5367 136.019 90.5581 136.037C90.5794 136.055 90.597 136.077 90.6098 136.101C90.6225 136.126 90.6302 136.153 90.6323 136.18C90.637 136.235 90.6196 136.29 90.5839 136.333C90.5481 136.375 90.4969 136.402 90.4413 136.408C90.3734 136.408 88.9598 136.572 88.514 138.414C87.9962 140.522 88.115 142.713 88.5777 142.848C88.776 142.891 88.9811 142.891 89.1794 142.849C89.3777 142.807 89.5648 142.723 89.7281 142.604C89.7735 142.571 89.8299 142.558 89.8853 142.565C89.9407 142.573 89.9908 142.602 90.0253 142.646C90.0427 142.667 90.0555 142.692 90.063 142.718C90.0706 142.745 90.0726 142.772 90.069 142.799C90.0655 142.827 90.0563 142.853 90.0422 142.876C90.0282 142.9 90.0094 142.921 89.9871 142.937C89.6669 143.172 89.2817 143.305 88.8834 143.316Z" fill="#263238"/>
<path d="M80.6726 144.652C80.6284 144.652 80.5851 144.638 80.5492 144.613C80.5134 144.587 80.4867 144.55 80.4731 144.508C80.0104 143.21 81.1184 142.123 81.7721 141.731C81.8205 141.702 81.8786 141.693 81.9335 141.706C81.9884 141.72 82.0357 141.754 82.065 141.802C82.0943 141.85 82.1031 141.908 82.0896 141.963C82.0761 142.017 82.0413 142.064 81.9929 142.093C81.9249 142.131 80.4095 143.067 80.8722 144.369C80.8899 144.422 80.8861 144.48 80.8615 144.531C80.837 144.581 80.7936 144.62 80.7406 144.639C80.7189 144.647 80.6959 144.652 80.6726 144.652Z" fill="#263238"/>
</svg>
