<svg width="52" height="50" viewBox="0 0 52 50" fill="none" xmlns="http://www.w3.org/2000/svg">
<mask id="mask0_137_319" style="mask-type:alpha" maskUnits="userSpaceOnUse" x="0" y="0" width="52" height="50">
<path d="M13.8054 25.3128L8.83746 23.2295C8.12521 22.9517 7.7064 22.4482 7.58105 21.719C7.45569 20.9899 7.66082 20.3649 8.19643 19.844L14.9272 13.2815C15.4258 12.7954 16.0134 12.4482 16.69 12.2399C17.3667 12.0315 18.0611 11.9968 18.7734 12.1357L21.5511 12.7086C19.6637 14.8961 18.1594 16.8843 17.0383 18.6732C15.9172 20.4621 14.8396 22.6753 13.8054 25.3128ZM45.2157 5.0003C45.5006 5.0003 45.7855 5.06974 46.0704 5.20863C46.3553 5.34752 46.6045 5.52113 46.8182 5.72946C47.0319 5.9378 47.21 6.18085 47.3524 6.45863C47.4949 6.73641 47.5661 7.01418 47.5661 7.29196C47.7085 10.5211 47.0055 13.8718 45.4571 17.344C43.9087 20.8163 41.7271 23.9239 38.9122 26.667C36.9892 28.542 35.1373 30.044 33.3567 31.1732C31.5761 32.3024 29.4749 33.3697 27.0533 34.3753C26.5903 34.5489 26.1188 34.6357 25.6387 34.6357C25.1587 34.6357 24.7399 34.4621 24.3823 34.1149L17.705 27.6045C17.3489 27.2572 17.1708 26.8489 17.1708 26.3795C17.1708 25.91 17.2598 25.4503 17.4379 25.0003C18.4706 22.6739 19.5661 20.6336 20.7242 18.8795C21.8823 17.1253 23.4222 15.3114 25.3439 13.4378C28.1573 10.6947 31.3446 8.56766 34.9058 7.05655C38.4671 5.54543 41.9037 4.86002 45.2157 5.0003ZM31.6473 20.5211C32.4664 21.3197 33.4728 21.719 34.6665 21.719C35.8602 21.719 36.8659 21.3197 37.6836 20.5211C38.5027 19.7225 38.9122 18.742 38.9122 17.5795C38.9122 16.417 38.5027 15.4357 37.6836 14.6357C36.8645 13.8371 35.8581 13.4378 34.6644 13.4378C33.4706 13.4378 32.4649 13.8371 31.6473 14.6357C30.8282 15.4343 30.4186 16.4156 30.4186 17.5795C30.4186 18.7434 30.8282 19.7239 31.6473 20.5211ZM26.7328 37.917C29.4393 36.91 31.7185 35.86 33.5704 34.767C35.4222 33.6739 37.4699 32.2065 39.7135 30.3649L40.2477 33.0732C40.3902 33.7677 40.3545 34.4538 40.1409 35.1315C39.9272 35.8093 39.5711 36.3906 39.0725 36.8753L32.3417 43.4378C31.8075 43.9586 31.1665 44.1496 30.4186 44.0107C29.6708 43.8718 29.1544 43.4552 28.8695 42.7607L26.7328 37.917ZM9.37164 33.4274C10.6181 32.219 12.1352 31.6059 13.9229 31.5878C15.7107 31.5711 17.2242 32.1704 18.4635 33.3857C19.7028 34.601 20.3225 36.0767 20.3225 37.8128C20.3225 39.5489 19.6993 41.0246 18.4528 42.2399C17.5625 43.1079 16.0761 43.8545 13.9934 44.4795C11.9108 45.1045 9.03475 45.66 5.36523 46.1461C5.86381 42.5697 6.43361 39.7711 7.07464 37.7503C7.71566 35.7309 8.48133 34.2899 9.37164 33.4274Z" fill="black"/>
</mask>
<g mask="url(#mask0_137_319)">
<rect x="-6.46191" y="-9" width="71.7949" height="68" fill="#822B36"/>
</g>
</svg>
