<svg width="560" height="536" viewBox="0 0 560 536" fill="none" xmlns="http://www.w3.org/2000/svg">
<path d="M280 535.307C434.64 535.307 560 527.708 560 518.333C560 508.958 434.64 501.358 280 501.358C125.36 501.358 0 508.958 0 518.333C0 527.708 125.36 535.307 280 535.307Z" fill="#F5F5F5"/>
<path d="M423.329 139.245L409.003 133.247C409.003 133.247 390.1 169.04 384.684 170.855C377.319 173.314 362.069 180.152 353.029 181.351C351.802 182.851 349.794 187.514 349.982 189.209C362.127 193.422 388.814 187.829 394.533 183.421C407.545 173.419 423.329 139.245 423.329 139.245Z" fill="#E58A7B"/>
<path d="M427.734 131.102C430.406 141.343 415.936 161.947 415.936 161.947L396.975 150.91C396.975 150.91 400.527 142.438 404.859 133.816C411.806 119.885 424.687 119.421 427.734 131.102Z" fill="#BEA27C"/>
<path opacity="0.2" d="M427.734 131.102C430.406 141.343 415.936 161.947 415.936 161.947L396.975 150.91C396.975 150.91 400.527 142.438 404.859 133.816C411.806 119.885 424.687 119.421 427.734 131.102Z" fill="black"/>
<path opacity="0.2" d="M404.498 155.32L411.964 159.668L413.278 135.871C408.932 139.335 405.87 149.772 404.498 155.32Z" fill="black"/>
<path d="M415.255 123.394C415.255 123.394 400.497 157.493 409.103 220.982H467.258C468.182 211.715 465.121 166.49 476.197 122.824C469.818 121.53 463.363 120.673 456.875 120.26C448.646 119.765 440.395 119.765 432.166 120.26C426.461 120.862 420.808 121.909 415.255 123.394Z" fill="#BEA27C"/>
<path opacity="0.2" d="M415.255 123.394C415.255 123.394 400.497 157.493 409.103 220.982H467.258C468.182 211.715 465.121 166.49 476.197 122.824C469.818 121.53 463.363 120.673 456.875 120.26C448.646 119.765 440.395 119.765 432.166 120.26C426.461 120.862 420.808 121.909 415.255 123.394Z" fill="black"/>
<g style="mix-blend-mode:multiply">
<path d="M401.769 519.684C401.682 521.304 423.734 522.608 451.013 522.608C478.293 522.608 500.503 521.304 500.59 519.684C500.676 518.065 478.639 516.775 451.345 516.775C424.052 516.775 401.87 518.08 401.769 519.684Z" fill="#E8ECF1"/>
</g>
<path d="M440.587 477.133L430.272 481.279L439.157 505.112L449.472 500.966L440.587 477.133Z" fill="#E58A7B"/>
<path d="M486.582 508.153H475.707L471.722 482.017H482.596L486.582 508.153Z" fill="#E58A7B"/>
<path d="M474.955 506.85H487.173C487.385 506.85 487.589 506.929 487.751 507.072C487.912 507.215 488.019 507.412 488.054 507.629L489.628 517.661C489.661 517.913 489.641 518.169 489.571 518.412C489.5 518.655 489.38 518.88 489.218 519.07C489.057 519.261 488.857 519.413 488.634 519.517C488.41 519.62 488.168 519.673 487.924 519.67C483.663 519.595 481.613 519.326 476.241 519.326C472.934 519.326 466.132 519.685 461.54 519.685C456.947 519.685 456.644 515.007 458.536 514.572C467.027 512.668 470.32 510.074 473.15 507.554C473.649 507.099 474.291 506.849 474.955 506.85Z" fill="#263238"/>
<path d="M438.854 502.981L450.407 499.472C450.613 499.412 450.833 499.426 451.03 499.514C451.227 499.601 451.389 499.756 451.49 499.952L455.822 508.949C455.923 509.177 455.974 509.426 455.973 509.677C455.971 509.928 455.917 510.175 455.814 510.402C455.711 510.629 455.561 510.83 455.376 510.991C455.19 511.152 454.973 511.269 454.739 511.333C450.537 512.533 447.721 513.268 442.464 514.857C438.839 515.952 435.142 517.736 431.561 518.921C429.077 519.745 423.243 519.775 420.225 519.775C415.762 519.775 414.766 514.887 416.687 514.662C421.524 514.107 422.174 514.362 424.846 512.968C429.217 510.984 433.179 508.143 436.514 504.6C437.143 503.856 437.95 503.297 438.854 502.981Z" fill="#263238"/>
<path d="M354.849 181.29L342.892 176.087L337.968 189.852C342.869 190.628 347.855 190.628 352.756 189.852L354.849 181.29Z" fill="#E58A7B"/>
<path d="M333.995 175.728L333.678 184.875L337.967 189.823L342.891 176.057L333.995 175.728Z" fill="#E58A7B"/>
<path d="M442.002 479.157L431.655 483.305L436.237 495.629L446.584 491.481L442.002 479.157Z" fill="#CF6F64"/>
<path d="M482.596 482.017H471.722L473.787 495.497H484.661L482.596 482.017Z" fill="#CF6F64"/>
<path opacity="0.2" d="M407.256 203.814C407.472 206.528 407.718 209.302 408.036 212.151L451.273 197.576C458.025 195.498 463.893 191.092 467.909 185.085C468.082 181.081 468.299 176.868 468.631 172.474C468.775 170.345 468.949 168.156 469.136 165.936C469.324 163.717 469.584 161.258 469.858 158.889L407.256 203.814Z" fill="black"/>
<path d="M421.379 154.629L419.935 154.449C420.787 146.951 426.173 141.043 431.849 141.193V142.693C426.881 142.588 422.144 147.911 421.379 154.629Z" fill="white"/>
<path d="M429.077 168.47H428.831V166.97C433.799 167.165 438.463 161.782 439.229 155.079L440.673 155.259C439.907 162.592 434.694 168.47 429.077 168.47Z" fill="white"/>
<path d="M456.067 91.3652C454.03 99.6275 451.633 114.758 456.875 120.261C456.875 120.261 453.207 128.643 438.434 128.643C424.931 128.643 432.167 120.261 432.167 120.261C441.149 118.072 441.308 111.264 440.124 104.816L456.067 91.3652Z" fill="#E58A7B"/>
<path d="M449.569 96.8545L440.139 104.817C440.431 106.299 440.6 107.804 440.644 109.315C443.402 112.164 448.933 104.952 449.497 101.263C449.783 99.8108 449.807 98.316 449.569 96.8545Z" fill="#CF6F64"/>
<path d="M423.921 91.2597C424.577 92.4406 425.461 93.4683 426.517 94.2785C427.573 95.0886 428.779 95.6639 430.059 95.9682C433.524 96.7629 435.257 93.449 434.304 90.1201C433.452 87.1211 430.607 83.0874 427.084 83.7772C426.329 83.9386 425.622 84.2855 425.023 84.7888C424.424 85.292 423.95 85.9371 423.64 86.6698C423.33 87.4025 423.194 88.2016 423.243 89.0002C423.292 89.7988 423.524 90.5736 423.921 91.2597Z" fill="#CF6F64"/>
<path d="M429.654 64.8229C424.253 67.387 422.346 89.6698 429.134 92.9687C435.921 96.2676 439.878 59.9495 429.654 64.8229Z" fill="#263238"/>
<path d="M457.714 78.9342C456.414 90.1206 456.269 96.7034 450.493 102.432C448.703 104.332 446.442 105.683 443.959 106.333C441.477 106.984 438.87 106.909 436.425 106.118C433.981 105.327 431.795 103.85 430.108 101.85C428.421 99.8496 427.3 97.4044 426.867 94.7841C425.12 84.7373 427.531 68.1378 438.333 63.6842C440.603 62.6447 443.099 62.2545 445.563 62.554C448.027 62.8535 450.368 63.8318 452.345 65.3875C454.322 66.9432 455.863 69.0196 456.807 71.4016C457.75 73.7835 458.064 76.3843 457.714 78.9342Z" fill="#E58A7B"/>
<path d="M439.965 70.6124C447.966 68.4981 453.843 67.0585 451.735 73.9713C448.948 83.2082 445.597 92.1453 450.089 92.5502C452.832 92.8051 464.963 87.4669 463.418 82.0536C462.075 77.3452 467.75 76.0556 468.761 73.6714C472.501 65.0342 461.8 66.1738 463.707 60.9255C465.613 55.6772 455.042 47.22 449.265 51.4336C439.864 58.2414 423.733 58.1364 432.21 46.9351C438.29 38.9427 427.445 40.5772 427.445 40.5772C427.445 40.5772 434.001 44.6109 422.968 50.8488C411.3 57.5066 422 75.3958 439.965 70.6124Z" fill="#263238"/>
<path d="M461.959 91.2597C460.379 93.6327 458.007 95.311 455.302 95.9682C451.735 96.7629 450.363 93.449 451.706 90.1201C452.904 87.1211 456.197 83.0874 459.605 83.7772C463.013 84.4669 463.793 88.3207 461.959 91.2597Z" fill="#E58A7B"/>
<path d="M409.104 220.982C409.104 220.982 399.342 311.703 398.577 346.132C397.797 381.94 431.661 493.668 431.661 493.668L448.991 486.171C448.991 486.171 428.773 384.084 431.661 348.921C434.723 310.578 447.373 221.042 447.373 221.042L409.104 220.982Z" fill="#BEA27C"/>
<path opacity="0.2" d="M433.366 245.89C425.582 262.655 430.824 295.809 435.041 315.453C436.644 301.582 438.55 286.527 440.355 272.597C440.182 251.184 438.579 234.644 433.366 245.89Z" fill="black"/>
<path d="M448.226 480.232C448.312 480.232 450.276 485.961 450.276 485.961L430.29 494.688L427.142 488.6L448.226 480.232Z" fill="#BEA27C"/>
<path d="M429.741 220.982C429.741 220.982 437.207 307.264 442.146 339.579C447.576 374.982 468.862 492.889 468.862 492.889H488.777C488.777 492.889 476.848 377.846 474.595 342.788C472.14 304.76 467.259 220.982 467.259 220.982H429.741Z" fill="#BEA27C"/>
<path d="M489.079 487.506C489.166 487.506 489.743 493.279 489.743 493.279H467.851L466.291 486.651L489.079 487.506Z" fill="#BEA27C"/>
<path opacity="0.2" d="M481.455 480.668C481.409 480.669 481.366 480.652 481.331 480.622C481.297 480.592 481.274 480.55 481.267 480.503C481.151 479.454 470.393 375.538 468.371 344.048C466.176 309.889 461.757 234.119 461.713 233.354C461.711 233.329 461.714 233.304 461.722 233.281C461.73 233.257 461.743 233.235 461.759 233.217C461.775 233.199 461.795 233.184 461.817 233.174C461.839 233.164 461.863 233.159 461.887 233.159C461.934 233.159 461.98 233.178 462.015 233.211C462.05 233.244 462.071 233.29 462.075 233.339C462.075 234.104 466.537 309.814 468.732 344.033C470.754 375.523 481.512 479.364 481.613 480.488C481.618 480.513 481.617 480.539 481.611 480.563C481.605 480.587 481.594 480.61 481.579 480.63C481.564 480.65 481.545 480.666 481.524 480.678C481.502 480.69 481.479 480.697 481.455 480.698V480.668Z" fill="black"/>
<path d="M441.192 82.0528C441.192 82.9675 440.644 83.7022 440.066 83.7022C439.488 83.7022 439.07 82.9675 439.127 82.0528C439.185 81.1381 439.676 80.4033 440.254 80.4033C440.831 80.4033 441.25 81.1531 441.192 82.0528Z" fill="#263238"/>
<path d="M431.287 82.0528C431.287 82.9675 430.723 83.7022 430.16 83.7022C429.597 83.7022 429.164 82.9675 429.207 82.0528C429.25 81.1381 429.77 80.4033 430.348 80.4033C430.926 80.4033 431.344 81.1531 431.287 82.0528Z" fill="#263238"/>
<path d="M434.405 82.5186C433.2 85.3117 431.646 87.9282 429.784 90.301C431.228 91.8005 433.929 91.1108 433.929 91.1108L434.405 82.5186Z" fill="#DF5753"/>
<path d="M434.666 94.9341C434.632 94.9342 434.599 94.9271 434.568 94.9134C434.538 94.8997 434.51 94.8795 434.487 94.8542C434.464 94.8289 434.446 94.799 434.435 94.7664C434.423 94.7337 434.418 94.6989 434.42 94.6642C434.424 94.5913 434.455 94.5226 434.506 94.4724C434.557 94.4221 434.624 94.3942 434.695 94.3943C435.799 94.4022 436.891 94.1531 437.891 93.6653C438.891 93.1775 439.772 92.4633 440.471 91.5752C440.521 91.5299 440.585 91.5049 440.652 91.5049C440.718 91.5049 440.782 91.5299 440.832 91.5752C440.879 91.6255 440.905 91.6927 440.905 91.7627C440.905 91.8326 440.879 91.8998 440.832 91.9501C440.084 92.8939 439.142 93.6518 438.075 94.1682C437.008 94.6846 435.843 94.9463 434.666 94.9341Z" fill="#263238"/>
<path d="M442.955 79.2953C442.886 79.3322 442.809 79.3514 442.731 79.3514C442.653 79.3514 442.576 79.3322 442.507 79.2953C441.967 78.9327 441.352 78.7071 440.712 78.6368C440.073 78.5664 439.426 78.6533 438.825 78.8904C438.766 78.9209 438.702 78.9388 438.637 78.9432C438.571 78.9476 438.506 78.9383 438.444 78.916C438.382 78.8936 438.325 78.8586 438.276 78.813C438.227 78.7674 438.188 78.7122 438.16 78.6505C438.107 78.5171 438.105 78.3672 438.157 78.2327C438.208 78.0983 438.308 77.99 438.435 77.9308C439.19 77.6106 440.008 77.4843 440.82 77.5626C441.632 77.6409 442.414 77.9215 443.099 78.3806C443.155 78.4197 443.202 78.4698 443.238 78.528C443.275 78.5862 443.3 78.6514 443.312 78.7198C443.324 78.7881 443.323 78.8583 443.309 78.9262C443.295 78.9941 443.268 79.0584 443.229 79.1154C443.156 79.2013 443.061 79.2638 442.955 79.2953Z" fill="#263238"/>
<path d="M427.459 76.2946C427.382 76.2753 427.312 76.2337 427.257 76.1747C427.209 76.1258 427.171 76.0675 427.145 76.0031C427.119 75.9387 427.105 75.8696 427.105 75.7998C427.105 75.73 427.119 75.6609 427.145 75.5965C427.171 75.5321 427.209 75.4738 427.257 75.4249C427.811 74.7803 428.5 74.2771 429.272 73.9546C430.043 73.6321 430.876 73.4989 431.705 73.5655C431.771 73.5762 431.835 73.6009 431.892 73.6381C431.949 73.6753 431.998 73.7242 432.036 73.7819C432.074 73.8395 432.1 73.9046 432.112 73.9732C432.125 74.0417 432.124 74.1122 432.109 74.1803C432.078 74.3192 432 74.4415 431.888 74.5243C431.776 74.6072 431.639 74.6448 431.503 74.6302C430.847 74.5872 430.19 74.7 429.582 74.9598C428.974 75.2196 428.431 75.6196 427.994 76.1297C427.928 76.2056 427.843 76.2611 427.749 76.2903C427.655 76.3194 427.554 76.3209 427.459 76.2946Z" fill="#263238"/>
<path d="M481.786 137.58L466.767 133.427C466.767 133.427 452.037 171.079 446.824 173.524C439.748 176.883 421.826 188.519 414.202 194.022C413.783 195.896 414.115 200.86 415.068 202.224C428.065 199.765 452.947 189.823 458.146 184.77C470.002 173.239 481.786 137.58 481.786 137.58Z" fill="#E58A7B"/>
<path d="M471.303 508.828C470.57 508.888 469.84 508.682 469.238 508.243C469.052 508.069 468.913 507.847 468.834 507.6C468.756 507.353 468.741 507.089 468.79 506.834C468.799 506.675 468.85 506.521 468.936 506.389C469.023 506.257 469.142 506.151 469.281 506.084C470.494 505.439 473.888 507.674 474.278 507.928C474.321 507.956 474.354 507.997 474.372 508.046C474.39 508.095 474.393 508.148 474.379 508.198C474.367 508.251 474.342 508.299 474.306 508.338C474.271 508.378 474.226 508.407 474.177 508.423C473.235 508.664 472.272 508.799 471.303 508.828ZM469.859 506.489C469.75 506.464 469.636 506.464 469.527 506.489C469.471 506.518 469.426 506.564 469.395 506.619C469.364 506.675 469.35 506.74 469.353 506.804C469.315 506.978 469.321 507.16 469.372 507.331C469.423 507.502 469.516 507.657 469.642 507.779C470.206 508.303 471.621 508.363 473.484 507.988C472.374 507.23 471.125 506.719 469.816 506.489H469.859Z" fill="#BEA27C"/>
<path d="M474.105 508.424C474.067 508.436 474.027 508.436 473.989 508.424C472.906 507.794 470.87 505.32 471.173 504.06C471.218 503.86 471.327 503.682 471.482 503.554C471.636 503.427 471.827 503.356 472.025 503.355C472.219 503.328 472.416 503.345 472.603 503.405C472.79 503.464 472.962 503.565 473.108 503.7C474.307 504.765 474.379 508.034 474.379 508.199C474.386 508.248 474.377 508.298 474.353 508.342C474.33 508.385 474.293 508.419 474.249 508.439C474.201 508.449 474.15 508.444 474.105 508.424ZM472.169 503.85H472.068C471.736 503.85 471.693 504.045 471.678 504.12C471.505 504.855 472.79 506.729 473.859 507.614C473.854 506.347 473.476 505.112 472.776 504.075C472.608 503.923 472.392 503.843 472.169 503.85Z" fill="#BEA27C"/>
<path d="M432.96 506.954C432.077 507.274 431.115 507.274 430.231 506.954C430.03 506.841 429.86 506.677 429.737 506.478C429.613 506.279 429.54 506.05 429.523 505.814C429.505 505.666 429.523 505.515 429.577 505.376C429.63 505.237 429.716 505.114 429.827 505.019C430.982 503.94 435.704 505.019 436.239 505.229C436.289 505.243 436.334 505.274 436.366 505.318C436.397 505.361 436.414 505.415 436.412 505.469C436.414 505.525 436.4 505.581 436.372 505.629C436.344 505.677 436.302 505.715 436.253 505.739C435.19 506.238 434.088 506.644 432.96 506.954ZM430.607 505.169C430.441 505.204 430.287 505.281 430.159 505.394C430.113 505.43 430.078 505.478 430.057 505.534C430.037 505.59 430.032 505.651 430.043 505.709C430.053 505.866 430.1 506.019 430.181 506.152C430.261 506.286 430.373 506.397 430.505 506.474C431.271 506.894 433.047 506.564 435.343 505.559C433.797 505.154 432.195 505.022 430.607 505.169Z" fill="#BEA27C"/>
<path d="M436.21 505.739H436.095C434.651 505.469 431.762 503.744 431.676 502.455C431.676 502.155 431.806 501.735 432.499 501.495C432.733 501.408 432.982 501.372 433.23 501.387C433.478 501.403 433.721 501.47 433.943 501.585C435.503 502.38 436.326 505.259 436.369 505.394C436.379 505.439 436.378 505.486 436.365 505.531C436.353 505.576 436.329 505.616 436.297 505.649C436.275 505.685 436.246 505.716 436.21 505.739ZM432.788 501.945H432.643C432.196 502.11 432.196 502.305 432.196 502.365C432.196 503.144 434.29 504.569 435.748 505.049C435.412 503.845 434.701 502.79 433.726 502.05C433.436 501.897 433.102 501.859 432.788 501.945Z" fill="#BEA27C"/>
<path d="M415.429 193.137L400.367 200.334L398.619 204.833L404.179 208.717C404.179 208.717 414.577 207.547 417.537 200.604L415.429 193.137Z" fill="#E58A7B"/>
<path d="M416.065 202.478C415.729 199.473 414.773 196.579 413.264 193.991L415.646 192.132C417.439 195.113 418.582 198.465 418.997 201.954L416.065 202.478Z" fill="#263238"/>
<path d="M418.635 195.266C418.954 195.786 419.11 196.395 419.083 197.011C419.056 197.626 418.847 198.219 418.485 198.707C418.123 199.195 417.624 199.555 417.058 199.738C416.491 199.922 415.884 199.919 415.318 199.732C414.753 199.544 414.257 199.18 413.898 198.689C413.539 198.199 413.334 197.605 413.312 196.989C413.289 196.374 413.45 195.765 413.772 195.248C414.094 194.73 414.562 194.328 415.111 194.096C415.729 193.77 416.445 193.709 417.105 193.928C417.765 194.147 418.315 194.628 418.635 195.266Z" fill="#263238"/>
<path d="M390.187 206.153L392.194 208.252L405.711 202.254L400.368 200.335L390.187 206.153Z" fill="#E58A7B"/>
<path opacity="0.2" d="M448.226 480.232C448.312 480.232 450.276 485.961 450.276 485.961L430.29 494.688L427.142 488.6L448.226 480.232Z" fill="black"/>
<path opacity="0.2" d="M489.079 487.506C489.166 487.506 489.743 493.279 489.743 493.279H467.851L466.291 486.651L489.079 487.506Z" fill="black"/>
<path d="M485.7 133.261C489.672 146.562 474.147 164.751 474.147 164.751L452.702 155.664C455.244 147.976 458.175 140.433 461.482 133.066C468.068 118.326 481.686 119.841 485.7 133.261Z" fill="#BEA27C"/>
<path opacity="0.2" d="M485.7 133.261C489.672 146.562 474.147 164.751 474.147 164.751L452.702 155.664C455.244 147.976 458.175 140.433 461.482 133.066C468.068 118.326 481.686 119.841 485.7 133.261Z" fill="black"/>
<path d="M272.605 0H263.377V1.54449H272.605V0Z" fill="#BEA27C"/>
<path d="M392.059 61.1308L390.942 86.8662L392.428 86.9357L393.545 61.2003L392.059 61.1308Z" fill="#BEA27C"/>
<path d="M389.188 6.92676H218.782L202.926 375.386H373.332L389.188 6.92676Z" fill="#BEA27C"/>
<path opacity="0.56" d="M384.105 11.9961H213.699L197.843 380.456H368.249L384.105 11.9961Z" fill="#FAFAFA"/>
<path opacity="0.07" d="M379.022 17.0498H208.616L192.745 385.509H363.151L379.022 17.0498Z" fill="#BEA27C"/>
<path d="M359.628 177.753H214.176L212.963 205.944H358.414L359.628 177.753Z" fill="white"/>
<path d="M294.166 157.178H215.057L214.522 169.789H293.631L294.166 157.178Z" fill="#BEA27C"/>
<path d="M356.349 253.837H210.898L209.685 282.028H355.136L356.349 253.837Z" fill="white"/>
<path opacity="0.47" d="M329.677 320.1H231.867L230.408 353.884H328.218L329.677 320.1Z" fill="#BEA27C"/>
<path d="M323.134 359.133H225.324C225.282 359.145 225.237 359.145 225.194 359.133C225.18 359.09 225.18 359.042 225.194 358.998L226.638 325.2C226.638 325.177 226.643 325.154 226.652 325.133C226.661 325.112 226.674 325.093 226.69 325.077C226.706 325.062 226.726 325.05 226.747 325.043C226.767 325.035 226.79 325.032 226.812 325.035H324.622C324.64 325.025 324.66 325.021 324.68 325.021C324.7 325.021 324.719 325.025 324.737 325.035C324.747 325.053 324.753 325.073 324.753 325.095C324.753 325.116 324.747 325.136 324.737 325.155L323.322 359.028C323.305 359.064 323.277 359.093 323.244 359.111C323.21 359.13 323.172 359.138 323.134 359.133ZM225.498 358.774H322.961L324.405 325.334H226.942L225.498 358.774Z" fill="white"/>
<path d="M277.081 233.264H211.778L211.244 245.89H276.533L277.081 233.264Z" fill="#BEA27C"/>
<path d="M327.813 86.6876C327.44 94.892 324.63 102.775 319.77 109.255C316.172 114.15 311.541 118.123 306.234 120.871C300.927 123.618 295.084 125.067 289.154 125.105C284.362 125.143 279.614 124.162 275.201 122.222C270.788 120.282 266.804 117.425 263.495 113.825C260.185 110.226 257.621 105.962 255.959 101.295C254.297 96.6274 253.573 91.6564 253.831 86.6876C254.339 76.377 258.621 66.6573 265.802 59.5162C272.982 52.3752 282.519 48.3523 292.461 48.2701C297.257 48.2237 302.011 49.1989 306.429 51.1354C310.848 53.072 314.837 55.9287 318.15 59.5292C321.463 63.1297 324.03 67.3973 325.692 72.0685C327.354 76.7397 328.076 81.7152 327.813 86.6876Z" fill="white"/>
<path d="M331.294 56.3074C331.199 58.4889 330.452 60.5856 329.156 62.3055C328.197 63.6055 326.965 64.6609 325.553 65.3911C324.142 66.1214 322.588 66.5072 321.011 66.5191C319.483 66.5287 317.977 66.1497 316.622 65.4152C315.268 64.6807 314.107 63.6131 313.242 62.3055C312.096 60.5385 311.529 58.4353 311.625 56.3074C311.764 53.5699 312.904 50.9908 314.812 49.0961C316.72 47.2013 319.252 46.1336 321.892 46.1108C323.166 46.0987 324.428 46.3575 325.602 46.8714C326.776 47.3852 327.835 48.1431 328.716 49.0984C329.597 50.0537 330.28 51.1861 330.723 52.426C331.167 53.6658 331.361 54.9868 331.294 56.3074Z" fill="#BEA27C"/>
<path d="M229.845 191.846C229.775 193.055 229.267 194.191 228.423 195.026C227.579 195.86 226.461 196.332 225.296 196.345C224.733 196.352 224.175 196.239 223.655 196.013C223.136 195.787 222.667 195.453 222.278 195.031C221.888 194.61 221.585 194.109 221.389 193.562C221.193 193.014 221.107 192.43 221.137 191.846C221.199 190.636 221.705 189.495 222.551 188.659C223.396 187.823 224.518 187.354 225.686 187.348C226.248 187.343 226.805 187.458 227.323 187.684C227.841 187.911 228.309 188.245 228.699 188.666C229.088 189.087 229.391 189.587 229.588 190.134C229.785 190.68 229.872 191.263 229.845 191.846Z" fill="#263238"/>
<path d="M249.312 191.846C249.246 193.056 248.739 194.194 247.894 195.03C247.049 195.865 245.929 196.336 244.763 196.345C244.201 196.35 243.644 196.235 243.127 196.009C242.61 195.782 242.142 195.447 241.754 195.026C241.366 194.604 241.065 194.105 240.869 193.558C240.674 193.011 240.588 192.429 240.618 191.846C240.68 190.638 241.184 189.5 242.027 188.664C242.869 187.828 243.987 187.358 245.153 187.348C245.715 187.341 246.274 187.454 246.793 187.68C247.312 187.906 247.781 188.24 248.171 188.662C248.56 189.083 248.863 189.583 249.059 190.131C249.255 190.679 249.341 191.263 249.312 191.846Z" fill="#263238"/>
<path d="M268.793 191.846C268.727 193.056 268.22 194.194 267.375 195.03C266.53 195.865 265.411 196.336 264.244 196.345C263.682 196.35 263.125 196.235 262.606 196.009C262.088 195.782 261.62 195.448 261.231 195.027C260.841 194.605 260.539 194.106 260.342 193.559C260.145 193.012 260.057 192.43 260.085 191.846C260.151 190.637 260.658 189.499 261.503 188.663C262.348 187.828 263.467 187.357 264.634 187.348C265.197 187.341 265.755 187.454 266.274 187.68C266.793 187.906 267.262 188.24 267.652 188.662C268.042 189.083 268.344 189.583 268.541 190.131C268.737 190.679 268.823 191.263 268.793 191.846Z" fill="#263238"/>
<path d="M226.567 267.932C226.497 269.141 225.989 270.277 225.145 271.111C224.301 271.946 223.183 272.418 222.018 272.431C221.455 272.436 220.898 272.321 220.38 272.094C219.862 271.868 219.394 271.534 219.004 271.112C218.615 270.691 218.312 270.192 218.115 269.645C217.918 269.098 217.831 268.515 217.858 267.932C217.924 266.723 218.431 265.585 219.276 264.749C220.121 263.913 221.241 263.443 222.407 263.434C222.97 263.429 223.527 263.543 224.045 263.77C224.563 263.997 225.031 264.331 225.421 264.752C225.81 265.173 226.113 265.673 226.31 266.219C226.507 266.766 226.594 267.349 226.567 267.932Z" fill="#263238"/>
<path d="M246.032 267.932C245.966 269.139 245.462 270.275 244.62 271.11C243.778 271.946 242.662 272.418 241.498 272.431C240.935 272.438 240.377 272.325 239.858 272.099C239.338 271.873 238.87 271.539 238.48 271.117C238.09 270.695 237.788 270.195 237.591 269.648C237.395 269.1 237.309 268.516 237.339 267.932C237.405 266.723 237.912 265.585 238.757 264.749C239.601 263.913 240.721 263.443 241.888 263.434C242.449 263.429 243.006 263.543 243.523 263.77C244.041 263.997 244.508 264.332 244.896 264.753C245.285 265.174 245.586 265.674 245.781 266.221C245.976 266.767 246.062 267.35 246.032 267.932Z" fill="#263238"/>
<path d="M265.557 267.932C265.491 269.142 264.984 270.28 264.139 271.116C263.294 271.951 262.175 272.421 261.008 272.431C260.446 272.434 259.89 272.318 259.373 272.09C258.856 271.863 258.388 271.529 257.999 271.108C257.611 270.687 257.308 270.189 257.11 269.643C256.912 269.097 256.824 268.515 256.849 267.932C256.918 266.724 257.426 265.588 258.27 264.753C259.115 263.918 260.232 263.447 261.398 263.434C261.961 263.427 262.519 263.54 263.038 263.766C263.557 263.992 264.026 264.326 264.416 264.748C264.806 265.169 265.108 265.669 265.304 266.217C265.501 266.765 265.587 267.349 265.557 267.932Z" fill="#263238"/>
<path d="M284.996 267.932C284.926 269.141 284.418 270.277 283.574 271.111C282.73 271.946 281.612 272.418 280.447 272.431C279.885 272.433 279.329 272.317 278.811 272.09C278.294 271.863 277.827 271.528 277.438 271.108C277.049 270.687 276.746 270.188 276.549 269.643C276.351 269.097 276.262 268.515 276.287 267.932C276.357 266.724 276.865 265.588 277.709 264.753C278.553 263.918 279.671 263.447 280.836 263.434C281.399 263.429 281.956 263.543 282.474 263.77C282.992 263.997 283.46 264.331 283.85 264.752C284.239 265.173 284.542 265.673 284.739 266.219C284.936 266.766 285.023 267.349 284.996 267.932Z" fill="#263238"/>
<path d="M304.549 267.932C304.479 269.141 303.971 270.277 303.127 271.111C302.283 271.946 301.165 272.418 300 272.431C299.437 272.438 298.879 272.325 298.36 272.099C297.84 271.873 297.371 271.539 296.982 271.117C296.592 270.695 296.289 270.195 296.093 269.647C295.897 269.1 295.811 268.516 295.841 267.932C295.907 266.723 296.414 265.585 297.259 264.749C298.103 263.913 299.223 263.443 300.39 263.434C300.952 263.429 301.509 263.543 302.027 263.77C302.545 263.997 303.014 264.331 303.403 264.752C303.792 265.173 304.095 265.673 304.292 266.219C304.489 266.766 304.576 267.349 304.549 267.932Z" fill="#263238"/>
<path d="M301.594 84.6856C307.638 78.548 307.959 68.7102 302.31 62.7122C296.661 56.7143 287.182 56.8275 281.138 62.9651C275.093 69.1026 274.773 78.9404 280.421 84.9384C286.07 90.9364 295.549 90.8232 301.594 84.6856Z" fill="#BEA27C"/>
<path d="M319.77 109.254C316.172 114.149 311.542 118.122 306.235 120.87C300.927 123.617 295.085 125.066 289.155 125.104C283.404 125.154 277.73 123.735 272.633 120.971C267.536 118.207 263.172 114.183 259.926 109.254C266.944 101.996 278.049 97.2578 290.353 97.2578C302.657 97.2578 313.373 101.996 319.77 109.254Z" fill="#BEA27C"/>
<path opacity="0.1" d="M301.594 84.6856C307.638 78.548 307.959 68.7102 302.31 62.7122C296.661 56.7143 287.182 56.8275 281.138 62.9651C275.093 69.1026 274.773 78.9404 280.421 84.9384C286.07 90.9364 295.549 90.8232 301.594 84.6856Z" fill="white"/>
<path opacity="0.1" d="M319.77 109.254C316.172 114.149 311.542 118.122 306.235 120.87C300.927 123.617 295.085 125.066 289.155 125.104C283.404 125.154 277.73 123.735 272.633 120.971C267.536 118.207 263.172 114.183 259.926 109.254C266.944 101.996 278.049 97.2578 290.353 97.2578C302.657 97.2578 313.373 101.996 319.77 109.254Z" fill="white"/>
<path d="M107.297 212.734C105.925 215.853 104.481 219.287 103.225 222.616C101.969 225.944 100.683 229.378 99.5713 232.797C97.3009 239.535 95.5717 246.456 94.4014 253.49L94.0837 255.695C94.0534 256.073 94.0876 256.454 94.1848 256.819C94.5256 258.062 95.0623 259.238 95.7733 260.298C97.6278 263.044 99.7792 265.559 102.185 267.796C104.722 270.246 107.383 272.553 110.157 274.709C112.929 276.928 115.847 279.087 118.72 281.126L116.02 286.39C109.158 283.285 102.644 279.408 96.5964 274.829C93.3699 272.385 90.458 269.523 87.9317 266.311C86.4343 264.4 85.2666 262.233 84.4803 259.908C84.0231 258.456 83.7892 256.938 83.7871 255.41C83.7871 255.05 83.7871 254.525 83.7871 254.27V253.535L83.9315 252.036C84.7594 244.224 86.3415 236.517 88.6538 229.033C89.7802 225.345 90.9788 221.671 92.3507 218.087C93.7226 214.503 95.1379 210.994 96.8853 207.351L107.297 212.734Z" fill="#E58A7B"/>
<path d="M116.684 280.197L126.894 274.829L124.251 286.465C124.251 286.465 117.247 288.505 113.998 284.966L116.684 280.197Z" fill="#E58A7B"/>
<path d="M136.238 276.733L133.523 286.36L124.252 286.465L126.895 274.829L136.238 276.733Z" fill="#E58A7B"/>
<path d="M150.65 156.593C151.196 158.671 151.956 160.682 152.917 162.591C152.636 162.921 152.275 163.167 151.871 163.302C151.466 163.436 151.035 163.455 150.621 163.356L150.65 156.593Z" fill="#DF5753"/>
<path d="M150.347 156.683C150.945 156.683 151.43 155.911 151.43 154.959C151.43 154.006 150.945 153.234 150.347 153.234C149.749 153.234 149.264 154.006 149.264 154.959C149.264 155.911 149.749 156.683 150.347 156.683Z" fill="#263238"/>
<path d="M150.028 153.293L152.223 152.648C152.223 152.648 151.155 154.418 150.028 153.293Z" fill="#263238"/>
<path d="M122.447 167.6C123.761 174.572 125.075 187.363 120.367 192.027C120.367 192.027 122.216 199.104 134.707 199.104C148.441 199.104 141.264 192.027 141.264 192.027C133.769 190.167 133.956 184.394 135.27 178.966L122.447 167.6Z" fill="#E58A7B"/>
<path d="M118.793 151.705C119.486 163.356 119.544 168.304 125.205 174.288C133.74 183.285 147.372 179.866 150.044 168.289C152.456 157.793 150.925 140.519 139.935 135.885C137.523 134.853 134.897 134.477 132.306 134.793C129.714 135.109 127.244 136.106 125.127 137.69C123.01 139.274 121.318 141.392 120.21 143.844C119.101 146.297 118.614 149.002 118.793 151.705Z" fill="#E58A7B"/>
<path d="M119.905 138.599C114.273 140.728 106.763 139.139 109.709 157.178C112.829 176.282 108.034 182.564 108.034 182.564C108.034 182.564 129.393 187.288 151.199 182.28C151.199 182.28 144.541 170.194 146.404 161.286C148.787 150.04 146.91 145.886 146.91 145.886C146.91 145.886 127.819 135.6 119.905 138.599Z" fill="#263238"/>
<path d="M143.732 157.778C143.738 159.994 144.349 162.162 145.494 164.031C147.025 166.46 148.83 165.531 149.278 162.952C149.682 160.687 149.379 156.684 147.429 155.124C145.48 153.565 143.761 155.094 143.732 157.778Z" fill="#E58A7B"/>
<path d="M115.01 140.564C113.392 135.84 121.104 128.568 137.422 131.567C153.741 134.566 154.448 148.676 154.448 148.676L151.156 144.597L151.3 148.886L134.534 152.23L115.01 140.564Z" fill="#263238"/>
<path d="M116.395 192.821C116.299 192.136 116.464 191.439 116.855 190.879C117.246 190.319 117.832 189.939 118.489 189.822C123.572 188.952 135.125 187.182 140.931 188.022C145.263 188.652 146.389 191.261 146.577 193.405C146.606 193.781 146.558 194.158 146.435 194.513C146.312 194.867 146.118 195.19 145.865 195.46C145.612 195.73 145.306 195.941 144.968 196.078C144.63 196.215 144.268 196.275 143.905 196.254L118.807 195.085C118.215 195.054 117.652 194.811 117.212 194.399C116.773 193.986 116.484 193.429 116.395 192.821Z" fill="#BEA27C"/>
<path opacity="0.6" d="M116.395 192.821C116.299 192.136 116.464 191.439 116.855 190.879C117.246 190.319 117.832 189.939 118.489 189.822C123.572 188.952 135.125 187.182 140.931 188.022C145.263 188.652 146.389 191.261 146.577 193.405C146.606 193.781 146.558 194.158 146.435 194.513C146.312 194.867 146.118 195.19 145.865 195.46C145.612 195.73 145.306 195.941 144.968 196.078C144.63 196.215 144.268 196.275 143.905 196.254L118.807 195.085C118.215 195.054 117.652 194.811 117.212 194.399C116.773 193.986 116.484 193.429 116.395 192.821Z" fill="black"/>
<path d="M130.909 454.786L140.224 461.504L155.806 439.566L146.491 432.863L130.909 454.786Z" fill="#E58A7B"/>
<path d="M109.189 454.352L119.024 460.17L132.815 436.972L122.981 431.154L109.189 454.352Z" fill="#E58A7B"/>
<path d="M155.791 439.566L147.762 450.872L138.447 444.17L146.477 432.863L155.791 439.566Z" fill="#CF6F64"/>
<path d="M122.966 431.154L132.815 436.987L125.71 448.938L115.861 443.105L122.966 431.154Z" fill="#CF6F64"/>
<path d="M138.764 266.059C138.764 266.059 175.127 313.638 168.297 359.148C162.795 395.901 130.88 445.67 130.88 445.67L115.875 437.932C126.451 415.927 135.476 393.155 142.88 369.795C145.163 362.542 145.83 354.846 144.829 347.286C143.828 339.727 141.187 332.503 137.104 326.159C118.677 298.223 89.159 314.853 109.016 266.059H138.764Z" fill="#BEA27C"/>
<path opacity="0.6" d="M138.764 266.059C138.764 266.059 175.127 313.638 168.297 359.148C162.795 395.901 130.88 445.67 130.88 445.67L115.875 437.932C126.451 415.927 135.476 393.155 142.88 369.795C145.163 362.542 145.83 354.846 144.829 347.286C143.828 339.727 141.187 332.503 137.104 326.159C118.677 298.223 89.159 314.853 109.016 266.059H138.764Z" fill="black"/>
<path opacity="0.4" d="M156.6 296.617L151.314 291.159C151.314 291.594 161.553 357.228 164.427 375.672C166.123 370.284 167.422 364.77 168.312 359.177C171.691 336.849 164.629 314.042 156.6 296.617Z" fill="black"/>
<path d="M154.997 266.059C154.997 266.059 198.783 325.859 200.025 361.712C201.05 391.703 152.369 449.809 152.369 449.809L138.217 440.302C138.217 440.302 166.709 399.035 173.886 365.326C171.114 331.917 112.482 266.059 112.482 266.059H154.997Z" fill="#BEA27C"/>
<path opacity="0.6" d="M154.997 266.059C154.997 266.059 198.783 325.859 200.025 361.712C201.05 391.703 152.369 449.809 152.369 449.809L138.217 440.302C138.217 440.302 166.709 399.035 173.886 365.326C171.114 331.917 112.482 266.059 112.482 266.059H154.997Z" fill="black"/>
<path d="M100.828 194.696C96.1494 195.85 91.6582 213.514 91.6582 213.514L109.955 226.2C109.955 226.2 116.049 212.225 113.912 206.107C111.703 199.734 106.706 193.241 100.828 194.696Z" fill="#BEA27C"/>
<path opacity="0.2" d="M104.41 206.077L103.139 221.477L109.94 226.216C111.819 221.825 113.209 217.227 114.085 212.51L104.41 206.077Z" fill="black"/>
<path d="M160.412 195.04C160.412 195.04 165.813 197.005 154.997 266.042H108.987C109.767 246.548 109.782 234.552 100.828 194.695C107.27 193.317 113.801 192.425 120.367 192.026C127.324 191.508 134.307 191.508 141.263 192.026C150.246 192.881 160.412 195.04 160.412 195.04Z" fill="#BEA27C"/>
<path d="M165.091 206.077C166.131 209.076 167.228 212.3 168.384 215.404C169.539 218.508 170.636 221.702 171.806 224.851L175.344 234.268L176.24 236.622L176.702 237.791L176.918 238.376C176.918 238.481 176.918 238.481 176.918 238.466C176.654 238.08 176.309 237.762 175.907 237.537C175.336 237.187 174.692 236.987 174.03 236.952C173.48 236.934 172.933 237.041 172.427 237.267C171.763 237.582 171.763 237.716 171.777 237.701C171.897 237.602 172.004 237.486 172.095 237.357C172.894 236.267 173.586 235.096 174.16 233.863C174.839 232.483 175.489 231.014 176.138 229.529C177.409 226.53 178.579 223.426 179.749 220.292C180.918 217.158 182.03 213.994 183.114 210.8L186.406 201.233L191.966 202.733C190.868 209.571 189.453 216.228 187.749 223.006C186.926 226.38 185.958 229.724 184.861 233.098C184.312 234.792 183.706 236.472 183.012 238.196C182.29 240.068 181.4 241.865 180.355 243.565C179.971 244.137 179.546 244.678 179.084 245.184C178.347 246.011 177.452 246.67 176.456 247.118C175.573 247.512 174.615 247.697 173.655 247.658C172.578 247.617 171.53 247.292 170.607 246.714C169.52 246.009 168.617 245.035 167.979 243.879C167.763 243.49 167.575 243.1 167.445 242.815L167.17 242.245L166.622 241.075L165.524 238.751C164.08 235.632 162.636 232.483 161.38 229.319C160.123 226.155 158.795 222.946 157.553 219.722C156.311 216.498 155.199 213.274 154.145 209.796L165.091 206.077Z" fill="#E58A7B"/>
<path d="M160.411 195.04C165.942 196.405 172.167 213.379 172.167 213.379L155.718 227.909C155.718 227.909 145.075 209.405 147.227 203.302C149.465 196.944 153.191 193.256 160.411 195.04Z" fill="#BEA27C"/>
<path d="M189.02 195.865L194.796 190.856L198.811 197.349L195.85 202.763C195.85 202.763 191.143 207.261 186.984 204.967C186.323 203.426 186.165 201.704 186.533 200.061C186.9 198.419 187.773 196.946 189.02 195.865Z" fill="#E58A7B"/>
<path d="M205.223 190.871L204.79 192.506L195.648 194.095L194.753 190.856L205.223 190.871Z" fill="#E58A7B"/>
<path d="M153.495 450.572L137.003 439.505L139.963 434.167L158.491 445.998L153.495 450.572Z" fill="#BEA27C"/>
<path d="M125.479 459.389C124.032 459.206 122.642 458.694 121.407 457.89C121.356 457.871 121.312 457.837 121.281 457.791C121.249 457.746 121.232 457.691 121.232 457.635C121.232 457.579 121.249 457.524 121.281 457.479C121.312 457.433 121.356 457.399 121.407 457.38C121.855 457.23 125.739 455.986 126.866 456.945C126.992 457.054 127.089 457.197 127.144 457.358C127.2 457.519 127.214 457.692 127.183 457.86C127.163 458.13 127.077 458.39 126.933 458.616C126.789 458.841 126.592 459.025 126.36 459.149C126.09 459.303 125.787 459.385 125.479 459.389ZM122.23 457.74C124.035 458.7 125.479 459.045 126.173 458.685C126.323 458.598 126.45 458.472 126.541 458.32C126.632 458.168 126.684 457.994 126.692 457.815C126.692 457.575 126.692 457.47 126.562 457.41C125.956 456.9 123.79 457.29 122.201 457.74H122.23Z" fill="#263238"/>
<path d="M121.508 457.995C121.432 457.994 121.36 457.961 121.306 457.905C121.285 457.863 121.273 457.817 121.273 457.77C121.273 457.723 121.285 457.676 121.306 457.635C121.306 457.5 122.245 454.246 123.718 453.511C123.906 453.422 124.11 453.376 124.317 453.376C124.524 453.376 124.728 453.422 124.916 453.511C125.119 453.578 125.295 453.713 125.415 453.895C125.536 454.077 125.594 454.295 125.581 454.516C125.48 455.865 122.837 457.725 121.624 458.04L121.508 457.995ZM124.31 453.901C124.169 453.906 124.032 453.941 123.906 454.006C123.01 454.456 122.274 456.21 121.913 457.275C123.184 456.72 124.931 455.251 124.989 454.426C124.989 454.291 124.989 454.126 124.657 453.976C124.548 453.916 124.431 453.875 124.31 453.856V453.901Z" fill="#263238"/>
<path d="M146.086 465.868C144.454 465.868 142.187 463.693 140.945 462.359C140.914 462.313 140.896 462.258 140.896 462.201C140.896 462.145 140.914 462.09 140.945 462.044C140.974 461.996 141.014 461.956 141.063 461.93C141.111 461.903 141.165 461.891 141.22 461.894C141.797 461.894 146.808 462.674 147.516 464.143C147.591 464.275 147.631 464.425 147.631 464.578C147.631 464.731 147.591 464.881 147.516 465.013C147.41 465.242 147.25 465.439 147.05 465.586C146.85 465.733 146.618 465.824 146.375 465.853L146.086 465.868ZM141.898 462.569C143.718 464.398 145.321 465.418 146.231 465.298C146.39 465.276 146.542 465.214 146.673 465.118C146.804 465.021 146.91 464.892 146.982 464.743C147.014 464.692 147.031 464.632 147.031 464.571C147.031 464.509 147.014 464.449 146.982 464.398C146.606 463.588 143.935 462.899 141.898 462.569Z" fill="#263238"/>
<path d="M142.058 462.493C141.734 462.503 141.41 462.478 141.09 462.418C141.046 462.411 141.004 462.392 140.968 462.364C140.933 462.335 140.905 462.297 140.888 462.253C140.867 462.209 140.855 462.16 140.855 462.111C140.855 462.061 140.867 462.013 140.888 461.968C140.975 461.863 142.924 459.419 144.773 459.254C145.296 459.212 145.815 459.384 146.217 459.734C146.78 460.244 146.751 460.694 146.607 460.979C146.246 461.998 143.748 462.493 142.058 462.493ZM141.683 461.938C143.3 462.028 145.885 461.474 146.217 460.739C146.217 460.739 146.333 460.499 145.957 460.169C145.808 460.034 145.633 459.933 145.444 459.871C145.256 459.809 145.057 459.788 144.86 459.809C143.614 460.17 142.506 460.918 141.683 461.953V461.938Z" fill="#263238"/>
<path d="M121.898 456.376L109.652 452.777C109.441 452.711 109.213 452.728 109.013 452.825C108.814 452.921 108.655 453.091 108.569 453.302L104.438 462.944C104.341 463.191 104.296 463.456 104.305 463.723C104.314 463.989 104.377 464.251 104.49 464.49C104.603 464.73 104.764 464.941 104.962 465.112C105.159 465.282 105.39 465.407 105.637 465.478C109.969 466.648 112.049 466.978 117.435 468.582C120.757 469.542 125.494 471.326 130.072 472.676C134.649 474.025 136.18 469.392 134.404 468.402C126.375 463.994 125.739 460.905 123.544 457.606C123.151 457.008 122.568 456.573 121.898 456.376Z" fill="#BEA27C"/>
<path d="M141.277 460.603L130.822 453.106C130.644 452.972 130.426 452.91 130.208 452.932C129.989 452.954 129.787 453.059 129.638 453.226L122.706 460.963C122.537 461.163 122.411 461.398 122.336 461.653C122.262 461.907 122.24 462.175 122.273 462.439C122.305 462.703 122.392 462.957 122.526 463.183C122.661 463.409 122.84 463.604 123.052 463.752C126.735 466.317 128.641 467.351 133.248 470.665C136.136 472.705 141.725 477.233 145.624 480.052C149.523 482.871 152.426 479.002 151.039 477.473C144.83 470.59 143.472 466.272 142.447 462.358C142.269 461.648 141.855 461.026 141.277 460.603Z" fill="#BEA27C"/>
<path d="M132.801 446.659L113.955 436.927L115.905 431.619L136.036 441.876L132.801 446.659Z" fill="#BEA27C"/>
<path d="M108.294 263.239L106.706 267.557C106.547 267.887 106.922 268.232 107.457 268.232H155.228C155.647 268.232 155.993 268.022 156.022 267.752L156.427 263.464C156.427 263.179 156.095 262.924 155.647 262.924H109.045C108.905 262.91 108.763 262.932 108.633 262.986C108.502 263.041 108.386 263.128 108.294 263.239Z" fill="#BEA27C"/>
<path opacity="0.4" d="M108.294 263.239L106.706 267.557C106.547 267.887 106.922 268.232 107.457 268.232H155.228C155.647 268.232 155.993 268.022 156.022 267.752L156.427 263.464C156.427 263.179 156.095 262.924 155.647 262.924H109.045C108.905 262.91 108.763 262.932 108.633 262.986C108.502 263.041 108.386 263.128 108.294 263.239Z" fill="white"/>
<path d="M115.818 268.652H114.561C114.316 268.652 114.128 268.517 114.142 268.352L114.734 262.789C114.734 262.639 114.966 262.504 115.211 262.504H116.467C116.713 262.504 116.901 262.639 116.886 262.789L116.294 268.352C116.28 268.517 116.063 268.652 115.818 268.652Z" fill="#BEA27C"/>
<path d="M145.279 268.652H144.037C143.791 268.652 143.604 268.517 143.618 268.352L144.196 262.789C144.196 262.639 144.441 262.504 144.687 262.504H145.929C146.174 262.504 146.376 262.639 146.347 262.789L145.77 268.352C145.698 268.517 145.539 268.652 145.279 268.652Z" fill="#BEA27C"/>
<g style="mix-blend-mode:multiply">
<path d="M114.72 522.593C136.087 522.593 153.408 521.291 153.408 519.684C153.408 518.078 136.087 516.775 114.72 516.775C93.3534 516.775 76.0322 518.078 76.0322 519.684C76.0322 521.291 93.3534 522.593 114.72 522.593Z" fill="#F5F5F5"/>
</g>
<path d="M138.288 515.576C131.443 513.506 123.847 510.852 119.254 508.078C119.124 507.988 118.98 507.943 118.85 507.868V475.689H132.699C133.75 475.624 134.738 475.145 135.46 474.349C136.183 473.553 136.585 472.501 136.585 471.408C136.585 470.314 136.183 469.262 135.46 468.466C134.738 467.67 133.75 467.191 132.699 467.126H118.922V320.444H110.604V467.126H96.8415C96.2795 467.092 95.7167 467.177 95.1876 467.376C94.6584 467.576 94.1742 467.886 93.7645 468.287C93.3549 468.688 93.0285 469.171 92.8054 469.708C92.5823 470.245 92.4672 470.823 92.4672 471.408C92.4672 471.992 92.5823 472.57 92.8054 473.107C93.0285 473.644 93.3549 474.127 93.7645 474.528C94.1742 474.929 94.6584 475.239 95.1876 475.439C95.7167 475.638 96.2795 475.723 96.8415 475.689H110.604V507.823C110.474 507.823 110.344 507.943 110.214 508.033C105.55 510.852 98.0112 513.506 91.1661 515.531C90.7037 515.676 90.3067 515.988 90.0468 516.411C89.787 516.834 89.6816 517.339 89.7497 517.836C89.8177 518.333 90.0548 518.787 90.4179 519.118C90.7811 519.449 91.2463 519.634 91.7293 519.639H137.724C138.186 519.607 138.623 519.411 138.962 519.084C139.301 518.757 139.522 518.319 139.588 517.844C139.654 517.368 139.561 516.884 139.324 516.471C139.088 516.058 138.722 515.742 138.288 515.576Z" fill="#E0E0E0"/>
<path d="M140.411 305.509H89.0587C84.9273 305.509 81.5781 308.986 81.5781 313.276V329.126C81.5781 333.416 84.9273 336.894 89.0587 336.894H140.411C144.543 336.894 147.892 333.416 147.892 329.126V313.276C147.892 308.986 144.543 305.509 140.411 305.509Z" fill="#BEA27C"/>
<path d="M88.582 336.909V339.638C88.582 341.888 90.9359 343.717 93.8242 343.717H135.704C138.592 343.717 140.946 341.888 140.946 339.638V336.909H88.582Z" fill="#BEA27C"/>
<path opacity="0.3" d="M88.582 336.909V339.638C88.582 341.888 90.9359 343.717 93.8242 343.717H135.704C138.592 343.717 140.946 341.888 140.946 339.638V336.909H88.582Z" fill="white"/>
</svg>
