<svg width="95" height="32" viewBox="0 0 95 32" fill="none" xmlns="http://www.w3.org/2000/svg">
<rect width="95" height="32" rx="16" fill="#D19E81" fill-opacity="0.5"/>
<path d="M13.358 11.8182H14.7699L17.5938 16.571H17.7131L20.5369 11.8182H21.9489L18.2699 17.804V22H17.0369V17.804L13.358 11.8182ZM25.4066 22.1591C24.7172 22.1591 24.1123 21.995 23.592 21.6669C23.0749 21.3388 22.6706 20.8797 22.3789 20.2898C22.0906 19.6998 21.9464 19.0104 21.9464 18.2216C21.9464 17.4261 22.0906 16.7318 22.3789 16.1385C22.6706 15.5452 23.0749 15.0845 23.592 14.7564C24.1123 14.4283 24.7172 14.2642 25.4066 14.2642C26.096 14.2642 26.6992 14.4283 27.2163 14.7564C27.7366 15.0845 28.141 15.5452 28.4293 16.1385C28.721 16.7318 28.8668 17.4261 28.8668 18.2216C28.8668 19.0104 28.721 19.6998 28.4293 20.2898C28.141 20.8797 27.7366 21.3388 27.2163 21.6669C26.6992 21.995 26.096 22.1591 25.4066 22.1591ZM25.4066 21.1051C25.9303 21.1051 26.3612 20.9709 26.6992 20.7024C27.0373 20.4339 27.2875 20.081 27.4499 19.6435C27.6123 19.206 27.6935 18.732 27.6935 18.2216C27.6935 17.7112 27.6123 17.2356 27.4499 16.7947C27.2875 16.3539 27.0373 15.9976 26.6992 15.7259C26.3612 15.4541 25.9303 15.3182 25.4066 15.3182C24.8829 15.3182 24.4521 15.4541 24.114 15.7259C23.7759 15.9976 23.5257 16.3539 23.3633 16.7947C23.2009 17.2356 23.1197 17.7112 23.1197 18.2216C23.1197 18.732 23.2009 19.206 23.3633 19.6435C23.5257 20.081 23.7759 20.4339 24.114 20.7024C24.4521 20.9709 24.8829 21.1051 25.4066 21.1051ZM35.4703 18.8778V14.3636H36.6436V22H35.4703V20.7074H35.3908C35.2118 21.0952 34.9334 21.425 34.5556 21.6967C34.1777 21.9652 33.7005 22.0994 33.1238 22.0994C32.6465 22.0994 32.2222 21.995 31.851 21.7862C31.4798 21.5741 31.1882 21.2559 30.976 20.8317C30.7639 20.4041 30.6578 19.8655 30.6578 19.2159V14.3636H31.8311V19.1364C31.8311 19.6932 31.9869 20.1373 32.2985 20.4688C32.6133 20.8002 33.0144 20.9659 33.5016 20.9659C33.7933 20.9659 34.0899 20.8913 34.3915 20.7422C34.6964 20.593 34.9516 20.3643 35.1571 20.0561C35.3659 19.7479 35.4703 19.3551 35.4703 18.8778ZM38.7926 22V14.3636H39.9261V15.517H40.0057C40.1449 15.1392 40.3968 14.8326 40.7614 14.5973C41.1259 14.362 41.5369 14.2443 41.9943 14.2443C42.0805 14.2443 42.1882 14.246 42.3175 14.2493C42.4467 14.2526 42.5445 14.2576 42.6108 14.2642V15.4574C42.571 15.4474 42.4799 15.4325 42.3374 15.4126C42.1982 15.3894 42.0507 15.3778 41.8949 15.3778C41.5237 15.3778 41.1922 15.4557 40.9006 15.6115C40.6122 15.764 40.3835 15.9761 40.2145 16.2479C40.0488 16.5163 39.9659 16.8229 39.9659 17.1676V22H38.7926ZM49.9476 22L47.1635 11.8182H48.4164L50.5442 20.1108H50.6436L52.8113 11.8182H54.2033L56.3709 20.1108H56.4703L58.5982 11.8182H59.851L57.0669 22H55.7942L53.5471 13.8864H53.4675L51.2203 22H49.9476ZM62.7644 22.179C62.2805 22.179 61.8413 22.0878 61.4469 21.9055C61.0525 21.7199 60.7393 21.4531 60.5073 21.1051C60.2753 20.7538 60.1593 20.3295 60.1593 19.8324C60.1593 19.3949 60.2454 19.0402 60.4178 18.7685C60.5901 18.4934 60.8205 18.2779 61.1088 18.1222C61.3972 17.9664 61.7154 17.8504 62.0634 17.7741C62.4147 17.6946 62.7677 17.6316 63.1223 17.5852C63.5864 17.5256 63.9625 17.4808 64.2509 17.451C64.5426 17.4179 64.7547 17.3632 64.8873 17.2869C65.0231 17.2107 65.0911 17.0781 65.0911 16.8892V16.8494C65.0911 16.3589 64.9569 15.9777 64.6884 15.706C64.4232 15.4342 64.0205 15.2983 63.4803 15.2983C62.9202 15.2983 62.481 15.4209 62.1628 15.6662C61.8446 15.9115 61.6209 16.1733 61.4917 16.4517L60.378 16.054C60.5769 15.59 60.842 15.2287 61.1735 14.9702C61.5082 14.7083 61.8728 14.526 62.2672 14.4233C62.665 14.3172 63.056 14.2642 63.4405 14.2642C63.6858 14.2642 63.9675 14.294 64.2857 14.3537C64.6072 14.41 64.9171 14.5277 65.2154 14.7067C65.517 14.8857 65.7672 15.1558 65.9661 15.517C66.165 15.8783 66.2644 16.3622 66.2644 16.9688V22H65.0911V20.9659H65.0314C64.9519 21.1316 64.8193 21.3089 64.6337 21.4979C64.4481 21.6868 64.2012 21.8475 63.8929 21.9801C63.5847 22.1127 63.2085 22.179 62.7644 22.179ZM62.9434 21.125C63.4074 21.125 63.7985 21.0339 64.1167 20.8516C64.4382 20.6693 64.6801 20.4339 64.8425 20.1456C65.0082 19.8572 65.0911 19.554 65.0911 19.2358V18.1619C65.0414 18.2216 64.932 18.2763 64.763 18.326C64.5972 18.3724 64.405 18.4138 64.1863 18.4503C63.9708 18.4834 63.7604 18.5133 63.5549 18.5398C63.3527 18.563 63.1886 18.5829 63.0627 18.5994C62.7578 18.6392 62.4727 18.7038 62.2076 18.7933C61.9457 18.8795 61.7336 19.0104 61.5712 19.1861C61.4121 19.3584 61.3326 19.5937 61.3326 19.892C61.3326 20.2997 61.4834 20.608 61.785 20.8168C62.0899 21.0223 62.476 21.125 62.9434 21.125ZM68.4059 22V14.3636H69.5394V15.517H69.619C69.7582 15.1392 70.0101 14.8326 70.3746 14.5973C70.7392 14.362 71.1502 14.2443 71.6076 14.2443C71.6938 14.2443 71.8015 14.246 71.9308 14.2493C72.06 14.2526 72.1578 14.2576 72.2241 14.2642V15.4574C72.1843 15.4474 72.0932 15.4325 71.9506 15.4126C71.8114 15.3894 71.6639 15.3778 71.5082 15.3778C71.137 15.3778 70.8055 15.4557 70.5138 15.6115C70.2255 15.764 69.9968 15.9761 69.8278 16.2479C69.6621 16.5163 69.5792 16.8229 69.5792 17.1676V22H68.4059ZM76.266 22.1591C75.6296 22.1591 75.0678 21.9983 74.5806 21.6768C74.0934 21.352 73.7122 20.8946 73.4371 20.3047C73.1621 19.7114 73.0245 19.0104 73.0245 18.2017C73.0245 17.3996 73.1621 16.7036 73.4371 16.1136C73.7122 15.5237 74.0951 15.0679 74.5856 14.7464C75.0761 14.425 75.6429 14.2642 76.2859 14.2642C76.783 14.2642 77.1758 14.3471 77.4641 14.5128C77.7558 14.6752 77.9779 14.8608 78.1303 15.0696C78.2861 15.2751 78.4071 15.4441 78.4933 15.5767H78.5927V11.8182H79.766V22H78.6325V20.8267H78.4933C78.4071 20.9659 78.2844 21.1416 78.1254 21.3537C77.9663 21.5625 77.7392 21.7498 77.4442 21.9155C77.1493 22.0779 76.7565 22.1591 76.266 22.1591ZM76.4251 21.1051C76.8957 21.1051 77.2934 20.9825 77.6183 20.7372C77.9431 20.4886 78.19 20.1456 78.359 19.7081C78.5281 19.2673 78.6126 18.7585 78.6126 18.1818C78.6126 17.6117 78.5297 17.1129 78.364 16.6854C78.1983 16.2545 77.953 15.9197 77.6282 15.6811C77.3034 15.4392 76.9023 15.3182 76.4251 15.3182C75.9279 15.3182 75.5136 15.4458 75.1822 15.701C74.854 15.9529 74.6071 16.2959 74.4414 16.7301C74.279 17.161 74.1978 17.6449 74.1978 18.1818C74.1978 18.7254 74.2807 19.2192 74.4464 19.6634C74.6154 20.1042 74.864 20.4555 75.1921 20.7173C75.5236 20.9759 75.9345 21.1051 76.4251 21.1051Z" fill="white"/>
</svg>
